<?xml version="1.0" encoding="iso-8859-1"?>
<!-- Generator: Adobe Illustrator 19.0.0, SVG Export Plug-In . SVG Version: 6.00 Build 0)  -->
<svg version="1.1" id="Layer_1" xmlns="http://www.w3.org/2000/svg" xmlns:xlink="http://www.w3.org/1999/xlink" x="0px" y="0px"
	 viewBox="0 0 512.309 512.309" style="enable-background:new 0 0 512.309 512.309;" xml:space="preserve">
<g>
	<path style="fill:#A47549;" d="M415.205,141.396c0-19.5-15.81-35.31-35.31-35.31H264.827L220.689,53.12H61.792
		c-14.627,0-26.483,11.855-26.483,26.483v61.793H415.205z"/>
	<path style="fill:#F4A551;" d="M467.862,167.879v264.828c0,14.627-11.855,26.483-26.483,26.483H26.174
		C11.546,459.189,0,447.333,0,432.706V167.879c0-14.627,11.546-26.483,26.174-26.483h415.206
		C456.007,141.396,467.862,153.251,467.862,167.879"/>
	<path style="fill:#A47549;" d="M477.09,176.706c22.475,0,39.194,20.771,34.392,42.726l-43.617,204.447V176.706H477.09z"/>
	<path style="fill:#3083C9;" d="M326.621,415.051H141.241c-9.754,0-17.655-7.901-17.655-17.655V203.189
		c0-9.754,7.901-17.655,17.655-17.655h185.379c9.754,0,17.655,7.901,17.655,17.655v194.207
		C344.276,407.15,336.375,415.051,326.621,415.051"/>
	<path style="fill:#FFFFFF;" d="M282.483,379.741h-97.103c-4.873,0-8.828-3.955-8.828-8.828V229.672
		c0-4.873,3.955-8.828,8.828-8.828h97.103c4.873,0,8.828,3.955,8.828,8.828v141.241C291.31,375.786,287.356,379.741,282.483,379.741
		"/>
	<polygon style="fill:#3083C9;" points="176.552,309.12 291.31,309.12 291.31,291.465 176.552,291.465 	"/>
	<g>
		<path style="fill:#FFFFFF;" d="M150.069,247.327c-4.882,0-8.828-3.946-8.828-8.828v-8.828c0-4.882,3.946-8.828,8.828-8.828
			s8.828,3.946,8.828,8.828v8.828C158.897,243.381,154.951,247.327,150.069,247.327"/>
		<path style="fill:#FFFFFF;" d="M150.069,291.465c-4.882,0-8.828-3.946-8.828-8.828v-8.828c0-4.882,3.946-8.828,8.828-8.828
			s8.828,3.946,8.828,8.828v8.828C158.897,287.519,154.951,291.465,150.069,291.465"/>
		<path style="fill:#FFFFFF;" d="M150.069,335.603c-4.882,0-8.828-3.946-8.828-8.828v-8.828c0-4.882,3.946-8.828,8.828-8.828
			s8.828,3.946,8.828,8.828v8.828C158.897,331.657,154.951,335.603,150.069,335.603"/>
		<path style="fill:#FFFFFF;" d="M150.069,379.741c-4.882,0-8.828-3.946-8.828-8.828v-8.828c0-4.882,3.946-8.828,8.828-8.828
			s8.828,3.946,8.828,8.828v8.828C158.897,375.795,154.951,379.741,150.069,379.741"/>
		<path style="fill:#FFFFFF;" d="M317.793,247.327c-4.882,0-8.828-3.946-8.828-8.828v-8.828c0-4.882,3.946-8.828,8.828-8.828
			c4.882,0,8.828,3.946,8.828,8.828v8.828C326.621,243.381,322.675,247.327,317.793,247.327"/>
		<path style="fill:#FFFFFF;" d="M317.793,291.465c-4.882,0-8.828-3.946-8.828-8.828v-8.828c0-4.882,3.946-8.828,8.828-8.828
			c4.882,0,8.828,3.946,8.828,8.828v8.828C326.621,287.519,322.675,291.465,317.793,291.465"/>
		<path style="fill:#FFFFFF;" d="M317.793,335.603c-4.882,0-8.828-3.946-8.828-8.828v-8.828c0-4.882,3.946-8.828,8.828-8.828
			c4.882,0,8.828,3.946,8.828,8.828v8.828C326.621,331.657,322.675,335.603,317.793,335.603"/>
		<path style="fill:#FFFFFF;" d="M317.793,379.741c-4.882,0-8.828-3.946-8.828-8.828v-8.828c0-4.882,3.946-8.828,8.828-8.828
			c4.882,0,8.828,3.946,8.828,8.828v8.828C326.621,375.795,322.675,379.741,317.793,379.741"/>
	</g>
</g>
<g>
</g>
<g>
</g>
<g>
</g>
<g>
</g>
<g>
</g>
<g>
</g>
<g>
</g>
<g>
</g>
<g>
</g>
<g>
</g>
<g>
</g>
<g>
</g>
<g>
</g>
<g>
</g>
<g>
</g>
</svg>
