<svg enable-background="new 0 0 36 36" height="512" viewBox="0 0 36 36" width="512" xmlns="http://www.w3.org/2000/svg"><path d="m13.411 34.999c6.298-2.859 12.105-1.559 15.14-2.936 3.035-1.378 8.617-6.016 2.28-19.978s-15.841-12.12-19.18-10.605c-15.632 7.095-9.395 38.582 1.76 33.519z" fill="#efefef"/><path d="m24.75 29.25h-13.5c-.828 0-1.5-.672-1.5-1.5v-10.5c0-.828.672-1.5 1.5-1.5h13.5c.828 0 1.5.672 1.5 1.5v10.5c0 .828-.672 1.5-1.5 1.5z" fill="#2fdf84"/><path d="m12 27.75v-10.5c0-.828.672-1.5 1.5-1.5h-2.25c-.828 0-1.5.672-1.5 1.5v10.5c0 .828.672 1.5 1.5 1.5h2.25c-.828 0-1.5-.672-1.5-1.5z" fill="#00b871"/><g fill="#a4afc1"><path d="m30.5 13.76c-.827 0-1.5-.673-1.5-1.5s.673-1.5 1.5-1.5 1.5.673 1.5 1.5-.673 1.5-1.5 1.5zm0-2c-.276 0-.5.224-.5.5s.224.5.5.5.5-.224.5-.5-.224-.5-.5-.5z"/><path d="m5.305 12.967h1v2h-1z" transform="matrix(.707 -.707 .707 .707 -8.176 8.196)"/><path d="m4.628 17.533h2v1h-2z" transform="matrix(.707 -.707 .707 .707 -11.103 9.262)"/></g><path d="m24.75 30h-13.5c-1.241 0-2.25-1.009-2.25-2.25v-10.5c0-1.241 1.009-2.25 2.25-2.25h13.5c1.241 0 2.25 1.009 2.25 2.25v10.5c0 1.241-1.009 2.25-2.25 2.25zm-13.5-13.5c-.414 0-.75.336-.75.75v10.5c0 .414.336.75.75.75h13.5c.414 0 .75-.336.75-.75v-10.5c0-.414-.336-.75-.75-.75z"/><path d="m24 15.75h-1.5v-3.75c0-2.481-2.019-4.5-4.5-4.5s-4.5 2.019-4.5 4.5v3.75h-1.5v-3.75c0-3.309 2.691-6 6-6s6 2.691 6 6z"/></svg>