<svg id="Layer_5" enable-background="new 0 0 62 62" height="auto" viewBox="0 0 62 62" width="auto" xmlns="http://www.w3.org/2000/svg"><g><g><path d="m26.008 61h9.984c4.697-1.961 8.008-6.6 8.008-12 0-7.168-5.832-13-13-13s-13 5.832-13 13c0 5.4 3.311 10.039 8.008 12z" fill="#f0bc5e"/></g><g><g><path d="m56 36h-8c-1.103 0-2-.897-2-2v-4c0-1.103.897-2 2-2h8c1.103 0 2 .897 2 2v4c0 1.103-.897 2-2 2z" fill="#f0bc5e"/></g></g><g><path d="m31 40c-4.963 0-9 4.037-9 9s4.037 9 9 9 9-4.037 9-9-4.037-9-9-9zm0 16c-3.859 0-7-3.141-7-7s3.141-7 7-7 7 3.141 7 7-3.141 7-7 7z"/><path d="m31 46c-1.654 0-3 1.346-3 3s1.346 3 3 3 3-1.346 3-3-1.346-3-3-3zm0 4c-.552 0-1-.448-1-1s.448-1 1-1 1 .448 1 1-.448 1-1 1z"/><path d="m57 24h-1v-24h-50v20.184c-1.161.414-2 1.514-2 2.816v1.382l-1.235.618c-1.705.852-2.765 2.565-2.765 4.472v27.528c0 2.757 2.243 5 5 5h52c2.757 0 5-2.243 5-5v-28c0-2.757-2.243-5-5-5zm-17 0v-18h14v18zm6 36h-28v-3.414l-2-2v-11.172l2-2v-15.414h6v5c0 1.654 1.346 3 3 3h8c1.654 0 3-1.346 3-3v-5h4v11.414l4 4zm-35-40h-3v-14h14v18h-8v-1c0-1.654-1.346-3-3-3zm37-16v-2h2v2zm-2 0h-2v-2h2zm-4 0h-2v-2h2zm-16 22h10v5c0 .551-.448 1-1 1h-8c-.552 0-1-.449-1-1zm-2-2v-18h14v18zm14-20h-2v-2h2zm-4 0h-2v-2h2zm-4 0h-2v-2h2zm-4 0h-2v-2h2zm-4 0h-2v-2h2zm-4 0h-2v-2h2zm-4 0h-2v-2h2zm40 0h-2v-2h2zm-44-2v2h-2v-2zm-3 20h4c.552 0 1 .449 1 1v1h-6v-1c0-.551.448-1 1-1zm-5 35v-27.528c0-1.144.636-2.172 1.659-2.683l1.577-.789h10.764v14.586l-2 2v12.828l2 2v2.586h-11c-1.654 0-3-1.346-3-3zm58 0c0 1.654-1.346 3-3 3h-9v-19.414l-4-4v-10.586h13c1.654 0 3 1.346 3 3z"/><path d="m28 28h6v2h-6z"/><path d="m57 42c0-1.103-.897-2-2-2h-2c-1.103 0-2 .897-2 2v7.382c-.615.703-1 1.612-1 2.618 0 2.206 1.794 4 4 4s4-1.794 4-4c0-1.006-.385-1.915-1-2.618zm-2 0v6.142c-.322-.084-.653-.142-1-.142s-.678.058-1 .142v-6.142zm-1 12c-1.103 0-2-.897-2-2s.897-2 2-2 2 .897 2 2-.897 2-2 2z"/><circle cx="5" cy="57" r="1"/><circle cx="5" cy="53" r="1"/><circle cx="9" cy="57" r="1"/></g></g></svg>