<svg enable-background="new 0 0 36 36" height="512" viewBox="0 0 36 36" width="512" xmlns="http://www.w3.org/2000/svg"><path d="m34.904 20.355c-3.782-5.791-3.38-11.727-5.203-14.518s-7.256-7.603-20.093.782-9.572 17.5-7.566 20.569c9.388 14.372 39.561 3.423 32.862-6.833z" fill="#efefef"/><path d="m14.75 27.25c0 1.105.895 2 2 2h10.5c1.105 0 2-.895 2-2v-18.5c0-1.105-.895-2-2-2h-10.5c-1.105 0-2 .895-2 2z" fill="#2fdf84"/><path d="m17 27.25v-18.5c0-1.105.895-2 2-2h-2.25c-1.105 0-2 .895-2 2v18.5c0 1.105.895 2 2 2h2.25c-1.105 0-2-.895-2-2z" fill="#00b871"/><g fill="#a4afc1"><path d="m10.375 6.092h2v1h-2z"/><path d="m13.625 2.842h1v2h-1z"/><path d="m30.25 6.644c-.827 0-1.5-.673-1.5-1.5s.673-1.5 1.5-1.5 1.5.673 1.5 1.5-.673 1.5-1.5 1.5zm0-2c-.276 0-.5.224-.5.5s.224.5.5.5.5-.224.5-.5-.224-.5-.5-.5z"/></g><path d="m27.25 30h-10.5c-1.517 0-2.75-1.233-2.75-2.75v-4.5h1.5v4.5c0 .689.561 1.25 1.25 1.25h10.5c.689 0 1.25-.561 1.25-1.25v-18.5c0-.689-.561-1.25-1.25-1.25h-10.5c-.689 0-1.25.561-1.25 1.25v4.5h-1.5v-4.5c0-1.517 1.233-2.75 2.75-2.75h10.5c1.517 0 2.75 1.233 2.75 2.75v18.5c0 1.517-1.233 2.75-2.75 2.75z"/><path d="m6.75 17.25h14.5v1.5h-14.5z"/><path d="m17.78 22.53-1.06-1.06 3.47-3.47-3.47-3.47 1.061-1.061 4 4c.293.293.293.768 0 1.061z"/></svg>