<svg height="512pt" viewBox="-6 0 512 512" width="512pt" xmlns="http://www.w3.org/2000/svg"><path d="m500.757812 261.621094c0 138.28125-112.097656 250.378906-250.378906 250.378906s-250.378906-112.097656-250.378906-250.378906 112.097656-250.378906 250.378906-250.378906 250.378906 112.097656 250.378906 250.378906zm0 0" fill="#fdb44c"/><path d="m101.304688 462.804688c-10.988282-8.152344-21.289063-17.195313-30.792969-27.007813v-409.210937c0-8.46875 6.863281-15.332032 15.332031-15.332032h47.226562c-11.972656 0-21.679687 9.707032-21.679687 21.679688v424.761718c0 5.1875-5.917969 8.199219-10.085937 5.109376zm0 0" fill="#aba4d5"/><path d="m448.640625 100.367188v147.96875c0 120.898437-91.894531 222.261718-212.273437 233.449218-53.675782 4.988282-100.015626 3.46875-114.753907-5.386718-7.410156-4.453126-14.574219-9.28125-21.460937-14.453126v-435.375c0-8.464843 6.863281-15.328124 15.328125-15.328124h225.585937c3.480469 0 6.859375 1.183593 9.574219 3.359374l92.246094 73.792969c3.636719 2.910157 5.753906 7.316407 5.753906 11.972657zm0 0" fill="#c1bbdf"/><path d="m158.234375 0c-13.640625 0-24.699219 11.058594-24.699219 24.699219v32.359375c0 13.640625 11.058594 24.699218 24.699219 24.699218 13.636719 0 24.695313-11.058593 24.695313-24.699218v-32.359375c0-13.640625-11.058594-24.699219-24.695313-24.699219zm11.070313 55.355469c0 6.113281-4.957032 11.070312-11.070313 11.070312s-11.070313-4.957031-11.070313-11.070312v-28.957031c-.003906-6.113282 4.953126-11.070313 11.070313-11.070313 6.113281 0 11.070313 4.957031 11.070313 11.070313zm0 0" fill="#6e61b5"/><path d="m366.882812 45.988281v10.21875c0 2.820313-2.289062 5.109375-5.109374 5.109375h-61.316407c-2.824219 0-5.113281-2.289062-5.113281-5.109375v-10.21875c0-2.820312 2.289062-5.109375 5.113281-5.109375h61.316407c2.820312 0 5.109374 2.289063 5.109374 5.109375zm-224.832031 76.644531c5.644531 0 10.21875-4.574218 10.21875-10.21875 0-5.644531-4.574219-10.21875-10.21875-10.21875s-10.21875 4.574219-10.21875 10.21875c0 5.644532 4.574219 10.21875 10.21875 10.21875zm35.769531 0c5.644532 0 10.21875-4.574218 10.21875-10.21875 0-5.644531-4.574218-10.21875-10.21875-10.21875-5.644531 0-10.21875 4.574219-10.21875 10.21875 0 5.644532 4.574219 10.21875 10.21875 10.21875zm35.769532 0c5.644531 0 10.21875-4.574218 10.21875-10.21875 0-5.644531-4.574219-10.21875-10.21875-10.21875-5.644532 0-10.21875 4.574219-10.21875 10.21875 0 5.644532 4.574218 10.21875 10.21875 10.21875zm137.964844 61.320313h-214.613282c-2.820312 0-5.109375 2.289063-5.109375 5.109375v10.21875c0 2.820312 2.289063 5.109375 5.109375 5.109375h214.613282c2.820312 0 5.109374-2.289063 5.109374-5.109375v-10.21875c0-2.820312-2.289062-5.109375-5.109374-5.109375zm10.21875-40.878906h-224.832032c-2.820312 0-5.109375 2.289062-5.109375 5.109375v10.21875c0 2.824218 2.289063 5.109375 5.109375 5.109375h224.832032c2.820312 0 5.109374-2.285157 5.109374-5.109375v-10.21875c0-2.820313-2.289062-5.109375-5.109374-5.109375zm0 0" fill="#aba4d5"/><path d="m350.628906 14.566406 92.265625 73.8125c1.597657 1.277344 2.921875 2.871094 3.859375 4.617188h-72.84375c-10.40625 0-19.148437-7.8125-20.3125-18.152344l-7.039062-62.585938c1.46875.546876 2.828125 1.316407 4.070312 2.308594zm0 0" fill="#ececf1"/><path d="m172.710938 512h-40.878907c-5.644531 0-10.21875-4.574219-10.21875-10.21875v-250.648438c0-5.644531 4.574219-10.21875 10.21875-10.21875h40.878907c5.644531 0 10.21875 4.574219 10.21875 10.21875v250.648438c0 5.644531-4.574219 10.21875-10.21875 10.21875zm0 0" fill="#fff2b4"/><path d="m469.078125 251.132812v132.484376c-42.242187 76.519531-124.339844 128.382812-218.699219 128.382812-.851562 0-98.109375 0-98.109375 0-5.640625 0-10.21875-4.574219-10.21875-10.21875v-250.648438c0-5.644531 4.578125-10.21875 10.21875-10.21875h306.589844c5.644531 0 10.21875 4.574219 10.21875 10.21875zm0 0" fill="#fff5f5"/><path d="m437.90625 427.496094c-17.039062 19.25-36.988281 35.855468-59.167969 49.125h-213.691406c-2.824219 0-5.109375-2.289063-5.109375-5.109375v-190.644531c0-2.820313 2.285156-5.109376 5.109375-5.109376h267.75c2.824219 0 5.109375 2.289063 5.109375 5.109376zm0 0" fill="#8ed0e1"/><path d="m226.574219 309.554688c0 5.257812-4.261719 9.519531-9.519531 9.519531h-38.078126c-5.257812 0-9.519531-4.261719-9.519531-9.519531 0-5.257813 4.261719-9.519532 9.519531-9.519532h38.078126c5.257812 0 9.519531 4.261719 9.519531 9.519532zm-9.519531 80.4375h-38.078126c-5.257812 0-9.519531 4.261718-9.519531 9.519531 0 5.257812 4.261719 9.519531 9.519531 9.519531h38.078126c5.257812 0 9.519531-4.261719 9.519531-9.519531 0-5.253907-4.261719-9.519531-9.519531-9.519531zm81.867187-99.476563h-38.078125c-5.257812 0-9.519531 4.261719-9.519531 9.519531 0 5.257813 4.261719 9.519532 9.519531 9.519532h38.078125c5.257813 0 9.519531-4.261719 9.519531-9.519532 0-5.257812-4.261718-9.519531-9.519531-9.519531zm114.234375 4.28125h-28.558594c-5.257812 0-9.519531 4.261719-9.519531 9.519531 0 5.257813 4.265625 9.519532 9.519531 9.519532h28.558594c5.257812 0 9.519531-4.261719 9.519531-9.519532 0-5.253906-4.261719-9.519531-9.519531-9.519531zm0 0" fill="#b0dde9"/><path d="m312.25 357.152344c0 36.800781-29.835938 66.636718-66.636719 66.636718s-66.636719-29.835937-66.636719-66.636718c0-36.804688 29.832032-66.636719 66.636719-66.636719 36.800781 0 66.636719 29.832031 66.636719 66.636719zm0 0" fill="#ffe899"/><path d="m312.191406 354.324219c.460938 13.359375-2.84375 25.875-9.089844 36.515625-10.640624 6.25-23.160156 9.644531-36.515624 9.089844-34.390626-1.425782-62.972657-29.335938-63.753907-63.75-.691406-30.59375 29.621094-46.15625 45.609375-45.605469 34.566406 1.191406 62.5 27.664062 63.75 63.75zm0 0" fill="#fff2b4"/><path d="m437.90625 390.730469v36.8125c-16.761719 19.28125-36.511719 35.828125-58.84375 49.078125h-214.367188c-2.628906 0-4.757812-2.128906-4.757812-4.757813v-.261719c34.550781-43.492187 94.265625-96.921874 132.941406-129.882812 3.261719-2.78125 7.402344-4.300781 11.6875-4.300781h60.820313c7.910156 0 15.550781 2.828125 21.558593 7.972656 15.070313 12.921875 32.875 28.570313 50.960938 45.339844zm0 0" fill="#09a66d"/><path d="m437.90625 390.730469v37.0625c-6.089844 6.882812-12.257812 13.144531-19.0625 19.316406h-142.382812c-20.972657 0-32.726563-24.261719-19.632813-40.648437 14.476563-18.117188 42.117187-47.617188 62.722656-69.046876h45.851563c7.898437 0 15.53125 2.828126 21.53125 7.96875 15.074218 12.921876 32.882812 28.574219 50.972656 45.347657zm0 0" fill="#22b27f"/><path d="m387.199219 345.609375c-5.914063 3.976563-13.027344 6.304687-20.6875 6.304687-5.8125 0-11.3125-1.335937-16.207031-3.71875-5.417969-2.632812-11.667969-2.632812-17.085938 0-4.898438 2.382813-10.398438 3.71875-16.210938 3.71875-9.566406 0-18.285156-3.625-24.867187-9.570312 22.308594-19.027344 37.808594-31.40625 37.808594-31.40625 4.746093-3.101562 10.875-3.101562 15.621093 0 0 0 17.289063 13.804688 41.628907 34.671875zm0 0" fill="#ececf1"/><path d="m345.570312 310.9375s17.289063 13.804688 41.625 34.671875c-5.910156 3.976563-13.023437 6.304687-20.683593 6.304687-5.8125 0-11.3125-1.335937-16.207031-3.71875-5.421876-2.632812-11.667969-2.632812-17.089844 0-4.894532 2.382813-10.394532 3.71875-16.207032 3.71875-3.460937 0-6.8125-.480468-9.992187-1.367187 20.503906-21.636719 38.40625-39.707031 38.554687-39.609375zm0 0" fill="#fff5f5"/><path d="m283.671875 414.902344c-.328125 5.058594-4.757813 8.886718-9.828125 8.886718h-37.75c-5.257812 0-9.519531 4.261719-9.519531 9.519532 0 5.257812-4.261719 9.519531-9.519531 9.519531h-38.078126c-5.46875 0-9.859374-4.609375-9.5-10.152344.328126-5.0625 4.753907-8.886719 9.824219-8.886719h9.195313c5.257812 0 9.519531-4.261718 9.519531-9.519531 0-5.257812 4.261719-9.519531 9.519531-9.519531h66.636719c5.46875 0 9.855469 4.609375 9.5 10.152344zm147.570313-62.988282h6.664062v-19.039062h-30.460938c-5.257812 0-9.519531 4.261719-9.519531 9.519531 0 5.257813 4.261719 9.519531 9.519531 9.519531h4.761719c2.628907 0 4.757813 2.132813 4.757813 4.761719 0 2.628907-2.128906 4.757813-4.757813 4.757813h-52.359375c-5.257812 0-9.519531 4.261718-9.519531 9.519531s4.261719 9.519531 9.519531 9.519531h76.15625c.652344 0 1.289063-.066406 1.90625-.191406v-18.65625c-.617187-.125-1.253906-.191406-1.90625-.191406h-4.757812c-2.628906 0-4.761719-2.128906-4.761719-4.757813 0-2.628906 2.132813-4.761719 4.757813-4.761719zm0 0" fill="#b0dde9"/></svg>