<svg enable-background="new 0 0 36 36" height="512" viewBox="0 0 36 36" width="512" xmlns="http://www.w3.org/2000/svg"><path d="m27.417 3.914c-6.915.129-11.732-3.365-15.064-3.302s-10.296 2.109-10.009 17.44 9.744 17.404 13.41 17.336c17.163-.321 23.911-31.703 11.663-31.474z" fill="#efefef"/><path d="m5 13.5c-.827 0-1.5-.673-1.5-1.5s.673-1.5 1.5-1.5 1.5.673 1.5 1.5-.673 1.5-1.5 1.5zm0-2c-.276 0-.5.225-.5.5s.224.5.5.5.5-.225.5-.5-.224-.5-.5-.5z" fill="#a4afc1"/><path d="m8.75 13.75h1.5v6.5h-1.5z"/><path d="m17.25 13.75h1.5v6.5h-1.5z"/><path d="m14.75 16.25h6.5v1.5h-6.5z" transform="matrix(.866 -.5 .5 .866 -6.089 11.279)"/><path d="m17.25 13.75h1.5v6.5h-1.5z" transform="matrix(.5 -.866 .866 .5 -5.723 24.088)"/><path d="m6.25 16.25h6.5v1.5h-6.5z" transform="matrix(.866 -.5 .5 .866 -7.228 7.029)"/><path d="m8.75 13.75h1.5v6.5h-1.5z" transform="matrix(.5 -.866 .866 .5 -9.972 16.727)"/><path d="m25.75 13.75h1.5v6.5h-1.5z"/><path d="m23.25 16.25h6.5v1.5h-6.5z" transform="matrix(.866 -.5 .5 .866 -4.95 15.53)"/><path d="m25.75 13.75h1.5v6.5h-1.5z" transform="matrix(.5 -.866 .866 .5 -1.473 31.449)"/><path d="m6.75 23h5.5v1.5h-5.5z"/><path d="m15.25 23h5.5v1.5h-5.5z"/><path d="m23.75 23h5.5v1.5h-5.5z"/></svg>