<svg enable-background="new 0 0 36 36" height="512" viewBox="0 0 36 36" width="512" xmlns="http://www.w3.org/2000/svg"><path d="m34.904 20.355c-3.782-5.791-3.38-11.727-5.203-14.518s-7.256-7.603-20.093.782-9.572 17.5-7.566 20.569c9.388 14.372 39.561 3.423 32.862-6.833z" fill="#efefef"/><circle cx="15" cy="12" fill="#2fdf84" r="4.25"/><path d="m10.75 19.75h8.5c2.209 0 4 1.791 4 4v3.5h-16.5v-3.5c0-2.209 1.791-4 4-4z" fill="#2fdf84"/><path d="m13 12c0-1.955 1.328-3.585 3.125-4.08-.361-.1-.733-.17-1.125-.17-2.347 0-4.25 1.903-4.25 4.25s1.903 4.25 4.25 4.25c.392 0 .764-.07 1.125-.17-1.797-.495-3.125-2.125-3.125-4.08z" fill="#00b871"/><path d="m13 19.75h-2.25c-2.209 0-4 1.791-4 4v3.5h2.25v-3.5c0-2.209 1.791-4 4-4z" fill="#00b871"/><g fill="#a4afc1"><path d="m22.618 3.26h1v2h-1z" transform="matrix(.707 -.707 .707 .707 3.757 17.591)"/><path d="m26.684 7.326h1v2h-1z" transform="matrix(.707 -.707 .707 .707 2.075 21.661)"/><path d="m21.942 7.826h2v1h-2z" transform="matrix(.707 -.707 .707 .707 .832 18.661)"/><path d="m26.007 3.76h2v1h-2z" transform="matrix(.707 -.707 .707 .707 4.898 20.345)"/></g><path d="m15 17c-2.757 0-5-2.243-5-5s2.243-5 5-5 5 2.243 5 5-2.243 5-5 5zm0-8.5c-1.93 0-3.5 1.57-3.5 3.5s1.57 3.5 3.5 3.5 3.5-1.57 3.5-3.5-1.57-3.5-3.5-3.5z"/><path d="m23.25 28h-16.5c-.414 0-.75-.336-.75-.75v-3.5c0-2.619 2.131-4.75 4.75-4.75h8.5c2.619 0 4.75 2.131 4.75 4.75v3.5c0 .414-.336.75-.75.75zm-15.75-1.5h15v-2.75c0-1.792-1.458-3.25-3.25-3.25h-8.5c-1.792 0-3.25 1.458-3.25 3.25z"/><path d="m20.75 15.75h8.5v1.5h-8.5z"/><path d="m25.78 21.03-1.06-1.06 3.47-3.47-3.47-3.47 1.061-1.061 4 4c.293.293.293.768 0 1.061z"/></svg>