<svg id="Layer_1" enable-background="new 0 0 511 511" height="512" viewBox="0 0 511 511" width="512" xmlns="http://www.w3.org/2000/svg"><g><g><path d="m255.5 0c-110.361 0-204.379 69.97-240.112 167.968l119.799 223.991 219.87 98.918c91.647-38.811 155.943-129.586 155.943-235.377 0-141.109-114.391-255.5-255.5-255.5z" fill="#d5f1fe"/></g><g><g><path d="m301.656 329.613c.827-.827 2.167-.827 2.994 0 .819.819 2.146.828 2.975.018l29.388-28.668c2.661-2.596 6.526-3.358 10.07-2.237.018.006.035.011.053.017 3.903 1.215 8.318.368 11.529-2.579l79.127-72.593c1.22-1.119 1.261-3.029.09-4.199l-5.414-5.414c-1.136-1.136-1.136-2.977 0-4.113l9.988-9.988c1.136-1.136 1.136-2.977 0-4.113-1.136-1.136-1.136-2.977 0-4.113l3.643-3.643c1.136-1.136 1.136-2.977 0-4.113l-14.909-14.909-7.755 7.755-4.113-4.113-14.101 14.101-9.617-9.617-74.645 81.365c-.536.584-1.002 1.208-1.399 1.861-2.78 4.572-2.171 10.589 1.752 14.511l.443.443-6.321 6.321-27.913 27.913c-.822.822-.822 2.154 0 2.976.822.822.822 2.154 0 2.976l-45.664 45.664c-5.865 5.865-15.048 6.75-21.952 2.153-27.462-18.283-51.188-41.734-69.776-68.973-2.494-3.654-2.002-8.577 1.127-11.705.822-.822 2.154-.822 2.975 0 .822.822 2.154.822 2.975 0l51.743-51.743.441-.441c4.235-4.235 11.1-4.235 15.335 0 4.235 4.235 11.1 4.235 15.335 0l75.527-75.527c1.558-1.558 1.558-4.083 0-5.64l-2.468-2.468c-1.558-1.558-1.558-4.083 0-5.64l8.46-8.46c1.558-1.558 1.558-4.083 0-5.64-1.558-1.558-1.558-4.083 0-5.64l2.115-2.115c1.558-1.558 1.558-4.083 0-5.64l-20.444-20.443-7.755 7.755-5.64-5.64-14.101 14.101-8.108-8.108-86.015 86.015 15.335 15.335-8.108 8.108c-27.865 27.865-75.818 11.81-80.899-27.268-.201-1.548-.388-3.097-.561-4.647-5.548-49.756-74.852-57.914-92.006-10.88-10.151 27.826-15.599 57.914-15.386 89.303.961 141.494 115.575 254.576 257.07 253.721 34.743-.21 67.84-7.355 97.979-20.12 43.243-18.315 32.858-81.992-13.958-85.686-4.901-.387-9.793-.914-14.668-1.583-35.638-4.887-50.209-48.556-24.773-73.993z" fill="#93dcfc"/></g></g><g><g><g><path d="m36.995 350.9c1.769 1.624 3.411 3.348 4.945 5.149.421-.447.833-.899 1.27-1.336l131.138-131.138-14.143-14.143-131.138 131.138c-.742.742-1.45 1.506-2.157 2.27 3.51 2.432 6.882 5.119 10.085 8.06z" fill="#c40955"/></g><g><path d="m134.316 447.78c2.317 2.127 4.405 4.432 6.321 6.856.425-.407.861-.8 1.279-1.218l171.148-171.148-14.143-14.143-171.149 171.148c-.58.58-1.174 1.138-1.771 1.689 2.876 2.098 5.652 4.372 8.315 6.816z" fill="#c40955"/></g></g><g><g><path d="m287.484 71.369h32.903v16.95h-32.903z" fill="#ffd508" transform="matrix(.707 .707 -.707 .707 145.479 -191.529)"/></g></g><g><g><path d="m260.471 74.452h48.857v48.857h-48.857z" fill="#475770" transform="matrix(.707 .707 -.707 .707 153.364 -172.493)"/></g></g><g><g><path d="m153.762 177.271h28.417v77.077h-28.417z" fill="#e04955" transform="matrix(.707 .707 -.707 .707 201.798 -55.564)"/></g></g><g><g><path d="m189.788 165.575h28.417v28.417h-28.417z" fill="#c40955" transform="matrix(.707 .707 -.707 .707 186.875 -91.59)"/></g></g><g><g><path d="m416.732 143.988h23.992v16.95h-23.992z" fill="#ffd508" transform="matrix(.707 .707 -.707 .707 233.379 -258.501)"/></g></g><g><g><path d="m391.879 147.071h35.625v48.857h-35.625z" fill="#475770" transform="matrix(.707 .707 -.707 .707 241.264 -239.465)"/></g></g><g><g><path d="m292.956 251.347h28.417v45.359h-28.417z" fill="#e04955" transform="matrix(.707 .707 -.707 .707 283.732 -136.938)"/></g></g><g><g><path d="m328.282 207.642h28.417v62.116h-28.417z" fill="#c40955" transform="matrix(.707 .707 -.707 .707 269.1 -172.263)"/></g></g><g><g><path d="m141.772 340.714c-.346-.346-.706-.667-1.057-1.005-.786.816-1.593 1.62-2.436 2.403-3.912 3.912-8.38 7.375-13.199 10.351.866.771 1.719 1.563 2.549 2.394 23.314 23.313 23.314 61.249 0 84.563-11.658 11.659-26.967 17.487-42.282 17.486-15.31-.002-30.626-5.83-42.281-17.486-23.314-23.313-23.314-61.249 0-84.563.782-.782 1.583-1.533 2.397-2.263-4.859-3.013-9.464-6.527-13.772-10.482-.721-.662-1.405-1.352-2.087-2.045-.225.219-.458.424-.681.647-31.111 31.112-31.111 81.735 0 112.848 15.556 15.556 35.99 23.334 56.424 23.334s40.868-7.778 56.424-23.334c31.112-31.113 31.112-81.736.001-112.848z" fill="#c40955"/></g></g><g><g><path d="m127.629 354.856c-11.293-11.294-26.31-17.514-42.281-17.514-15.972 0-30.988 6.22-42.282 17.514l-14.143-14.143c31.113-31.111 81.737-31.11 112.848 0z" fill="#e04955"/></g></g><g><g><path d="m223.697 150.102 22.19 38.553 67.567-67.566-25.308-25.308z" fill="#323b49"/></g></g><g><g><path d="m248.094 135.235 39.753-39.753-25.156-25.156-86.015 86.015 50.763 50.763 20.655-20.655c-14.142-14.143-14.142-37.072 0-51.214z" fill="#1b1e21"/></g></g><g><g><path d="m339.09 238.701 21.655 20.031 74.331-68.193-25.18-25.18z" fill="#323b49"/></g></g><g><g><path d="m351.867 247.253c-4.483-4.483-4.638-11.701-.352-16.372l59.284-64.62-20.146-20.146-74.645 81.365c-4.285 4.671-4.13 11.889.352 16.372l20.98 20.98c4.483 4.483 11.701 4.638 16.372.352l8.389-7.697z" fill="#1b1e21"/></g></g></g></g></svg>