<?xml version="1.0" encoding="iso-8859-1"?>
<!-- Generator: Adobe Illustrator 19.0.0, SVG Export Plug-In . SVG Version: 6.00 Build 0)  -->
<svg version="1.1" id="Layer_1" xmlns="http://www.w3.org/2000/svg" xmlns:xlink="http://www.w3.org/1999/xlink" x="0px" y="0px"
	 viewBox="0 0 512 512" style="enable-background:new 0 0 512 512;" xml:space="preserve">
<g>
	<g>
		<path style="fill:#68341F;" d="M441.379,259.503c0-3.125,0.538-6.1,1.298-8.986c-0.477,0.203-0.962,0.327-1.43,0.565
			L17.249,471.233c-9.569,4.97-13.383,16.702-8.554,26.342c4.926,9.86,16.967,13.771,26.748,8.695l420.484-218.333
			C447.144,281.519,441.379,271.218,441.379,259.503"/>
		<path style="fill:#68341F;" d="M256,347.27L70.753,251.085c-0.468-0.247-0.953-0.371-1.43-0.565
			c0.759,2.887,1.298,5.862,1.298,8.986c0,11.705-5.764,22.007-14.548,28.434l157.096,81.567L256,347.27z"/>
		<path style="fill:#68341F;" d="M494.749,471.236L298.83,369.507l-42.831,22.237l220.557,114.529
			c9.781,5.076,21.822,1.165,26.748-8.695C508.132,487.938,504.318,476.206,494.749,471.236"/>
	</g>
	<g>
		<path style="fill:#BEA280;" d="M70.621,259.503c0,19.5-15.81,35.31-35.31,35.31S0,279.004,0,259.503
			c0-19.5,15.81-35.31,35.31-35.31S70.621,240.003,70.621,259.503"/>
		<path style="fill:#BEA280;" d="M512,259.503c0,19.5-15.81,35.31-35.31,35.31c-19.5,0-35.31-15.81-35.31-35.31
			c0-19.5,15.81-35.31,35.31-35.31C496.19,224.193,512,240.003,512,259.503"/>
	</g>
	<g>
		<path style="fill:#FFFFFF;" d="M485.517,259.503c0,4.873-3.955,8.828-8.828,8.828c-4.873,0-8.828-3.955-8.828-8.828
			c0-4.873,3.955-8.828,8.828-8.828C481.562,250.676,485.517,254.631,485.517,259.503"/>
		<path style="fill:#FFFFFF;" d="M44.138,259.503c0,4.873-3.955,8.828-8.828,8.828s-8.828-3.955-8.828-8.828
			c0-4.873,3.955-8.828,8.828-8.828S44.138,254.631,44.138,259.503"/>
	</g>
	<g>
		<path style="fill:#8C5236;" d="M476.69,294.814c-6.462,0-12.447-1.863-17.655-4.899v162.781l35.31,18.335V289.914
			C489.137,292.951,483.151,294.814,476.69,294.814"/>
		<path style="fill:#8C5236;" d="M35.31,294.814c-6.462,0-12.447-1.863-17.655-4.899V471.03l35.31-18.335V289.914
			C47.757,292.951,41.772,294.814,35.31,294.814"/>
	</g>
	<path style="fill:#BEA280;" d="M459.034,215.365L459.034,215.365c-136.015,23.543-273.364,23.543-406.069,0l0,0V21.158l0,0
		c134.118,23.543,271.492,23.543,406.069,0l0,0V215.365z"/>
	<path style="fill:#45291E;" d="M35.31,224.193c6.462,0,12.447,1.863,17.655,4.899V21.159c0-9.754-7.901-17.655-17.655-17.655
		s-17.655,7.901-17.655,17.655v207.934C22.863,226.056,28.849,224.193,35.31,224.193"/>
	<path style="fill:#68341F;" d="M52.969,215.366L52.969,215.366v13.7c7.962,4.643,13.939,12.297,16.358,21.451
		c0.477,0.203,0.962,0.327,1.421,0.565c0,0,168.166,38.753,370.503,0l1.254-0.018c2.322-9.401,8.395-17.302,16.534-22.06v-13.639
		C323.023,238.909,185.674,238.909,52.969,215.366"/>
	<g>
		<path style="fill:#8C5236;" d="M476.69,224.193c6.462,0,12.447,1.863,17.655,4.899V21.159c0-9.754-7.901-17.655-17.655-17.655
			c-9.754,0-17.655,7.901-17.655,17.655v207.934C464.243,226.056,470.228,224.193,476.69,224.193"/>
		<path style="fill:#8C5236;" d="M35.31,224.193c6.462,0,12.447,1.863,17.655,4.899V21.159c0-9.754-7.901-17.655-17.655-17.655
			s-17.655,7.901-17.655,17.655v207.934C22.863,226.056,28.849,224.193,35.31,224.193"/>
	</g>
	<g>
		<path style="fill:#68341F;" d="M242.707,38.672L52.966,203.668v11.697l0,0c3.761,0.671,7.53,1.245,11.299,1.871L261.792,45.478
			c2.03-1.766,2.957-4.255,2.922-6.762C257.378,38.769,250.042,38.751,242.707,38.672"/>
		<path style="fill:#68341F;" d="M459.034,215.365v-11.705L269.286,38.672c-7.336,0.079-14.671,0.106-22.007,0.053
			c-0.026,2.498,0.9,4.988,2.931,6.753l197.482,171.723C451.469,216.583,455.256,216.018,459.034,215.365"/>
		<path style="fill:#68341F;" d="M249.625,226.908c-1.615,1.695-2.383,3.858-2.401,6.029c7.044,0.044,14.098,0.018,21.151-0.062
			L459.033,33.92V21.155c-4.829,0.847-9.675,1.598-14.513,2.383L249.625,226.908z"/>
		<path style="fill:#68341F;" d="M243.653,232.901c7.036,0.071,14.08,0.071,21.124,0.009c-0.026-2.154-0.794-4.317-2.401-6.003
			L67.481,23.546c-4.838-0.786-9.684-1.536-14.513-2.383l0,0v12.765L243.653,232.901z"/>
	</g>
</g>
<g>
</g>
<g>
</g>
<g>
</g>
<g>
</g>
<g>
</g>
<g>
</g>
<g>
</g>
<g>
</g>
<g>
</g>
<g>
</g>
<g>
</g>
<g>
</g>
<g>
</g>
<g>
</g>
<g>
</g>
</svg>
