<?xml version="1.0" encoding="iso-8859-1"?>
<!-- Generator: Adobe Illustrator 19.0.0, SVG Export Plug-In . SVG Version: 6.00 Build 0)  -->
<svg version="1.1" id="Layer_1" xmlns="http://www.w3.org/2000/svg" xmlns:xlink="http://www.w3.org/1999/xlink" x="0px" y="0px"
	 viewBox="0 0 512 512" style="enable-background:new 0 0 512 512;" xml:space="preserve">
<g>
	<g>
		<path style="fill:#CCD0D2;" d="M76.8,443.733c-4.71,0-8.533-3.814-8.533-8.533v-8.533c0-4.719,3.823-8.533,8.533-8.533
			s8.533,3.814,8.533,8.533v8.533C85.333,439.919,81.51,443.733,76.8,443.733"/>
		<path style="fill:#CCD0D2;" d="M435.2,443.733c-4.71,0-8.533-3.814-8.533-8.533v-8.533c0-4.719,3.823-8.533,8.533-8.533
			s8.533,3.814,8.533,8.533v8.533C443.733,439.919,439.91,443.733,435.2,443.733"/>
		<path style="fill:#CCD0D2;" d="M503.467,375.467h-8.533c-4.71,0-8.533-3.814-8.533-8.533c0-4.719,3.823-8.533,8.533-8.533h8.533
			c4.71,0,8.533,3.814,8.533,8.533C512,371.652,508.177,375.467,503.467,375.467"/>
		<path style="fill:#CCD0D2;" d="M17.067,375.467H8.533c-4.71,0-8.533-3.814-8.533-8.533c0-4.719,3.823-8.533,8.533-8.533h8.533
			c4.71,0,8.533,3.814,8.533,8.533C25.6,371.652,21.777,375.467,17.067,375.467"/>
	</g>
	<path style="fill:#724530;" d="M375.467,290.133v51.2H307.2v-51.2H204.8v51.2h-68.267v-51.2
		c-65.98,0-119.467-53.487-119.467-119.467v204.8c0,28.279,22.921,51.2,51.2,51.2h375.467c28.279,0,51.2-22.921,51.2-51.2v-204.8
		C494.933,236.646,441.446,290.133,375.467,290.133"/>
	<g>
		<path style="fill:#CCD0D2;" d="M17.067,119.467H8.533c-4.71,0-8.533-3.814-8.533-8.533s3.823-8.533,8.533-8.533h8.533
			c4.71,0,8.533,3.814,8.533,8.533S21.777,119.467,17.067,119.467"/>
		<path style="fill:#CCD0D2;" d="M503.467,119.467h-8.533c-4.71,0-8.533-3.814-8.533-8.533s3.823-8.533,8.533-8.533h8.533
			c4.71,0,8.533,3.814,8.533,8.533S508.177,119.467,503.467,119.467"/>
	</g>
	<g>
		<path style="fill:#BEA280;" d="M375.467,341.333H307.2V256c0-9.429,7.637-17.067,17.067-17.067H358.4
			c9.429,0,17.067,7.637,17.067,17.067V341.333z"/>
		<path style="fill:#BEA280;" d="M204.8,341.333h-68.267V256c0-9.429,7.637-17.067,17.067-17.067h34.133
			c9.429,0,17.067,7.637,17.067,17.067V341.333z"/>
	</g>
	<g>
		<path style="fill:#45291E;" d="M341.333,384L341.333,384c-14.14,0-25.6-11.46-25.6-25.6v-17.067h51.2V358.4
			C366.933,372.54,355.473,384,341.333,384"/>
		<path style="fill:#45291E;" d="M170.667,384L170.667,384c-14.14,0-25.6-11.46-25.6-25.6v-17.067h51.2V358.4
			C196.267,372.54,184.806,384,170.667,384"/>
	</g>
	<path style="fill:#8C5236;" d="M460.8,68.267H51.2c-18.85,0-34.133,15.283-34.133,34.133v68.267
		c0,65.98,53.487,119.467,119.467,119.467V256c0-9.429,7.637-17.067,17.067-17.067h34.133c9.429,0,17.067,7.637,17.067,17.067
		v34.133h102.4V256c0-9.429,7.637-17.067,17.067-17.067H358.4c9.429,0,17.067,7.637,17.067,17.067v34.133
		c65.98,0,119.467-53.487,119.467-119.467V102.4C494.933,83.55,479.65,68.267,460.8,68.267"/>
	<g>
		<path style="fill:#CCD0D2;" d="M341.333,315.733c-4.71,0-8.533-3.814-8.533-8.533v-34.133c0-4.719,3.823-8.533,8.533-8.533
			s8.533,3.814,8.533,8.533V307.2C349.867,311.919,346.044,315.733,341.333,315.733"/>
		<path style="fill:#CCD0D2;" d="M170.667,315.733c-4.71,0-8.533-3.814-8.533-8.533v-34.133c0-4.719,3.823-8.533,8.533-8.533
			s8.533,3.814,8.533,8.533V307.2C179.2,311.919,175.377,315.733,170.667,315.733"/>
	</g>
	<g>
		<path style="fill:#45291E;" d="M452.267,425.899V268.715c0-1.946-0.759-3.644-1.852-5.077c-0.009,0-0.017,0.009-0.026,0.009
			c-4.762,3.849-9.856,7.287-15.189,10.377v152.644h8.533C446.643,426.667,449.485,426.368,452.267,425.899"/>
		<path style="fill:#45291E;" d="M61.607,263.65c-0.009-0.009-0.009-0.009-0.017-0.017c-1.092,1.434-1.86,3.14-1.86,5.086v157.184
			c2.782,0.461,5.623,0.768,8.533,0.768h8.533V274.018C71.472,270.929,66.377,267.499,61.607,263.65"/>
	</g>
</g>
<g>
</g>
<g>
</g>
<g>
</g>
<g>
</g>
<g>
</g>
<g>
</g>
<g>
</g>
<g>
</g>
<g>
</g>
<g>
</g>
<g>
</g>
<g>
</g>
<g>
</g>
<g>
</g>
<g>
</g>
</svg>
