<?xml version="1.0" encoding="iso-8859-1"?>
<!-- Generator: Adobe Illustrator 19.0.0, SVG Export Plug-In . SVG Version: 6.00 Build 0)  -->
<svg version="1.1" id="Layer_1" xmlns="http://www.w3.org/2000/svg" xmlns:xlink="http://www.w3.org/1999/xlink" x="0px" y="0px"
	 viewBox="0 0 512 512" style="enable-background:new 0 0 512 512;" xml:space="preserve">
<g>
	<path style="fill:#546A79;" d="M512,256c0,141.383-114.617,256-256,256S0,397.383,0,256S114.617,0,256,0S512,114.617,512,256"/>
	<g>
		<path style="fill:#283238;" d="M355.123,19.912C294.292,27.9,247.171,79.189,247.171,141.238c0,4.882,3.955,8.828,8.828,8.828
			s8.828-3.946,8.828-8.828c0-57.821,47.907-104.872,106.787-104.872c3.372,0,6.206-1.96,7.689-4.732
			C371.481,27.327,363.421,23.398,355.123,19.912"/>
		<path style="fill:#283238;" d="M498.996,184.052c0.865,0,1.704-0.238,2.542-0.494c-2.56-8.695-5.544-17.196-8.978-25.476
			c-48.358-36.846-117.681-33.448-161.66,10.531c-3.443,3.452-3.443,9.031,0,12.482c3.452,3.452,9.039,3.452,12.491,0
			c41.075-41.092,108.076-40.916,149.363,0.371C494.476,183.187,496.736,184.052,498.996,184.052"/>
		<path style="fill:#283238;" d="M370.759,247.172c-4.873,0-8.828,3.946-8.828,8.828s3.955,8.828,8.828,8.828
			c59.542,0,106.178,45.771,106.178,104.192c0,3.407,1.986,6.268,4.811,7.742c4.29-7.998,8.13-16.26,11.564-24.735
			C485.129,292.043,434.308,247.172,370.759,247.172"/>
		<path style="fill:#283238;" d="M330.906,330.906c-3.452,3.452-3.452,9.031,0,12.482c41.145,41.145,41.145,108.094,0,149.239
			c-2.392,2.392-3.01,5.782-2.092,8.801c8.695-2.569,17.205-5.57,25.485-9.013c36.661-48.243,33.103-117.495-10.911-161.509
			C339.936,327.454,334.357,327.454,330.906,330.906"/>
		<path style="fill:#283238;" d="M256,361.931c-4.873,0-8.828,3.946-8.828,8.828c0,58.403-46.972,105.922-104.704,105.922
			c-3.407,0-6.268,1.986-7.742,4.802c7.936,4.281,16.137,8.113,24.541,11.547c59.524-8.316,105.56-59.904,105.56-122.271
			C264.828,365.877,260.873,361.931,256,361.931"/>
		<path style="fill:#283238;" d="M168.612,330.906c-41.084,41.066-108.094,40.907-149.372-0.388
			c-2.383-2.383-5.764-3.001-8.783-2.092c2.56,8.686,5.544,17.196,8.969,25.468c22.069,16.817,48.446,25.353,74.858,25.353
			c31.479,0,62.905-11.953,86.81-35.858c3.452-3.452,3.452-9.031,0-12.482C177.643,327.454,172.064,327.454,168.612,330.906"/>
		<path style="fill:#283238;" d="M141.241,247.172c-58.183,0-105.516-47.334-105.516-105.516c0-3.399-1.986-6.259-4.793-7.733
			c-4.29,7.892-8.139,16.049-11.599,24.417c8.192,60.028,59.666,106.487,121.909,106.487c4.873,0,8.828-3.946,8.828-8.828
			S146.114,247.172,141.241,247.172"/>
		<path style="fill:#283238;" d="M168.612,181.094c1.721,1.721,3.981,2.586,6.241,2.586c2.26,0,4.52-0.865,6.241-2.586
			c3.452-3.452,3.452-9.031,0-12.482c-40.934-40.942-40.43-108.05,1.13-149.61c2.375-2.375,2.993-5.747,2.092-8.757
			c-8.686,2.534-17.178,5.482-25.459,8.881C121.658,67.722,124.73,137.212,168.612,181.094"/>
	</g>
	<path style="fill:#434C6D;" d="M370.759,256c0,63.382-51.377,114.759-114.759,114.759S141.241,319.382,141.241,256
		S192.618,141.241,256,141.241S370.759,192.618,370.759,256"/>
	<path style="fill:#7383BF;" d="M256,150.069c-58.412,0-105.931,47.519-105.931,105.931S197.588,361.931,256,361.931
		S361.931,314.412,361.931,256S314.412,150.069,256,150.069 M256,379.586c-68.149,0-123.586-55.437-123.586-123.586
		S187.851,132.414,256,132.414S379.586,187.851,379.586,256S324.149,379.586,256,379.586"/>
	<path style="fill:#FFFFFF;" d="M326.621,256c0,39-31.62,70.621-70.621,70.621S185.379,295,185.379,256S217,185.379,256,185.379
		S326.621,217,326.621,256"/>
	<path style="fill:#7383BF;" d="M220.69,256c-4.873,0-8.828-3.946-8.828-8.828c0-19.474,15.837-35.31,35.31-35.31
		c4.873,0,8.828,3.946,8.828,8.828s-3.955,8.828-8.828,8.828c-9.737,0-17.655,7.918-17.655,17.655
		C229.517,252.054,225.562,256,220.69,256"/>
</g>
<g>
</g>
<g>
</g>
<g>
</g>
<g>
</g>
<g>
</g>
<g>
</g>
<g>
</g>
<g>
</g>
<g>
</g>
<g>
</g>
<g>
</g>
<g>
</g>
<g>
</g>
<g>
</g>
<g>
</g>
</svg>
