<?xml version="1.0" encoding="iso-8859-1"?>
<!-- Generator: Adobe Illustrator 19.0.0, SVG Export Plug-In . SVG Version: 6.00 Build 0)  -->
<svg version="1.1" id="Layer_1" xmlns="http://www.w3.org/2000/svg" xmlns:xlink="http://www.w3.org/1999/xlink" x="0px" y="0px"
	 viewBox="0 0 512.003 512.003" style="enable-background:new 0 0 512.003 512.003;" xml:space="preserve">
<g>
	<path style="fill:#FFFFFF;" d="M512,256.001c0,141.383-114.617,256-256,256S0,397.384,0,256.001s114.617-256,256-256
		S512,114.619,512,256.001"/>
	<path style="fill:#50508A;" d="M229.517,282.484c0,4.873-3.955,8.828-8.828,8.828c-4.873,0-8.828-3.955-8.828-8.828
		c0-4.873,3.955-8.828,8.828-8.828C225.562,273.656,229.517,277.611,229.517,282.484"/>
	<path style="fill:#38454F;" d="M433.04,70.622c-66.834,3.028-124.328,41.295-154.447,96.68h21.689l26.545,44.244
		c62.314-21.407,133.685-8.695,185.176,38.321C510.458,179.413,480.47,116.005,433.04,70.622"/>
	<path style="fill:#283238;" d="M211.862,167.725h66.586c30.12-55.375,87.614-93.652,154.447-96.68
		C386.922,27.067,324.643,0.001,256,0.001c-1.916,0-3.805,0.106-5.703,0.141c-44.085,48.269-57.971,114.017-41.922,173.4
		L211.862,167.725z"/>
	<path style="fill:#38454F;" d="M208.374,173.539c-16.049-59.383-2.163-125.122,41.922-173.391
		c-70.462,1.545-133.87,31.523-179.244,78.963c3.09,68.237,42.902,126.782,100.175,156.337L208.374,173.539z"/>
	<path style="fill:#283238;" d="M158.897,256.001l12.332-20.551c-57.273-29.564-97.095-88.099-100.184-156.345
		C27.065,125.079,0,187.358,0,256.001c0,1.916,0.106,3.805,0.141,5.703c51.491,47.025,122.862,59.736,185.176,38.329
		L158.897,256.001z"/>
	<path style="fill:#38454F;" d="M211.862,344.277l-26.545-44.244c-62.314,21.407-133.685,8.695-185.176-38.329
		c1.545,70.462,31.532,133.87,78.963,179.253c66.834-3.028,124.328-41.304,154.447-96.68H211.862z"/>
	<path style="fill:#283238;" d="M300.138,344.277h-66.586c-30.12,55.375-87.614,93.652-154.447,96.68
		c45.974,43.979,108.253,71.044,176.896,71.044c1.916,0,3.805-0.106,5.703-0.141c44.085-48.269,57.971-114.017,41.922-173.4
		L300.138,344.277z"/>
	<path style="fill:#38454F;" d="M340.771,276.555l-37.146,61.908c16.049,59.383,2.163,125.122-41.922,173.391
		c70.462-1.545,133.87-31.523,179.253-78.963C437.866,364.655,398.045,306.11,340.771,276.555"/>
	<path style="fill:#283238;" d="M511.855,250.297c-51.491-47.025-122.854-59.727-185.167-38.329L353.1,256l-12.332,20.559
		c57.282,29.555,97.095,88.099,100.184,156.337C484.931,386.93,511.996,324.643,511.996,256
		C511.996,254.084,511.899,252.204,511.855,250.297"/>
	<path style="fill:#50508A;" d="M211.862,264.829c-4.882,0-8.828-3.946-8.828-8.828c0-29.21,23.755-52.966,52.966-52.966
		c4.882,0,8.828,3.946,8.828,8.828s-3.946,8.828-8.828,8.828c-19.474,0-35.31,15.837-35.31,35.31
		C220.69,260.883,216.744,264.829,211.862,264.829"/>
</g>
<g>
</g>
<g>
</g>
<g>
</g>
<g>
</g>
<g>
</g>
<g>
</g>
<g>
</g>
<g>
</g>
<g>
</g>
<g>
</g>
<g>
</g>
<g>
</g>
<g>
</g>
<g>
</g>
<g>
</g>
</svg>
