<svg id="Capa_1" enable-background="new 0 0 512.042 512.042" height="auto" viewBox="0 0 512.042 512.042" width="auto" xmlns="http://www.w3.org/2000/svg"><path d="m256.021 361.021c24.813 0 45-20.187 45-45s-20.187-45-45-45-45 20.187-45 45 20.187 45 45 45zm0-60c8.271 0 15 6.729 15 15s-6.729 15-15 15-15-6.729-15-15 6.729-15 15-15z"/><path d="m79.563 388.274c58.128 41.049 119.146 62.747 176.458 62.747s118.33-21.698 176.459-62.747c43.48-30.706 69.985-61.166 71.093-62.448l8.47-9.805-8.47-9.805c-1.107-1.282-27.612-31.742-71.093-62.448-58.129-41.05-119.147-62.747-176.459-62.747s-118.33 21.698-176.458 62.747c-43.48 30.706-69.986 61.166-71.093 62.448l-8.47 9.805 8.469 9.805c1.107 1.282 27.613 31.742 71.094 62.448zm334.99-120.438c26.294 18.496 46.206 37.197 57.065 48.185-10.859 10.989-30.771 29.689-57.065 48.185-13.323 9.371-29.346 19.388-47.398 28.365 15.041-21.769 23.866-48.146 23.866-76.55s-8.825-54.781-23.866-76.55c18.052 8.977 34.075 18.994 47.398 28.365zm-158.532-56.815c57.847 0 105 47.059 105 105 0 57.852-47.063 105-105 105-57.847 0-105-47.059-105-105 0-57.897 47.103-105 105-105zm-111.11 28.416c-15.056 21.776-23.89 48.166-23.89 76.584 0 28.404 8.825 54.781 23.866 76.55-18.052-8.977-34.075-18.993-47.398-28.365-26.292-18.494-46.203-37.193-57.061-48.179 10.354-10.46 28.956-27.925 53.592-45.64 14.916-10.726 32.043-21.542 50.891-30.95z"/><path d="m241.021 61.021h30v75h-30z"/><path d="m327.48 106.022h67.082v29.999h-67.082z" transform="matrix(.447 -.894 .894 .447 91.323 389.806)"/><path d="m421.021 166.021h75v30h-75z" transform="matrix(.6 -.8 .8 .6 38.591 439.225)"/><path d="m136.021 87.48h30v67.082h-30z" transform="matrix(.894 -.447 .447 .894 -38.179 80.315)"/><path d="m38.521 143.521h30v75h-30z" transform="matrix(.8 -.6 .6 .8 -97.909 68.317)"/></svg>