<svg id="Layer_1" enable-background="new 0 0 509.582 509.582" height="46" viewBox="0 0 509.582 509.582" width="46" xmlns="http://www.w3.org/2000/svg"><g><g><circle cx="254.791" cy="254.791" fill="#e04955" r="254.791"/></g><g><path d="m430.651 439.152c22.05-21.044 34.214-50.411 34.214-80.892v-74.001c0-11.51-5.525-21.719-14.058-28.154v-.016c-.091-.069-.186-.133-.278-.201-.021-.016-.041-.033-.063-.049h-.005c-5.841-4.292-13.047-6.835-20.851-6.835h-31.349c-7.802 0-15.004 2.544-20.843 6.835h-.007c-.063.046-.121.097-.183.143-.239.179-.481.355-.716.539v.02c-8.285 6.509-13.595 16.631-13.505 28.005.114 14.416-11.158 26.315-25.574 26.315h-.865c-14.86 0-26.767-11.91-26.767-26.602 0-6.532-2.868-12.386-7.407-16.395-1.239-1.095-1.914-2.694-1.914-4.347v-27.652c0-3.261 2.644-5.905 5.905-5.905 3.261 0 5.905-2.644 5.905-5.905v-31.393c0-3.261-2.644-5.905-5.905-5.905-3.261 0-5.905-2.644-5.905-5.905v-19.431c0-1.751 1.42-3.171 3.171-3.171h5.467c1.751 0 3.171-1.42 3.171-3.171 0-1.751 1.42-3.171 3.171-3.171h3.229c1.751 0 3.171-1.42 3.171-3.171v-53.314c0-4.381-3.551-7.932-7.932-7.932-4.381 0-7.932-3.551-7.932-7.932v-2.164c0-4.381 3.551-7.932 7.932-7.932 4.381 0 7.932-3.551 7.932-7.932v-8.446c0-4.381-3.551-7.932-7.932-7.932h-163.917c-4.619 0-7.156-5.405-4.182-8.94.082-.098.165-.195.247-.293 3.825-4.532-1.371-11.029-6.657-8.34-82.877 42.157-139.419 128.215-139.419 227.211 0 139.02 112.207 254.791 254.791 254.791 67.001 0 129.393-26.083 175.86-70.43zm-270.955-252.395h-13.096v43.203h13.096v31.633c0 8.452-3.29 16.572-9.172 22.64-17.458 18.009-47.767 10.29-54.672-13.822-6.388-22.308-9.811-45.867-9.811-70.228 0-46.256 12.34-89.623 33.89-127.013 1.315-2.281 3.727-3.707 6.36-3.707h15.809c4.036 0 7.308 3.272 7.308 7.308v3.414c0 4.036-3.272 7.308-7.308 7.308-4.036 0-7.308 3.272-7.308 7.308v57.11h11.808v6.342h13.096z" fill="#c40955"/></g><g><g><g><path d="m160.221 100.915h119.692v259.481h-119.692z" fill="#323b49"/></g></g><g><g><path d="m139.128 100.915h24.745v259.481h-24.745z" fill="#1b1e21"/></g></g><g><g><path d="m429.898 269.263h-73.054c-8.935 6.566-14.667 17.235-14.396 29.235.32 14.179-11.493 25.787-25.676 25.787h-.771c-14.86 0-26.767-11.91-26.767-26.602 0-12.091-9.802-21.893-21.893-21.893h-116.188l-26.985 27.837v152.626h317.386c1.766-4.199 2.743-8.812 2.743-13.653v-144.917c0-11.665-5.669-22.002-14.399-28.42z" fill="#475770"/></g></g><g><g><g><path d="m161.287 453.95c-19.471 0-35.255-15.784-35.255-35.255v-63.948c0-9.16 3.565-17.961 9.941-24.538l52.753-54.419h-37.573l-75.926 78.324c-6.376 6.577-9.941 15.378-9.941 24.538v63.948c0 19.471 15.784 35.255 35.255 35.255h49.235l59.816-21.602 59.816 21.602h139.635c15.499 0 28.651-10.005 33.377-23.906h-281.133z" fill="#323b49"/></g></g></g><g><g><path d="m400.484 390.404h-61.861v47.737h61.861c4.231 0 7.661-3.43 7.661-7.661v-32.414c0-4.232-3.43-7.662-7.661-7.662z" fill="#df8b36"/></g></g><g><g><path d="m339.666 430.48v-32.414c0-4.231 3.43-7.661 7.661-7.661h-38.372c-4.231 0-7.661 3.43-7.661 7.661v32.414c0 4.231 3.43 7.661 7.661 7.661h38.372c-4.231 0-7.661-3.43-7.661-7.661z" fill="#d7623b"/></g></g><g><g><path d="m269.407 477.856h-29.996l-29.82-11.385-30.534 11.385h-29.283v-202.066h119.633z" fill="#d7e4ee"/></g></g><g><g><path d="m239.411 477.856h-42.232l-18.122-160.443c0-13.307 10.787-24.094 24.094-24.094h12.166c13.307 0 24.094 10.787 24.094 24.094z" fill="#82abca"/></g></g><g><g><path d="m218.295 293.509c-.976-.12-1.969-.19-2.978-.19h-12.166c-13.307 0-24.094 10.787-24.094 24.094v160.443h18.122v-160.443c0-12.298 9.215-22.436 21.116-23.904z" fill="#4a82ae"/></g></g><g><g><path d="m247.185 453.95h-75.903v-8.157l14.594-55.389h46.716l14.593 55.389z" fill="#ffd508"/></g></g><g><g><circle cx="108.691" cy="422.177" fill="#1b1e21" r="25.359"/></g></g><g><g><circle cx="108.691" cy="422.177" fill="#475770" r="16.081"/></g></g><g><g><path d="m126.032 200.181h165.691v43.203h-165.691z" fill="#475770"/></g></g><g><g><path d="m179.057 62.333h106.372v62.833h-106.372z" fill="#323b49"/></g></g><g><g><path d="m126.032 156.876h165.691v14.798h-165.691z" fill="#1b1e21"/></g></g><g><g><path d="m128.839 58.574h55.117v66.592h-55.117z" fill="#1b1e21"/></g></g><g><g><path d="m114.224 100.915h187.07v64.418h-187.07z" fill="#475770"/></g></g><g><g><path d="m113.841 58.574h187.453v24.311h-187.453z" fill="#1b1e21"/></g></g><g><g><path d="m114.224 68.597h187.07v4.267h-187.07z" fill="#e04955"/></g></g><g><g><path d="m430.239 269.514c-5.9-4.447-13.24-7.086-21.197-7.086h-31.349c-8.209 0-15.757 2.812-21.749 7.517v56.645c0 9.013 7.307 16.32 16.32 16.32h41.655c9.013 0 16.32-7.307 16.32-16.32z" fill="#1b1e21"/></g></g><g><g><circle cx="393.092" cy="302.669" fill="#323b49" r="25.359"/></g></g><g><g><circle cx="393.092" cy="302.669" fill="#1b1e21" r="16.081"/></g></g><g><g><path d="m127.098 157.097c-2.062 0-3.734-1.672-3.734-3.734v-40.166c0-2.062 1.672-3.734 3.734-3.734s3.734 1.672 3.734 3.734v40.166c0 2.062-1.671 3.734-3.734 3.734z" fill="#1b1e21"/></g></g><g><g><path d="m141.793 157.097c-2.062 0-3.734-1.672-3.734-3.734v-40.166c0-2.062 1.672-3.734 3.734-3.734s3.734 1.672 3.734 3.734v40.166c0 2.062-1.672 3.734-3.734 3.734z" fill="#1b1e21"/></g></g><g><g><path d="m156.487 157.097c-2.062 0-3.734-1.672-3.734-3.734v-40.166c0-2.062 1.672-3.734 3.734-3.734s3.734 1.672 3.734 3.734v40.166c0 2.062-1.671 3.734-3.734 3.734z" fill="#1b1e21"/></g></g><g><g><path d="m171.181 157.097c-2.062 0-3.734-1.672-3.734-3.734v-40.166c0-2.062 1.672-3.734 3.734-3.734s3.734 1.672 3.734 3.734v40.166c0 2.062-1.671 3.734-3.734 3.734z" fill="#1b1e21"/></g></g><g><g><path d="m185.876 157.097c-2.062 0-3.734-1.672-3.734-3.734v-40.166c0-2.062 1.672-3.734 3.734-3.734s3.734 1.672 3.734 3.734v40.166c0 2.062-1.672 3.734-3.734 3.734z" fill="#1b1e21"/></g></g><g><g><path d="m200.57 157.097c-2.062 0-3.734-1.672-3.734-3.734v-40.166c0-2.062 1.672-3.734 3.734-3.734s3.734 1.672 3.734 3.734v40.166c0 2.062-1.671 3.734-3.734 3.734z" fill="#1b1e21"/></g></g><g><g><path d="m215.264 157.097c-2.062 0-3.734-1.672-3.734-3.734v-40.166c0-2.062 1.672-3.734 3.734-3.734s3.734 1.672 3.734 3.734v40.166c0 2.062-1.671 3.734-3.734 3.734z" fill="#1b1e21"/></g></g><g><g><path d="m229.959 157.097c-2.062 0-3.734-1.672-3.734-3.734v-40.166c0-2.062 1.672-3.734 3.734-3.734s3.734 1.672 3.734 3.734v40.166c0 2.062-1.672 3.734-3.734 3.734z" fill="#1b1e21"/></g></g><g><g><path d="m244.654 157.097c-2.062 0-3.734-1.672-3.734-3.734v-40.166c0-2.062 1.672-3.734 3.734-3.734s3.734 1.672 3.734 3.734v40.166c-.001 2.062-1.672 3.734-3.734 3.734z" fill="#1b1e21"/></g></g><g><g><path d="m259.348 157.097c-2.062 0-3.734-1.672-3.734-3.734v-40.166c0-2.062 1.672-3.734 3.734-3.734s3.734 1.672 3.734 3.734v40.166c-.001 2.062-1.672 3.734-3.734 3.734z" fill="#1b1e21"/></g></g><g><g><path d="m274.042 157.097c-2.062 0-3.734-1.672-3.734-3.734v-40.166c0-2.062 1.672-3.734 3.734-3.734s3.734 1.672 3.734 3.734v40.166c0 2.062-1.672 3.734-3.734 3.734z" fill="#1b1e21"/></g></g><g><g><path d="m288.737 157.097c-2.062 0-3.734-1.672-3.734-3.734v-40.166c0-2.062 1.672-3.734 3.734-3.734s3.734 1.672 3.734 3.734v40.166c-.001 2.062-1.672 3.734-3.734 3.734z" fill="#1b1e21"/></g></g><g><g><path d="m138.035 237.067c-2.062 0-3.734-1.672-3.734-3.734v-22.549c0-2.062 1.672-3.734 3.734-3.734s3.734 1.672 3.734 3.734v22.549c-.001 2.063-1.672 3.734-3.734 3.734z" fill="#1b1e21"/></g></g><g><g><path d="m152.14 237.067c-2.062 0-3.734-1.672-3.734-3.734v-22.549c0-2.062 1.672-3.734 3.734-3.734s3.734 1.672 3.734 3.734v22.549c0 2.063-1.671 3.734-3.734 3.734z" fill="#1b1e21"/></g></g><g><g><path d="m166.246 237.067c-2.062 0-3.734-1.672-3.734-3.734v-22.549c0-2.062 1.672-3.734 3.734-3.734s3.734 1.672 3.734 3.734v22.549c0 2.063-1.672 3.734-3.734 3.734z" fill="#1b1e21"/></g></g><g><g><path d="m180.352 237.067c-2.062 0-3.734-1.672-3.734-3.734v-22.549c0-2.062 1.672-3.734 3.734-3.734s3.734 1.672 3.734 3.734v22.549c0 2.063-1.672 3.734-3.734 3.734z" fill="#1b1e21"/></g></g><g><g><path d="m194.458 237.067c-2.062 0-3.734-1.672-3.734-3.734v-22.549c0-2.062 1.672-3.734 3.734-3.734s3.734 1.672 3.734 3.734v22.549c0 2.063-1.672 3.734-3.734 3.734z" fill="#1b1e21"/></g></g><g><g><path d="m208.564 237.067c-2.062 0-3.734-1.672-3.734-3.734v-22.549c0-2.062 1.672-3.734 3.734-3.734s3.734 1.672 3.734 3.734v22.549c-.001 2.063-1.672 3.734-3.734 3.734z" fill="#1b1e21"/></g></g><g><g><path d="m222.669 237.067c-2.062 0-3.734-1.672-3.734-3.734v-22.549c0-2.062 1.672-3.734 3.734-3.734s3.734 1.672 3.734 3.734v22.549c0 2.063-1.672 3.734-3.734 3.734z" fill="#1b1e21"/></g></g><g><g><path d="m236.775 237.067c-2.062 0-3.734-1.672-3.734-3.734v-22.549c0-2.062 1.672-3.734 3.734-3.734s3.734 1.672 3.734 3.734v22.549c0 2.063-1.672 3.734-3.734 3.734z" fill="#1b1e21"/></g></g><g><g><path d="m250.881 237.067c-2.062 0-3.734-1.672-3.734-3.734v-22.549c0-2.062 1.672-3.734 3.734-3.734s3.734 1.672 3.734 3.734v22.549c0 2.063-1.672 3.734-3.734 3.734z" fill="#1b1e21"/></g></g><g><g><path d="m264.987 237.067c-2.062 0-3.734-1.672-3.734-3.734v-22.549c0-2.062 1.672-3.734 3.734-3.734s3.734 1.672 3.734 3.734v22.549c0 2.063-1.672 3.734-3.734 3.734z" fill="#1b1e21"/></g></g><g><g><path d="m279.092 237.067c-2.062 0-3.734-1.672-3.734-3.734v-22.549c0-2.062 1.672-3.734 3.734-3.734s3.734 1.672 3.734 3.734v22.549c0 2.063-1.672 3.734-3.734 3.734z" fill="#1b1e21"/></g></g><g><g><circle cx="124.137" cy="365.508" fill="#e04955" r="9.913"/></g></g><g><g><circle cx="209.234" cy="426.327" fill="#4275d1" r="12.055"/></g></g><g><g><path d="m200.57 429.938h17.562v31.71h-17.562z" fill="#4275d1"/></g></g><g><g><path d="m171.282 390.404h14.593v55.389h-14.593z" fill="#fcb54c"/></g></g><g><g><path d="m232.592 390.404h14.593v55.389h-14.593z" fill="#fcb54c"/></g></g></g></g></svg>