<svg height="46" viewBox="0 0 512 512" width="46" xmlns="http://www.w3.org/2000/svg"><path d="m500.757812 261.621094c0 138.28125-112.097656 250.378906-250.378906 250.378906s-250.378906-112.097656-250.378906-250.378906 112.097656-250.378906 250.378906-250.378906 250.378906 112.097656 250.378906 250.378906zm0 0" fill="#fdc273"/><path d="m395.347656 197.585938-80.933594-80.933594c-7.984374-7.980469-7.984374-20.921875 0-28.90625l43.355469-43.355469c7.980469-7.980469 20.925781-7.980469 28.90625 0l80.933594 80.933594c7.980469 7.980469 7.980469 20.925781 0 28.90625l-43.355469 43.355469c-7.984375 7.984374-20.921875 7.984374-28.90625 0zm0 0" fill="#6354b0"/><path d="m359.214844 320.433594-158.976563 158.980468c-7.984375 7.980469-20.921875 7.980469-28.90625 0l-14.453125-14.453124-19.933594 19.929687c-47.226562-24.039063-85.796874-62.613281-109.835937-109.835937l19.929687-19.933594-14.453124-14.453125c-7.980469-7.980469-7.980469-20.921875 0-28.90625l158.980468-158.976563c7.980469-7.984375 20.921875-7.984375 28.902344 0l138.746094 138.746094c7.984375 7.980469 7.984375 20.921875 0 28.902344zm0 0" fill="#6e61b5"/><path d="m171.332031 479.414062-109.839843-109.839843c-7.980469-7.984375-7.980469-20.925781 0-28.90625l158.976562-158.976563c7.984375-7.984375 20.925781-7.984375 28.90625 0l109.839844 109.839844c7.980468 7.980469 7.980468 20.921875 0 28.902344l-158.976563 158.980468c-7.984375 7.980469-20.921875 7.980469-28.90625 0zm0 0" fill="#8279c0"/><path d="m187.917969 192.496094-24.535157-24.535156c-11.972656-11.976563-11.972656-31.386719 0-43.359376l115.621094-115.621093c11.972656-11.972657 31.386719-11.972657 43.359375 0l24.535157 24.535156c11.972656 11.972656 11.972656 31.382813 0 43.355469l-115.621094 115.625c-11.972656 11.972656-31.386719 11.972656-43.359375 0zm0 0" fill="#968dca"/><path d="m344.042969 348.617188-159.703125-159.703126c-11.972656-11.972656-11.972656-31.382812 0-43.355468l115.621094-115.621094c11.972656-11.972656 31.386718-11.972656 43.355468 0l159.703125 159.699219c11.972657 11.976562 11.972657 31.386719 0 43.359375l-115.621093 115.621094c-11.972657 11.972656-31.382813 11.972656-43.355469 0zm0 0" fill="#aba4d5"/><path d="m254.433594 324.046875c-5.984375 5.988281-15.691406 5.988281-21.675782 0l-44.804687-44.804687c-5.988281-5.984376-5.988281-15.691407 0-21.675782 5.988281-5.988281 15.691406-5.988281 21.679687 0l44.800782 44.800782c5.988281 5.988281 5.988281 15.691406 0 21.679687zm-80.933594-30.351563c-5.988281-5.984374-15.691406-5.984374-21.679688 0-5.984374 5.988282-5.984374 15.695313 0 21.679688l44.804688 44.804688c5.984375 5.984374 15.691406 5.984374 21.679688 0 5.984374-5.988282 5.984374-15.691407 0-21.679688zm0 0" fill="#6354b0"/><path d="m120.828125 435.972656-44.800781-44.800781c-5.988282-5.988281-5.988282-15.695313 0-21.679687l28.074218-28.078126c5.988282-5.984374 15.691407-5.984374 21.679688 0l44.804688 44.804688c5.984374 5.988281 5.984374 15.691406 0 21.679688l-28.078126 28.074218c-5.984374 5.988282-15.691406 5.988282-21.679687 0zm0 0" fill="#fd7a7a"/><path d="m120.828125 435.972656-23.121094-23.121094c-5.988281-5.988281-5.988281-15.695312 0-21.679687l28.074219-28.078125c5.988281-5.984375 15.691406-5.984375 21.679688 0l23.125 23.125c5.984374 5.988281 5.984374 15.691406 0 21.679688l-28.078126 28.074218c-5.984374 5.988282-15.691406 5.988282-21.679687 0zm0 0" fill="#fd9898"/><path d="m359.214844 320.433594-167.648438-167.648438c-3.992187-3.992187-3.992187-10.464844 0-14.453125l101.167969-101.167969c3.992187-3.992187 10.460937-3.992187 14.453125 0l167.648438 167.648438c3.992187 3.992188 3.992187 10.460938 0 14.453125l-101.167969 101.167969c-3.988281 3.992187-10.460938 3.992187-14.453125 0zm0 0" fill="#ffdf8e"/><path d="m417.027344 277.074219 9.632812-9.632813-27.699218 27.699219-148.863282-148.859375c-2.394531-2.394531-2.394531-6.277344 0-8.671875l9.394532-9.394531c2.394531-2.394532 6.277343-2.394532 8.671874 0zm-181.378906-116.34375c-2.394532-2.394531-6.277344-2.394531-8.671876 0l-6.503906 6.503906c-3.992187 3.992187-3.992187 10.464844 0 14.453125l138.742188 138.746094c3.992187 3.992187 10.464844 3.992187 14.453125 0l20.476562-20.472656-9.636719 9.632812zm239.1875 44.082031-138.742188-138.746094c-3.992188-3.988281-10.460938-3.988281-14.453125 0l-6.503906 6.503906c-2.394531 2.394532-2.394531 6.277344 0 8.671876l148.863281 148.863281-14.453125 14.453125-148.863281-148.863282c-2.394532-2.394531-6.277344-2.394531-8.671875 0l-9.394531 9.394532c-2.394532 2.394531-2.394532 6.277344 0 8.671875l148.863281 148.863281 43.355469-43.359375c3.992187-3.992187 3.992187-10.460937 0-14.453125zm0 0" fill="#fff2b4"/><path d="m197.382812 51.097656c3.992188 3.992188 3.992188 10.460938 0 14.453125-3.992187 3.992188-10.460937 3.992188-14.453124 0l-14.453126-14.453125c-3.988281-3.992187-3.988281-10.460937 0-14.453125 3.992188-3.988281 10.460938-3.988281 14.453126 0zm-34.890624 30.660156h-20.441407c-5.644531 0-10.21875 4.574219-10.21875 10.21875 0 5.644532 4.574219 10.21875 10.21875 10.21875h20.441407c5.644531 0 10.21875-4.574218 10.21875-10.21875 0-5.644531-4.574219-10.21875-10.21875-10.21875zm61.316406-81.757812c-5.644532 0-10.21875 4.574219-10.21875 10.21875v20.441406c0 5.644532 4.574218 10.21875 10.21875 10.21875 5.644531 0 10.21875-4.574218 10.21875-10.21875v-20.441406c0-5.644531-4.574219-10.21875-10.21875-10.21875zm237.09375 312.574219c-3.992188-3.992188-10.460938-3.992188-14.453125 0-3.992188 3.988281-3.992188 10.460937 0 14.453125l14.453125 14.449218c3.992187 3.992188 10.460937 3.992188 14.453125 0 3.988281-3.988281 3.988281-10.460937 0-14.449218zm40.878906-36.644531h-20.441406c-5.644532 0-10.21875 4.574218-10.21875 10.21875 0 5.644531 4.574218 10.21875 10.21875 10.21875h20.441406c5.644531 0 10.21875-4.574219 10.21875-10.21875 0-5.644532-4.574219-10.21875-10.21875-10.21875zm-81.757812 61.316406c-5.644532 0-10.21875 4.574218-10.21875 10.21875v20.4375c0 5.644531 4.574218 10.222656 10.21875 10.222656 5.644531 0 10.21875-4.578125 10.21875-10.222656v-20.4375c0-5.644532-4.574219-10.21875-10.21875-10.21875zm0 0" fill="#ffdf8e"/></svg>