<svg height="46" viewBox="0 0 512.00051 512" width="46" xmlns="http://www.w3.org/2000/svg"><path d="m500.757812 261.621094c0 138.28125-112.097656 250.378906-250.378906 250.378906s-250.378906-112.097656-250.378906-250.378906 112.097656-250.378906 250.378906-250.378906 250.378906 112.097656 250.378906 250.378906zm0 0" fill="#8279c0"/><path d="m179.214844 442.441406c7.980468 7.984375 7.980468 20.925782 0 28.90625l-3.773438 3.773438c-7.984375 7.984375-20.925781 7.984375-28.90625 0l-5.414062-5.414063c-.707032 1.039063-1.507813 2.027344-2.429688 2.949219l-3.773437 3.773438c-1.792969 1.792968-3.871094 3.171874-6.050781 4.15625-40.722657-22.367188-74.703126-56.25-97.460938-97.457032.988281-2.183594 2.371094-4.25 4.164062-6.046875l3.773438-3.773437c.921875-.921875 1.914062-1.722656 2.949219-2.429688l-5.414063-5.414062c-7.984375-7.980469-7.984375-20.921875 0-28.90625l3.773438-3.773438c7.984375-7.980468 20.925781-7.980468 28.90625 0zm326.796875-287.582031-148.871094-148.871094c-7.984375-7.984375-20.925781-7.984375-28.90625 0l-3.773437 3.773438c-7.984376 7.980469-7.984376 20.921875 0 28.90625l148.871093 148.871093c7.984375 7.984376 20.925781 7.984376 28.90625 0l3.773438-3.773437c7.984375-7.980469 7.984375-20.921875 0-28.90625zm0 0" fill="#babac0"/><path d="m146.535156 475.125-83.511718-83.515625c-7.984376-7.980469-7.984376-20.921875 0-28.90625l3.773437-3.773437c7.980469-7.980469 20.921875-7.980469 28.90625 0l83.511719 83.511718c7.980468 7.984375 7.980468 20.925782 0 28.90625l-3.773438 3.777344c-7.984375 7.980469-20.925781 7.980469-28.90625 0zm355.703125-287.585938 3.777344-3.773437c7.980469-7.980469 7.980469-20.921875 0-28.90625l-122.730469-122.730469c-7.980468-7.980468-20.925781-7.980468-28.90625 0l-3.773437 3.777344c-7.984375 7.980469-7.984375 20.921875 0 28.90625l122.730469 122.726562c7.980468 7.984376 20.921874 7.984376 28.902343 0zm0 0" fill="#d3d3d8"/><path d="m185.75 462.050781-135.800781-135.800781c-7.980469-7.980469-7.980469-20.921875 0-28.90625l226-225.996094c7.980469-7.984375 20.921875-7.984375 28.902343 0l135.800782 135.800782c7.984375 7.980468 7.984375 20.921874 0 28.90625l-225.996094 225.996093c-7.980469 7.980469-20.925781 7.980469-28.90625 0zm0 0" fill="#d3d3d8"/><path d="m185.75 462.050781-109.65625-109.65625c-7.980469-7.984375-7.980469-20.925781 0-28.90625l225.996094-225.996093c7.984375-7.984376 20.925781-7.984376 28.90625 0l109.65625 109.65625c7.984375 7.980468 7.984375 20.925781 0 28.90625l-225.996094 225.996093c-7.980469 7.980469-20.925781 7.980469-28.90625 0zm0 0" fill="#ececf1"/><path d="m370.136719 306.570312-164.707031-164.707031 13.074218-13.074219 164.707032 164.707032zm0 0" fill="#babac0"/><path d="m370.136719 306.570312-132.023438-132.027343c-3.609375-3.609375-3.609375-9.460938 0-13.074219 3.609375-3.609375 9.460938-3.609375 13.070313 0l132.027344 132.027344zm0 0" fill="#d3d3d8"/><path d="m420.773438 304.914062c-15.550782-15.546874-21.574219-38.234374-15.789063-59.449218l3.25-11.914063c-30.011719 5.152344-65.078125-6.25-91.691406-32.863281-28.734375-28.734375-39.734375-67.324219-31.308594-98.769531l-18.699219 5.097656c-21.210937 5.785156-43.898437-.238281-59.449218-15.789063-3.976563-3.976562-3.511719-10.554687.992187-13.929687l86.429687-64.820313c5.519532-4.140624 13.242188-3.59375 18.121094 1.285157l185.609375 185.609375c4.878907 4.878906 5.429688 12.605468 1.289063 18.125l-64.824219 86.429687c-3.375 4.5-9.953125 4.964844-13.929687.988281zm0 0" fill="#69c3da"/><path d="m239.328125 108.15625c-12.015625-2.210938-23.308594-7.992188-32.242187-16.929688-3.976563-3.976562-3.511719-10.554687.988281-13.929687l86.429687-64.820313c5.519532-4.140624 13.246094-3.59375 18.125 1.285157l31.027344 31.027343c-4.878906-4.878906-12.601562-5.425781-18.125-1.285156zm0 0" fill="#17b0ce"/><path d="m224.964844 448.980469-161.945313-161.945313c-7.980469-7.980468-7.980469-20.925781 0-28.90625l101.816407-101.8125c7.980468-7.984375 20.921874-7.984375 28.90625 0l161.945312 161.945313c7.980469 7.980469 7.980469 20.921875 0 28.902343l-101.816406 101.816407c-7.980469 7.980469-20.921875 7.980469-28.90625 0zm0 0" fill="#56bcd6"/><path d="m355.6875 318.261719-135.800781-135.804688c-7.984375-7.980469-20.925781-7.980469-28.90625 0l-101.816407 101.816407c-7.980468 7.980468-7.980468 20.921874 0 28.90625l135.804688 135.800781c7.980469 7.980469 20.921875 7.980469 28.902344 0l101.816406-101.816407c7.980469-7.980468 7.980469-20.921874 0-28.902343zm-241.757812-13c-5.414063-5.414063-5.414063-14.195313 0-19.609375l78.429687-78.429688c5.414063-5.414062 14.195313-5.414062 19.609375 0 5.414062 5.414063 5.414062 14.191406 0 19.605469l-78.433594 78.433594c-5.414062 5.414062-14.191406 5.414062-19.605468 0zm37.035156 37.035156c-5.414063-5.414063-5.414063-14.191406 0-19.605469l78.433594-78.433594c5.414062-5.414062 14.191406-5.414062 19.605468 0 5.417969 5.414063 5.417969 14.191407 0 19.609376l-78.429687 78.429687c-5.414063 5.417969-14.195313 5.417969-19.609375 0zm37.039062 37.039063c-5.414062-5.414063-5.414062-14.191407 0-19.609376l78.429688-78.429687c5.414062-5.414063 14.195312-5.414063 19.609375 0 5.414062 5.414063 5.414062 14.191406 0 19.605469l-78.429688 78.433594c-5.417969 5.414062-14.195312 5.414062-19.609375 0zm135.074219-41.394532-78.429687 78.429688c-5.414063 5.417968-14.195313 5.417968-19.609376 0-5.414062-5.414063-5.414062-14.191406 0-19.605469l78.433594-78.433594c5.414063-5.414062 14.191406-5.414062 19.605469 0 5.417969 5.414063 5.417969 14.195313 0 19.609375zm0 0" fill="#8ed0e1"/></svg>