<?xml version="1.0" encoding="iso-8859-1"?>
<!-- Generator: Adobe Illustrator 19.0.0, SVG Export Plug-In . SVG Version: 6.00 Build 0)  -->
<svg version="1.1" id="Layer_1" xmlns="http://www.w3.org/2000/svg" xmlns:xlink="http://www.w3.org/1999/xlink" x="0px" y="0px"
	height="46" width="46"
	viewBox="0 0 512.003 512.003" style="enable-background:new 0 0 512.003 512.003;" xml:space="preserve">
<g>
	<polygon style="fill:#ECBA16;" points="357.023,494.346 0,141.243 141.241,0.001 494.345,357.024 	"/>
	<polygon style="fill:#283238;" points="481.864,294.601 444.409,257.145 469.382,232.181 506.829,269.636 	"/>
	<g>
		<path style="fill:#B28913;" d="M128.926,58.131c-2.216,0-4.44-0.83-6.153-2.498l-6.329-6.153
			c-3.496-3.399-3.575-8.995-0.177-12.491c3.399-3.496,8.995-3.575,12.482-0.168l6.329,6.153c3.496,3.399,3.575,8.995,0.177,12.482
			C133.525,57.231,131.221,58.131,128.926,58.131"/>
		<path style="fill:#B28913;" d="M165.379,93.605c-2.216,0-4.44-0.83-6.162-2.498L147.07,79.277
			c-3.496-3.407-3.566-8.995-0.168-12.482c3.399-3.496,8.986-3.575,12.482-0.177l12.156,11.829
			c3.487,3.407,3.566,8.995,0.168,12.482C169.978,92.704,167.674,93.605,165.379,93.605 M201.837,129.074
			c-2.225,0-4.44-0.83-6.153-2.507l-12.156-11.811c-3.496-3.399-3.575-8.986-0.177-12.491c3.39-3.487,8.986-3.584,12.482-0.168
			l12.156,11.82c3.496,3.399,3.575,8.978,0.177,12.482C206.436,128.173,204.141,129.074,201.837,129.074"/>
		<path style="fill:#B28913;" d="M238.293,164.544c-2.216,0-4.44-0.83-6.153-2.498l-12.156-11.829
			c-3.496-3.407-3.566-8.995-0.168-12.482c3.407-3.487,8.986-3.575,12.482-0.177l12.156,11.829
			c3.487,3.407,3.566,8.995,0.168,12.482C242.892,163.644,240.588,164.544,238.293,164.544 M274.751,200.013
			c-2.225,0-4.44-0.83-6.153-2.507l-12.156-11.811c-3.496-3.399-3.575-8.995-0.168-12.491c3.399-3.487,8.986-3.575,12.482-0.168
			l12.147,11.82c3.496,3.399,3.575,8.986,0.177,12.482C279.35,199.113,277.046,200.013,274.751,200.013 M311.209,235.482
			c-2.225,0-4.44-0.83-6.162-2.498L292.9,221.155c-3.496-3.407-3.566-8.986-0.168-12.482c3.399-3.487,8.986-3.575,12.482-0.177
			l12.156,11.829c3.487,3.407,3.558,8.995,0.168,12.482C315.799,234.591,313.504,235.482,311.209,235.482 M347.667,270.952
			c-2.225,0-4.44-0.83-6.162-2.498l-12.156-11.82c-3.496-3.399-3.566-8.986-0.168-12.482c3.39-3.496,8.986-3.593,12.482-0.177
			l12.156,11.82c3.496,3.399,3.575,8.978,0.168,12.482C352.266,270.051,349.962,270.952,347.667,270.952 M384.116,306.421
			c-2.216,0-4.44-0.821-6.162-2.498l-12.147-11.829c-3.496-3.407-3.566-8.987-0.168-12.482c3.407-3.487,8.986-3.575,12.482-0.168
			l12.147,11.82c3.496,3.407,3.575,8.995,0.177,12.491C388.715,305.529,386.411,306.421,384.116,306.421 M420.574,341.899
			c-2.225,0-4.44-0.83-6.153-2.498l-12.156-11.829c-3.496-3.407-3.566-8.995-0.168-12.482c3.399-3.496,8.986-3.575,12.482-0.177
			l12.156,11.829c3.487,3.407,3.558,8.995,0.168,12.482C425.164,340.999,422.869,341.899,420.574,341.899"/>
		<path style="fill:#B28913;" d="M451.202,371.699c-2.216,0-4.44-0.83-6.153-2.498l-6.329-6.153
			c-3.496-3.399-3.575-8.995-0.177-12.491c3.399-3.478,8.995-3.575,12.482-0.168l6.329,6.153c3.496,3.399,3.575,8.995,0.177,12.482
			C455.801,370.799,453.497,371.699,451.202,371.699"/>
		<path style="fill:#B28913;" d="M58.305,137.579c-2.216,0-4.44-0.83-6.153-2.498l-6.329-6.153
			c-3.496-3.399-3.575-8.995-0.177-12.491c3.407-3.487,8.995-3.575,12.482-0.168l6.329,6.153c3.496,3.399,3.575,8.995,0.177,12.482
			C62.904,136.679,60.6,137.579,58.305,137.579"/>
		<path style="fill:#B28913;" d="M94.241,172.544c-2.216,0-4.44-0.83-6.153-2.498l-11.979-11.661
			c-3.496-3.39-3.575-8.986-0.177-12.482c3.407-3.487,8.995-3.575,12.482-0.168l11.979,11.652c3.496,3.399,3.575,8.995,0.177,12.482
			C98.84,171.644,96.536,172.544,94.241,172.544 M130.178,207.519c-2.216,0-4.44-0.839-6.153-2.498l-11.979-11.67
			c-3.496-3.399-3.566-8.986-0.168-12.482c3.399-3.487,8.995-3.558,12.482-0.168l11.979,11.661
			c3.496,3.407,3.566,8.995,0.168,12.482C134.777,206.619,132.482,207.519,130.178,207.519"/>
		<path style="fill:#B28913;" d="M166.12,242.485c-2.216,0-4.44-0.83-6.153-2.498l-11.979-11.661
			c-3.496-3.39-3.575-8.986-0.177-12.482c3.416-3.487,8.995-3.575,12.482-0.168l11.979,11.652c3.496,3.399,3.575,8.995,0.177,12.482
			C170.719,241.584,168.415,242.485,166.12,242.485 M202.057,277.451c-2.216,0-4.44-0.83-6.153-2.498l-11.979-11.661
			c-3.496-3.39-3.575-8.986-0.168-12.482c3.399-3.487,8.986-3.575,12.482-0.168l11.979,11.652c3.496,3.399,3.566,8.995,0.168,12.482
			C206.656,276.55,204.361,277.451,202.057,277.451 M238.003,312.426c-2.225,0-4.44-0.83-6.162-2.498l-11.979-11.661
			c-3.496-3.39-3.566-8.987-0.168-12.482c3.407-3.487,8.986-3.575,12.482-0.168l11.979,11.652c3.496,3.399,3.575,8.995,0.168,12.482
			C242.594,311.525,240.298,312.426,238.003,312.426 M273.94,347.392c-2.225,0-4.44-0.83-6.153-2.498l-11.979-11.661
			c-3.496-3.39-3.575-8.986-0.177-12.482c3.407-3.487,8.995-3.575,12.482-0.168l11.979,11.652c3.496,3.399,3.575,8.995,0.177,12.482
			C278.531,346.491,276.235,347.392,273.94,347.392 M309.877,382.358c-2.216,0-4.44-0.83-6.153-2.498l-11.979-11.661
			c-3.496-3.399-3.575-8.986-0.177-12.482c3.416-3.487,8.995-3.575,12.482-0.168l11.979,11.652
			c3.496,3.399,3.575,8.986,0.177,12.482C314.477,381.457,312.173,382.358,309.877,382.358 M345.815,417.333
			c-2.216,0-4.431-0.83-6.153-2.507l-11.979-11.652c-3.496-3.399-3.575-8.986-0.168-12.482c3.407-3.487,8.986-3.575,12.482-0.168
			l11.979,11.652c3.496,3.399,3.566,8.986,0.168,12.482C350.414,416.432,348.118,417.333,345.815,417.333"/>
		<path style="fill:#B28913;" d="M376.107,446.795c-2.216,0-4.44-0.83-6.153-2.498l-6.329-6.153
			c-3.496-3.399-3.575-8.995-0.177-12.491c3.399-3.487,8.995-3.575,12.482-0.168l6.329,6.153c3.496,3.399,3.575,8.995,0.177,12.482
			C380.706,445.894,378.402,446.795,376.107,446.795"/>
	</g>
	<g>
		<path style="fill:#38454F;" d="M506.832,319.569l-87.384-87.384c-6.903-6.903-18.079-6.903-24.973,0l-11.864,11.864
			l111.74,112.975l12.482-12.491C513.727,337.639,513.727,326.463,506.832,319.569"/>
		<path style="fill:#38454F;" d="M232.182,394.473c-6.894,6.894-6.894,18.07,0,24.964l87.384,87.393
			c6.903,6.894,18.079,6.894,24.973,0l12.482-12.482l-112.975-111.74L232.182,394.473z"/>
	</g>
</g>
<g>
</g>
<g>
</g>
<g>
</g>
<g>
</g>
<g>
</g>
<g>
</g>
<g>
</g>
<g>
</g>
<g>
</g>
<g>
</g>
<g>
</g>
<g>
</g>
<g>
</g>
<g>
</g>
<g>
</g>
</svg>
