<svg id="Layer_1" enable-background="new 0 0 511.301 511.301" height="46" viewBox="0 0 511.301 511.301" width="46" xmlns="http://www.w3.org/2000/svg"><g><g><circle cx="255.651" cy="272.464" fill="#d5f1fe" r="238.837"/></g><g><path d="m418.513 393.815c-.332.119-.664.237-.997.354-18.245 6.442-37.398-6.953-37.398-26.301v-.196h14.702v2.839h12.232c4.34 0 7.858-3.518 7.858-7.858v-23.193c0-4.34-3.518-7.858-7.858-7.858h-12.232v2.839h-5.715c-4.963 0-8.986-4.023-8.986-8.986v-43.934h25.988v13.102h22.161c3.618 0 6.551-2.933 6.551-6.551v-166.44c0-3.618-2.933-6.551-6.551-6.551h-15.61c-3.618 0-6.551 2.933-6.551 6.551 0 3.618-2.933 6.551-6.551 6.551h-12.887c-3.618 0-6.551-2.933-6.551-6.551 0-36.53-24.004-68.978-59.146-78.95-20.919-5.936-42.853-9.054-65.321-9.054-46.092 0-89.125 13.07-125.621 35.686v175.658c0 4.924-4 8.91-8.924 8.893l-.213-.001c-3.751-.013-7.105-2.377-8.346-5.918-.2-.572-.398-1.144-.594-1.717-17.383-50.835-91.824-40.696-94.773 12.948-.28 5.092-.4 10.221-.355 15.383 1.104 128.157 104.271 233.251 232.388 236.654 75.672 2.01 145.198-31.519 190.843-86.927 12.484-15.155-3.056-37.093-21.543-30.472z" fill="#93dcfc"/></g><g><g><g><path d="m215.135 0h111.81v74.477h-111.81z" fill="#323b49"/></g></g><g><g><path d="m193.77 20.227h23.574v-20.227h-67.012v74.477h33.362v-48.175c0-5.868 5.958-7.888 10.076-6.075z" fill="#1b1e21"/></g></g><g><g><path d="m207.825 18.481h86.654v32.482h-86.654z" fill="#fff"/></g></g><g><g><path d="m210.348 32.044v-13.563h-27.55v46.835h111.68v-16.872h-67.73c-9.057 0-16.4-7.343-16.4-16.4z" fill="#a2dffd"/></g></g><g><g><path d="m207.825 428.527h119.121v42.442h-119.121z" fill="#4275d1"/></g></g><g><g><path d="m150.332 428.527h60.921v42.442h-60.921z" fill="#1b1e21"/></g></g><g><g><path d="m127.057 363.914v-97.811h-25.467c-5.594 0-10.129 4.535-10.129 10.129v87.682z" fill="#475770"/></g></g><g><g><path d="m91.46 352.318v46c0 5.594 4.535 10.129 10.129 10.129h25.467v-46h-25.466c-5.594 0-10.13-4.535-10.13-10.129z" fill="#1b1e21"/></g></g><g><g><path d="m354.327 140.428h41.073v153.339h-41.073z" fill="#1b1e21"/></g></g><g><g><path d="m391.129 127.326h28.712v179.542h-28.712z" fill="#323b49" transform="matrix(-1 0 0 -1 810.969 434.194)"/></g></g><g><g><path d="m354.092 346.687h28.739v33.23h-28.739z" fill="#1b1e21"/></g></g><g><g><path d="m379.842 343.848h20.09v38.908h-20.09z" fill="#323b49" transform="matrix(-1 0 0 -1 779.774 726.604)"/></g></g><g><g><path d="m174.022 62.316h191.119v346.131h-191.119z" fill="#475770"/></g></g><g><g><path d="m230.988 402.535c-12.944 0-24.802-4.626-34.028-12.308-2.579-2.147-3.114-5.857-1.398-8.741.055-.093.11-.187.164-.281 1.948-3.405 6.255-4.694 9.563-2.588 10.772 6.859 23.696 10.634 37.539 10.065 33.611-1.38 60.547-28.132 62.137-61.733.449-9.484-1.143-18.543-4.369-26.784-1.657-4.233 1.44-8.77 5.98-8.993.108-.005.216-.011.325-.018 15.552-.925 28.19-13.591 29.05-29.147.989-17.896-13.231-32.717-30.911-32.717-3.106 0-6.104.463-8.933 1.314 6.11-10.387 9.423-22.617 8.874-35.663-1.396-33.184-28.122-60.259-61.287-62.048-31.121-1.679-57.773 18.572-65.948 46.688v-117.265h-62.693v377.871h250.087v-37.651h-134.152zm-53.243-96.897v-47.896c0-10.848 12.638-16.858 20.996-9.943 7.368 6.095 16.105 10.595 25.683 12.969-22.437 5.562-40.258 22.785-46.679 44.87z" fill="#323b49"/></g></g><g><g><path d="m324.081 414.447h-167.97c-10.626 0-19.271-8.645-19.271-19.271v-287.85c0-10.626 8.646-19.271 19.271-19.271h167.97c10.626 0 19.271 8.645 19.271 19.271v287.85c.001 10.626-8.645 19.271-19.271 19.271zm-167.97-314.392c-4.01 0-7.271 3.262-7.271 7.271v287.85c0 4.009 3.262 7.271 7.271 7.271h167.97c4.01 0 7.271-3.262 7.271-7.271v-287.85c0-4.009-3.262-7.271-7.271-7.271z" fill="#82abca"/></g></g><g><g><circle cx="240.096" cy="185.741" fill="#323b49" r="58.415"/></g></g><g><g><path d="m274.629 194.844c.581-18.735-14.225-34.781-32.951-35.618-1.487-.066-2.954-.039-4.396.078-7.936.641-12.489-8.736-6.917-14.422.25-.255.503-.508.758-.759 6.344-6.242-.192-16.789-8.671-14.085-23.15 7.384-40.771 28.974-40.771 55.703 0 33.324 27.447 58.744 58.885 58.438 4.359-.042 5.799-5.822 2.039-8.027-.085-.05-.17-.1-.255-.15-3.511-2.083-2.295-7.448 1.76-7.921 16.432-1.916 29.974-15.646 30.519-33.237z" fill="#1b1e21"/></g></g><g><g><path d="m240.096 250.155c-35.518 0-64.414-28.896-64.414-64.415s28.896-64.415 64.414-64.415c35.519 0 64.415 28.896 64.415 64.415s-28.897 64.415-64.415 64.415zm0-116.829c-28.901 0-52.414 23.513-52.414 52.415 0 28.901 23.513 52.415 52.414 52.415s52.415-23.513 52.415-52.415-23.514-52.415-52.415-52.415z" fill="#82abca"/></g></g><g><g><path d="m184.182 185.741h-5c0-33.589 27.326-60.915 60.914-60.915v5c-30.831 0-55.914 25.083-55.914 55.915z" fill="#fff"/></g></g><g><path d="m240.096 151.19c-11.177 0-21.115 5.308-27.43 13.54l14.094 34.856 34.437 13.515c8.18-6.318 13.449-16.224 13.449-27.36.001-19.082-15.468-34.551-34.55-34.551z" fill="#df8b36"/></g><g><g><path d="m257.134 201.144c-16.972-1.341-30.601-15.191-31.684-32.181-.03-.463-.05-.925-.061-1.384-.151-6.102-7.897-8.664-11.813-3.981-5.283 6.318-8.349 14.553-8.004 23.51.683 17.703 14.992 32.219 32.685 33.136 8.653.448 16.656-2.289 22.939-7.144 4.889-3.777 2.476-11.507-3.687-11.929-.125-.008-.25-.018-.375-.027z" fill="#d7623b"/></g></g><g><g><circle cx="240.096" cy="313.796" fill="#323b49" r="58.415"/></g></g><g><g><path d="m274.632 320.777c-.516-17.919-15.004-32.674-32.911-33.494-2.223-.102-4.402.007-6.519.307-7.91 1.122-12.812-8.42-7.286-14.19.143-.149.287-.298.431-.445 6.263-6.402-.717-16.957-9.077-13.745-21.595 8.297-37.589 29.167-37.589 54.587 0 33.772 28.172 59.43 60.172 58.413 3.521-.112 4.602-4.874 1.473-6.493-1.835-.949-3.613-1.992-5.327-3.123-2.844-1.876-1.44-6.259 1.967-6.247h.13c19.42-.001 35.098-16.023 34.536-35.57z" fill="#1b1e21"/></g></g><g><g><path d="m240.096 378.211c-35.518 0-64.414-28.896-64.414-64.415s28.896-64.415 64.414-64.415c35.519 0 64.415 28.896 64.415 64.415 0 35.518-28.897 64.415-64.415 64.415zm0-116.83c-28.901 0-52.414 23.513-52.414 52.415 0 28.901 23.513 52.415 52.414 52.415s52.415-23.513 52.415-52.415-23.514-52.415-52.415-52.415z" fill="#82abca"/></g></g><g><g><path d="m184.182 313.796h-5c0-33.589 27.326-60.915 60.914-60.915v5c-30.831 0-55.914 25.083-55.914 55.915z" fill="#fff"/></g></g><g><path d="m240.096 279.246-27.428 41.661c3.435 0 34.18 26.938 37.312 26.005 14.265-4.251 24.666-17.469 24.666-33.116.001-19.082-15.468-34.55-34.55-34.55z" fill="#e7b74c"/></g><g><g><path d="m229.326 310.313c0-10.668 4.836-20.206 12.435-26.543 1.818-1.516.777-4.52-1.591-4.525-.025 0-.049 0-.074 0-19.885 0-35.847 16.799-34.467 36.979 1.148 16.785 14.56 30.496 31.318 31.981 4.559.404 8.954-.08 13.033-1.296 2.322-.693 2.535-3.873.307-4.827-12.325-5.276-20.961-17.512-20.961-31.769z" fill="#df8b36"/></g></g><g><g><circle cx="305.04" cy="251.251" fill="#323b49" r="30.96"/></g></g><g><g><path d="m319.875 255.545c-.36-7.766-6.906-14.065-14.68-14.145-2.027-.021-3.961.366-5.725 1.082-2.692 1.093-5.39-1.666-4.163-4.3 2.228-4.784 5.642-8.903 9.865-11.979 2.607-1.899 1.196-6.048-2.024-5.856-.106.006-.212.013-.318.021-15.279 1.063-27.648 13.455-28.678 28.736-1.219 18.07 13.078 33.107 30.887 33.107.641 0 1.277-.02 1.908-.058 2.177-.133 2.808-3.004.921-4.099-1.549-.899-3.012-1.929-4.376-3.074-1.6-1.343-.614-3.887 1.475-3.877h.072c8.437 0 15.231-7.035 14.836-15.558z" fill="#1b1e21"/></g></g><g><g><circle cx="305.04" cy="251.251" fill="#475770" r="14.852"/></g></g><g><g><circle cx="179.083" cy="363.723" fill="#82abca" r="19.167"/></g></g><g><g><circle cx="179.083" cy="366.723" fill="#4a82ae" r="5.061"/></g></g><g><g><circle cx="179.083" cy="363.723" fill="#fff" r="5.061"/></g></g><g><g><g><path d="m161.463 338.213h10v25.696h-10z" fill="#4a82ae" transform="matrix(.707 -.707 .707 .707 -199.482 220.531)"/></g></g></g><g><g><g><path d="m405.484 135.163h14.356v12h-14.356z" fill="#1b1e21"/></g></g><g><g><path d="m405.484 160.704h14.356v12h-14.356z" fill="#1b1e21"/></g></g><g><g><path d="m405.484 186.245h14.356v12h-14.356z" fill="#1b1e21"/></g></g><g><g><path d="m405.484 211.786h14.356v12h-14.356z" fill="#1b1e21"/></g></g><g><g><path d="m405.484 237.328h14.356v12h-14.356z" fill="#1b1e21"/></g></g><g><g><path d="m405.484 262.869h14.356v12h-14.356z" fill="#1b1e21"/></g></g><g><g><path d="m405.484 288.41h14.356v12h-14.356z" fill="#1b1e21"/></g></g></g><g><g><path d="m305.039 284.711c-18.45 0-33.46-15.01-33.46-33.46s15.01-33.46 33.46-33.46 33.46 15.01 33.46 33.46-15.01 33.46-33.46 33.46zm0-61.92c-15.693 0-28.46 12.767-28.46 28.46s12.767 28.46 28.46 28.46 28.46-12.767 28.46-28.46-12.766-28.46-28.46-28.46z" fill="#82abca"/></g></g></g></g></svg>