<?xml version="1.0" encoding="iso-8859-1"?>
<!-- Generator: Adobe Illustrator 19.0.0, SVG Export Plug-In . SVG Version: 6.00 Build 0)  -->
<svg version="1.1" id="Layer_1" xmlns="http://www.w3.org/2000/svg" xmlns:xlink="http://www.w3.org/1999/xlink" x="0px" y="0px"
	 viewBox="0 0 512 512" style="enable-background:new 0 0 512 512;" xml:space="preserve"
	 height="46" width="46">
<g>
	<polygon style="fill:#ECBA16;" points="35.309,467.862 264.826,467.862 264.826,79.448 35.309,79.448 	"/>
	<polygon style="fill:#B28913;" points="229.515,467.862 264.826,467.862 264.826,79.448 229.515,79.448 	"/>
	<g>
		<path style="fill:#38454F;" d="M289.211,79.448H10.921c-6.029,0-10.92-4.89-10.92-10.929V46.239c0-6.038,4.89-10.929,10.92-10.929
			h278.29c6.038,0,10.929,4.89,10.929,10.929V68.52C300.14,74.558,295.249,79.448,289.211,79.448"/>
		<path style="fill:#38454F;" d="M289.211,512H10.921c-6.029,0-10.92-4.891-10.92-10.929v-22.281c0-6.038,4.89-10.929,10.92-10.929
			h278.29c6.038,0,10.929,4.891,10.929,10.929v22.281C300.14,507.109,295.249,512,289.211,512"/>
	</g>
	<path style="fill:#283238;" d="M203.033,35.31H97.102c0-19.5,15.81-35.31,35.31-35.31h35.31C187.223,0,203.033,15.81,203.033,35.31
		"/>
	<path style="fill:#ECBA16;" d="M264.826,114.759v317.793h141.241v-52.966c0-29.255,23.711-52.966,52.966-52.966
		s52.966-23.711,52.966-52.966V114.759H264.826z"/>
	<g>
		<polygon style="fill:#FFFFFF;" points="300.136,397.241 335.447,397.241 335.447,361.931 300.136,361.931 		"/>
		<polygon style="fill:#FFFFFF;" points="300.136,185.379 335.447,185.379 335.447,150.069 300.136,150.069 		"/>
		<polygon style="fill:#FFFFFF;" points="370.757,185.379 406.067,185.379 406.067,150.069 370.757,150.069 		"/>
		<polygon style="fill:#FFFFFF;" points="441.378,185.379 476.688,185.379 476.688,150.069 441.378,150.069 		"/>
	</g>
	<g>
		<polygon style="fill:#B28913;" points="79.447,194.207 150.067,194.207 150.067,123.586 79.447,123.586 		"/>
		<path style="fill:#B28913;" d="M194.205,344.276H70.619c-4.873,0-8.828-3.946-8.828-8.828c0-4.882,3.955-8.828,8.828-8.828
			h123.586c4.873,0,8.828,3.946,8.828,8.828C203.033,340.33,199.078,344.276,194.205,344.276"/>
		<path style="fill:#B28913;" d="M194.205,308.966H70.619c-4.873,0-8.828-3.946-8.828-8.828c0-4.882,3.955-8.828,8.828-8.828
			h123.586c4.873,0,8.828,3.946,8.828,8.828C203.033,305.02,199.078,308.966,194.205,308.966"/>
		<path style="fill:#B28913;" d="M194.205,273.655H70.619c-4.873,0-8.828-3.946-8.828-8.828S65.746,256,70.619,256h123.586
			c4.873,0,8.828,3.946,8.828,8.828S199.078,273.655,194.205,273.655"/>
		<path style="fill:#B28913;" d="M79.447,432.552c-4.873,0-8.828-3.946-8.828-8.828v-17.655c0-4.882,3.955-8.828,8.828-8.828
			s8.828,3.946,8.828,8.828v17.655C88.274,428.606,84.319,432.552,79.447,432.552"/>
		<path style="fill:#B28913;" d="M105.929,432.552c-4.873,0-8.828-3.946-8.828-8.828v-17.655c0-4.882,3.955-8.828,8.828-8.828
			s8.828,3.946,8.828,8.828v17.655C114.757,428.606,110.802,432.552,105.929,432.552"/>
		<path style="fill:#B28913;" d="M132.412,432.552c-4.873,0-8.828-3.946-8.828-8.828v-17.655c0-4.882,3.955-8.828,8.828-8.828
			c4.873,0,8.828,3.946,8.828,8.828v17.655C141.24,428.606,137.285,432.552,132.412,432.552"/>
		<path style="fill:#B28913;" d="M158.895,432.552c-4.873,0-8.828-3.946-8.828-8.828v-17.655c0-4.882,3.955-8.828,8.828-8.828
			c4.873,0,8.828,3.946,8.828,8.828v17.655C167.722,428.606,163.768,432.552,158.895,432.552"/>
		<path style="fill:#B28913;" d="M185.378,432.552c-4.873,0-8.828-3.946-8.828-8.828v-17.655c0-4.882,3.955-8.828,8.828-8.828
			c4.873,0,8.828,3.946,8.828,8.828v17.655C194.205,428.606,190.25,432.552,185.378,432.552"/>
	</g>
</g>
<g>
</g>
<g>
</g>
<g>
</g>
<g>
</g>
<g>
</g>
<g>
</g>
<g>
</g>
<g>
</g>
<g>
</g>
<g>
</g>
<g>
</g>
<g>
</g>
<g>
</g>
<g>
</g>
<g>
</g>
</svg>
