<svg id="Layer_1" enable-background="new 0 0 508 508" height="46" viewBox="0 0 508 508" width="46" xmlns="http://www.w3.org/2000/svg"><g><g><g><circle cx="254" cy="254" fill="#e04955" r="254"/></g></g><g><g><path d="m371.882 479.046c29.458-15.437 18.18-59.965-15.078-59.813-.395.002-.789.003-1.184.003-4.371 0-8.717-.111-13.034-.33-8.817-.447-8.426-13.628.403-13.628h32.713c6.835 0 12.376-5.541 12.376-12.376 0-6.835 5.541-12.376 12.376-12.376h4.783c6.835 0 12.376-5.541 12.376-12.376v-1.133c0-6.835 5.541-12.376 12.376-12.376h23.63c6.835 0 12.376-5.541 12.376-12.376v-59.368c.004-.004.007-.007.011-.011 24.033.149 42.953-20.055 41.557-43.913-3.946-67.408-34.487-130.389-85.448-175.373-7.373-6.509-16.925-10.008-26.76-10.008h-78.775c-9.493 0-17.531 7.709-17.531 17.531v23.522h-35.208c-4.235 0-7.669-3.433-7.669-7.669 0-4.235-3.433-7.669-7.669-7.669h-1.748c-4.235 0-7.669-3.433-7.669-7.669v-2.693c0-4.235-3.433-7.669-7.669-7.669h-44.104-29.961c-4.235 0-7.669 3.433-7.669 7.669v2.693c0 4.235-3.433 7.669-7.669 7.669h-8.087v15.338h-11.925c-5.258 0-8.941-5.156-7.269-10.141.085-.254.172-.51.262-.769 6.147-17.799-15.465-32.266-29.549-19.768-52.661 46.732-85.446 114.797-85.446 190.033 0 140.919 114.244 254 254 254 41.789 0 82.088-10.197 117.882-28.954z" fill="#c40955"/></g></g><g><g><g><path d="m123.262 75.991h89.403v31.93h-89.403z" fill="#4a82ae"/></g></g><g><g><path d="m107.506 94.021h122.245v44.701h-122.245z" fill="#fcb54c"/></g></g><g><g><path d="m159.055 75.991h53.61v31.93h-53.61z" fill="#d7e4ee"/></g></g><g><g><path d="m148.681 94.021h81.07v44.701h-81.07z" fill="#ffd508"/></g></g><g><path d="m201.297 408.579v48.881h30.912v-17.835h47.506v17.835h30.912v-48.881z" fill="#323b49"/></g><g><g><g><path d="m148.87 383.503h212.786v36.491h-212.786z" fill="#1b1e21"/></g></g><g><g><path d="m391.192 395.242h-176.139l-95.719-36.491h271.858z" fill="#323b49"/></g></g><g><g><path d="m119.334 358.751h95.719v36.491h-95.719z" fill="#1b1e21"/></g></g><g><g><path d="m59.156 109.359h380.418v241.752h-380.418z" fill="#475770"/></g></g><g><g><path d="m292.273 105.482c0-9.682 7.849-17.531 17.531-17.531h179.033v-2.115c0-9.682-7.849-17.531-17.531-17.531h-181.148c-9.682 0-17.531 7.849-17.531 17.531v181.148c0 9.682 7.849 17.531 17.531 17.531h2.115z" fill="#fff"/></g></g><g><g><path d="m292.999 88.677h175.466v175.466h-175.466z" fill="#4275d1"/></g></g><g><g><path d="m468.465 264.144h-175.466v-175.467z" fill="#323b49"/></g></g><g><g><path d="m309.119 104.797h143.227v143.227h-143.227z" fill="#323b49"/></g></g><g><g><path d="m441.219 233.166c-8.201 0-13.177-8.831-9.157-15.979 4.782-8.505 7.512-18.317 7.512-28.77 0-32.497-26.344-58.842-58.842-58.842-1.841 0-3.662.085-5.46.25-14.642 1.349-27.223-10.324-27.223-25.028h-38.93v143.227h143.227v-4.245c0-5.862-4.752-10.613-10.613-10.613z" fill="#1b1e21"/></g></g><g><g><path d="m385.661 235.252h-9.857c-29.775 0-53.913-24.138-53.913-53.913v-9.857c0-29.775 24.138-53.913 53.913-53.913h9.857c29.775 0 53.913 24.138 53.913 53.913v9.857c0 29.776-24.138 53.913-53.913 53.913z" fill="#4275d1"/></g></g><g><g><path d="m350.267 176.411c0-22.851 13.028-42.652 32.06-52.396 3.17-1.623 2.113-6.436-1.448-6.445-.049 0-.098 0-.147 0-32.497 0-58.842 26.344-58.842 58.842 0 29.119 20.79 52.276 47.044 57.672 6.309 1.297 9.884-6.818 4.744-10.699-14.219-10.739-23.411-27.781-23.411-46.974z" fill="#323b49"/></g></g><g><g><path d="m380.732 227.042c-27.963 0-50.631-22.668-50.631-50.631 0-27.963 22.668-50.631 50.631-50.631 27.963 0 50.631 22.668 50.631 50.631 0 27.962-22.668 50.631-50.631 50.631z" fill="#80b7fc"/></g></g><g><g><path d="m361.656 159.99c0-3.2.297-6.331.865-9.366 1.93-10.309-10.915-16.922-18.204-9.381-8.801 9.105-14.216 21.502-14.216 35.167 0 27.963 22.668 50.631 50.631 50.631 2.658 0 5.268-.205 7.815-.6 10.44-1.619 12.42-15.956 2.804-20.332-17.474-7.95-29.695-25.589-29.695-46.119z" fill="#4275d1"/></g></g><g><g><path d="m249.362 322.627c.006-.34.003-.682-.011-1.026-.357-8.809-7.594-16.067-16.403-16.436-9.811-.411-17.894 7.421-17.894 17.141v.086c.011 4.344-3.508 7.872-7.853 7.872h-9.723c-4.231 0-7.797-3.407-7.718-7.637.006-.339.003-.681-.011-1.025-.357-8.809-7.593-16.067-16.402-16.437-9.812-.412-17.896 7.42-17.896 17.141l.001.309c.01 4.222-3.409 7.649-7.63 7.649h-.922c-4.263 0-7.719-3.456-7.719-7.719v-63.463c0-4.263 3.456-7.719 7.719-7.719h88.517c7.704 0 13.949-6.245 13.949-13.949v-64.05h-110.186v-64.005h-80.024v259.998h380.418v-39.093h-182.494c-4.231 0-7.797-3.407-7.718-7.637z" fill="#323b49"/></g></g><g><g><path d="m87.436 161.358h161.928v77.999h-161.928z" fill="#fff"/></g></g><g><g><path d="m147.274 184.335v-22.977h-59.838v77.999h161.928v-24.732h-71.801c-16.728.001-30.289-13.561-30.289-30.29z" fill="#a2dffd"/></g></g><g><g><path d="m249.365 245.357h-161.928c-3.313 0-6-2.687-6-6v-77.999c0-3.313 2.687-6 6-6h161.929c3.313 0 6 2.687 6 6v77.999c-.001 3.314-2.687 6-6.001 6zm-155.928-12h149.929v-65.999h-149.929z" fill="#82abca"/></g></g><g><g><path d="m87.437 155.358h78.98v12h-78.98z" fill="#4a82ae"/></g></g><g><g><path d="m100.208 264.144h-39.679c-5.927 0-10.731-4.804-10.731-10.731v-105.043c0-5.927 4.804-10.731 10.731-10.731h39.679z" fill="#475770"/></g></g><g><g><circle cx="172.606" cy="310.3" fill="#e04955" r="17.156"/></g></g><g><g><circle cx="232.209" cy="310.3" fill="#ffd508" r="17.156"/></g></g><g><g><path d="m172.606 331.456c-11.666 0-21.156-9.49-21.156-21.156s9.49-21.156 21.156-21.156c11.665 0 21.155 9.49 21.155 21.156s-9.49 21.156-21.155 21.156zm0-34.312c-7.254 0-13.156 5.902-13.156 13.156s5.902 13.156 13.156 13.156 13.155-5.902 13.155-13.156-5.901-13.156-13.155-13.156z" fill="#82abca"/></g></g><g><g><path d="m232.209 331.456c-11.666 0-21.156-9.49-21.156-21.156s9.49-21.156 21.156-21.156 21.156 9.49 21.156 21.156-9.49 21.156-21.156 21.156zm0-34.312c-7.254 0-13.156 5.902-13.156 13.156s5.902 13.156 13.156 13.156 13.156-5.902 13.156-13.156-5.902-13.156-13.156-13.156z" fill="#82abca"/></g></g><g><g><path d="m159.45 310.3h-8c0-11.666 9.49-21.156 21.156-21.156v8c-7.253 0-13.156 5.902-13.156 13.156z" fill="#fff"/></g></g><g><g><path d="m219.053 310.3h-8c0-11.666 9.49-21.156 21.156-21.156v8c-7.254 0-13.156 5.902-13.156 13.156z" fill="#fff"/></g></g><g><g><circle cx="379.127" cy="179.881" fill="#fff" r="15.288"/></g></g><g><g><circle cx="407.867" cy="137.547" fill="#fff" r="22.103"/></g></g><g><g><circle cx="117.364" cy="310.3" fill="#475770" r="17.156"/></g></g><g><g><path d="m117.364 289.144c-.99 0-1.958.092-2.912.225 1.11 2.432 1.517 5.205 1.234 7.895.551-.071 1.109-.119 1.678-.119 7.254 0 13.156 5.902 13.156 13.156s-5.902 13.156-13.156 13.156-13.156-5.902-13.156-13.156c0-.404.025-.802.061-1.197-.51.051-1.037.078-1.581.078-2.45 0-4.544-.547-6.306-1.464-.104.848-.174 1.707-.174 2.583 0 11.666 9.49 21.156 21.156 21.156s21.156-9.49 21.156-21.156-9.49-21.157-21.156-21.157z" fill="#82abca"/></g></g><g><g><path d="m104.208 310.3h-8c0-11.666 9.49-21.156 21.156-21.156v8c-7.254 0-13.156 5.902-13.156 13.156z" fill="#fff"/></g></g></g><g><g><path d="m272.628 268.557v12.993c0 8.871 7.191 16.062 16.062 16.062h184.084c8.871 0 16.062-7.191 16.062-16.062v-12.993z" fill="#1b1e21"/></g></g><g><g><path d="m291.73 87.016v197.499h179.576c9.682 0 17.531-7.849 17.531-17.531v-179.968z" fill="#4a82ae"/></g></g><g><g><path d="m469.191 264.869-124.081-50.822-52.837-126.095h176.918z" fill="#82abca"/></g></g><g><g><path d="m469.191 264.869h-176.918v-176.917z" fill="#475770"/></g></g><g><g><path d="m309.119 104.797h143.227v143.227h-143.227z" fill="#323b49"/></g></g><g><g><path d="m441.219 233.166c-8.201 0-13.177-8.831-9.157-15.979 4.782-8.505 7.512-18.317 7.512-28.77 0-32.497-26.344-58.842-58.842-58.842-1.841 0-3.662.085-5.46.25-14.642 1.349-27.223-10.324-27.223-25.028h-38.93v143.227h143.227v-4.245c0-5.862-4.752-10.613-10.613-10.613z" fill="#1b1e21"/></g></g><g><g><path d="m380.732 117.569c-.04 0-.08 0-.12 0-6.438.013-11.598 5.359-11.598 11.797v104.716c3.787.765 7.705 1.17 11.718 1.17 32.497 0 58.842-26.344 58.842-58.841 0-32.498-26.345-58.842-58.842-58.842z" fill="#d7e4ee"/></g></g><g><g><path d="m350.267 176.411c0-22.851 13.028-42.652 32.06-52.396 3.17-1.623 2.113-6.436-1.448-6.445-.049 0-.098 0-.147 0-32.497 0-58.842 26.344-58.842 58.842 0 29.119 20.79 52.276 47.044 57.672 6.309 1.297 9.884-6.818 4.744-10.699-14.219-10.739-23.411-27.781-23.411-46.974z" fill="#4a82ae"/></g></g><g><g><path d="m380.732 125.779c-14.888 0-28.275 6.426-37.54 16.656l42.983 84.318c25.403-2.715 45.188-24.218 45.188-50.342 0-27.963-22.668-50.632-50.631-50.632z" fill="#475770"/></g><g><path d="" fill="#80b7fc"/></g></g><g><g><path d="m361.656 159.99c0-3.2.297-6.331.865-9.366 1.93-10.309-10.915-16.922-18.204-9.381-8.801 9.105-14.216 21.502-14.216 35.167 0 27.963 22.668 50.631 50.631 50.631 2.658 0 5.268-.205 7.815-.6 10.44-1.619 12.42-15.956 2.804-20.332-17.474-7.95-29.695-25.589-29.695-46.119z" fill="#1b1e21"/></g></g><g><g><circle cx="379.127" cy="179.881" fill="#fff" r="15.288"/></g></g><g><g><circle cx="407.867" cy="137.547" fill="#fff" r="22.103"/></g></g><g><g><path d="m292.273 105.482c0-9.682 7.849-17.531 17.531-17.531h179.033v-2.115c0-9.682-7.849-17.531-17.531-17.531h-181.148c-9.682 0-17.531 7.849-17.531 17.531v181.148c0 9.682 7.849 17.531 17.531 17.531h2.115z" fill="#fff"/></g></g><g><g><path d="m379.231 310.3h60.343v30.25h-60.343z" fill="#82abca"/></g></g><g><g><path d="m380.732 310.3h-28.737v40.811h87.578v-12.688h-30.718c-15.531 0-28.123-12.591-28.123-28.123z" fill="#4a82ae"/></g></g></g></g></svg>