<svg id="icons"  enable-background="new 0 0 64 64" height="46" viewBox="0 0 64 64" width="46" xmlns="http://www.w3.org/2000/svg"><path d="m24 4.5c.55 0 1 .451 1 1v2c0 .551-.45 1-1 1h-12c-.55 0-1-.449-1-1v-2c0-.549.45-1 1-1z" fill="#545c66"/><path d="m34 7.5c.55 0 1 .45 1 1v4c0 .55-.45 1-1 1h-32c-.55 0-1-.45-1-1v-4c0-.55.45-1 1-1h8 2 12 2z" fill="#656d78"/><path d="m2 13.5h32v40h-32z" fill="#ffce54"/><circle cx="18" cy="29.5" fill="#ffce54" r="4"/><path d="m18 21.5c4.41 0 8 3.58 8 8 0 4.41-3.59 8-8 8s-8-3.59-8-8c0-4.42 3.59-8 8-8zm4 8c0-2.21-1.79-4-4-4s-4 1.79-4 4 1.79 4 4 4 4-1.79 4-4z" fill="#ed5565"/><path d="m34 53.5c.55 0 1 .45 1 1v4c0 .55-.45 1-1 1h-32c-.55 0-1-.45-1-1v-4c0-.55.45-1 1-1z" fill="#656d78"/><path d="m37 16.5v4h3v-4zm0 34h3v-4h-3zm6-34v4h3v-4zm0 34h3v-4h-3zm6-34v4h3v-4zm6 0v4h3v-4zm-20-3h26c1.1 0 2 .89 2 2v24c0 1.11-.89 2-2 2-5.53 0-10 4.47-10 10 0 1.11-.89 2-2 2h-.01-13.99-1v-40z" fill="#545c66"/><g fill="#f6bb42"><path d="m26.99 42.496h-18c-.553 0-1-.447-1-1s.447-1 1-1h18c.553 0 1 .447 1 1s-.447 1-1 1z"/><path d="m21.99 45.496h-8c-.553 0-1-.447-1-1s.447-1 1-1h8c.553 0 1 .447 1 1s-.447 1-1 1z"/></g></svg>