<svg height="46" viewBox="-6 0 512 512" width="46" xmlns="http://www.w3.org/2000/svg"><path d="m500.757812 261.621094c0 138.28125-112.097656 250.378906-250.378906 250.378906s-250.378906-112.097656-250.378906-250.378906 112.097656-250.378906 250.378906-250.378906 250.378906 112.097656 250.378906 250.378906zm0 0" fill="#ffdf8e"/><path d="m428.199219 333.15625v63.363281c0 5.644531 4.574219 10.21875 10.21875 10.21875h16.019531c-5.058594 7.101563-10.46875 13.917969-16.222656 20.4375h-61.113282c-5.644531 0-10.21875 4.578125-10.21875 10.222657v45.902343c-6.644531 3.5-13.460937 6.707031-20.441406 9.609375v-55.511718c0-5.644532-4.574218-10.222657-10.21875-10.222657h-273.65625c-5.753906-6.519531-11.183594-13.335937-16.246094-20.4375h351.21875c5.644532 0 10.222657-4.574219 10.222657-10.21875v-63.363281c0-5.644531-4.578125-10.21875-10.222657-10.21875h-389.972656c-1.691406-6.707031-3.105468-13.527344-4.242187-20.4375h494.113281c-1.132812 6.910156-2.554688 13.730469-4.242188 20.4375h-54.777343c-5.644531 0-10.21875 4.574219-10.21875 10.21875zm64.472656-134.898438h-401.71875c-5.644531 0-10.21875-4.574218-10.21875-10.21875v-63.359374c0-5.644532 4.574219-10.21875 10.21875-10.21875h361.992187c-5.167968-7.105469-10.695312-13.929688-16.566406-20.441407h-273.886718c-5.644532 0-10.222657-4.574219-10.222657-10.21875v-52.609375c-6.980469 2.980469-13.796875 6.261719-20.4375 9.835938v42.773437c0 5.644531-4.574219 10.21875-10.21875 10.21875h-57.25c-5.871093 6.511719-11.402343 13.335938-16.574219 20.441407h2.285157c5.644531 0 10.222656 4.574218 10.222656 10.21875v63.359374c0 5.644532-4.578125 10.21875-10.222656 10.21875h-41.988281c-1.746094 6.707032-3.226563 13.527344-4.421876 20.441407h493.429688c-1.195312-6.914063-2.671875-13.734375-4.421875-20.441407zm0 0" fill="#f7c37d"/><path d="m182.929688 352.574219v-337.246094c0-8.464844 6.863281-15.328125 15.328124-15.328125h245.269532c8.46875 0 15.332031 6.863281 15.332031 15.328125v337.246094c0 8.464843-6.863281 15.328125-15.332031 15.328125h-245.269532c-8.464843 0-15.328124-6.863282-15.328124-15.328125zm0 0" fill="#fd5757"/><path d="m203.371094 352.574219v-337.246094c0-8.464844 6.863281-15.328125 15.328125-15.328125h224.828125c8.46875 0 15.332031 6.863281 15.332031 15.328125v337.246094c0 8.464843-6.863281 15.328125-15.332031 15.328125h-224.828125c-8.464844 0-15.328125-6.863282-15.328125-15.328125zm0 0" fill="#fd7a7a"/><path d="m223.808594 315.859375v-269.871094c0-2.820312 2.289062-5.109375 5.109375-5.109375h183.953125c2.820312 0 5.109375 2.289063 5.109375 5.109375v269.871094c0 2.824219-2.289063 5.109375-5.109375 5.109375h-183.953125c-2.820313 0-5.109375-2.285156-5.109375-5.109375zm0 0" fill="#fff5f5"/><path d="m254.46875 281.039062v-204.390624c0-2.824219 2.285156-5.113282 5.109375-5.113282h122.632813c2.820312 0 5.109374 2.289063 5.109374 5.113282v204.390624c0 2.820313-2.289062 5.109376-5.109374 5.109376h-122.632813c-2.824219 0-5.109375-2.289063-5.109375-5.109376zm0 0" fill="#8ed0e1"/><path d="m274.90625 281.039062v-176.289062c0-2.820312 2.289062-5.109375 5.109375-5.109375h81.757813c2.820312 0 5.109374 2.289063 5.109374 5.109375v181.398438h-86.867187c-2.820313 0-5.109375-2.289063-5.109375-5.109376zm0 0" fill="#8279c0"/><path d="m371.992188 97.085938v5.109374c0 2.820313-2.289063 5.109376-5.109376 5.109376h-91.976562c-2.820312 0-5.109375-2.289063-5.109375-5.109376v-5.109374c0-2.820313 2.289063-5.109376 5.109375-5.109376h91.976562c2.820313 0 5.109376 2.289063 5.109376 5.109376zm-71.535157 25.546874h-5.113281c-2.820312 0-5.109375 2.289063-5.109375 5.113282v20.4375c0 2.820312 2.289063 5.109375 5.109375 5.109375h5.113281c2.820313 0 5.109375-2.289063 5.109375-5.109375v-20.4375c0-2.824219-2.289062-5.113282-5.109375-5.113282zm0 81.757813h-5.113281c-2.820312 0-5.109375 2.289063-5.109375 5.109375v20.441406c0 2.820313 2.289063 5.109375 5.109375 5.109375h5.113281c2.820313 0 5.109375-2.289062 5.109375-5.109375v-20.441406c0-2.820312-2.289062-5.109375-5.109375-5.109375zm0-40.878906h-5.113281c-2.820312 0-5.109375 2.289062-5.109375 5.109375v20.441406c0 2.820312 2.289063 5.109375 5.109375 5.109375h5.113281c2.820313 0 5.109375-2.289063 5.109375-5.109375v-20.441406c0-2.820313-2.289062-5.109375-5.109375-5.109375zm45.984375 40.878906h-5.109375c-2.820312 0-5.109375 2.289063-5.109375 5.109375v20.441406c0 2.820313 2.289063 5.109375 5.109375 5.109375h5.109375c2.824219 0 5.113282-2.289062 5.113282-5.109375v-20.441406c0-2.820312-2.289063-5.109375-5.113282-5.109375zm-22.992187 40.878906h-5.109375c-2.820313 0-5.109375 2.289063-5.109375 5.109375v20.441406c0 2.820313 2.289062 5.109376 5.109375 5.109376h5.109375c2.820312 0 5.109375-2.289063 5.109375-5.109376v-20.441406c0-2.820312-2.289063-5.109375-5.109375-5.109375zm0-81.757812h-5.109375c-2.820313 0-5.109375 2.289062-5.109375 5.109375v20.441406c0 2.820312 2.289062 5.109375 5.109375 5.109375h5.109375c2.820312 0 5.109375-2.289063 5.109375-5.109375v-20.441406c0-2.820313-2.289063-5.109375-5.109375-5.109375zm0 0" fill="#6e61b5"/><path d="m351.554688 127.746094v20.4375c0 2.820312-2.289063 5.109375-5.113282 5.109375h-5.109375c-2.820312 0-5.109375-2.289063-5.109375-5.109375v-20.4375c0-2.824219 2.289063-5.113282 5.109375-5.113282h5.109375c2.824219 0 5.113282 2.289063 5.113282 5.113282zm-28.105469 76.644531h-5.109375c-2.820313 0-5.109375 2.289063-5.109375 5.109375v20.441406c0 2.820313 2.289062 5.109375 5.109375 5.109375h5.109375c2.820312 0 5.109375-2.289062 5.109375-5.109375v-20.441406c0-2.820312-2.289063-5.109375-5.109375-5.109375zm0 0" fill="#ffdf8e"/><path d="m336.222656 189.0625v-20.441406c0-2.820313 2.289063-5.109375 5.109375-5.109375h5.109375c2.824219 0 5.113282 2.289062 5.113282 5.109375v20.441406c0 2.820312-2.289063 5.109375-5.113282 5.109375h-5.109375c-2.820312 0-5.109375-2.289063-5.109375-5.109375zm-17.882812-35.769531h5.109375c2.820312 0 5.109375-2.289063 5.109375-5.109375v-20.4375c0-2.824219-2.289063-5.113282-5.109375-5.113282h-5.109375c-2.820313 0-5.109375 2.289063-5.109375 5.113282v20.4375c0 2.820312 2.289062 5.109375 5.109375 5.109375zm22.992187 122.636719h5.109375c2.824219 0 5.113282-2.289063 5.113282-5.109376v-20.441406c0-2.820312-2.289063-5.109375-5.113282-5.109375h-5.109375c-2.820312 0-5.109375 2.289063-5.109375 5.109375v20.441406c0 2.820313 2.289063 5.109376 5.109375 5.109376zm0 0" fill="#fdb44c"/><path d="m307.277344 157.277344h-32.625c-4.546875 0-8.226563 3.683594-8.226563 8.226562 0 4.546875-3.683593 8.230469-8.230469 8.230469h-3.726562v-32.910156h53.089844c4.722656 0 8.519531 3.984375 8.207031 8.777343-.28125 4.371094-4.109375 7.675782-8.488281 7.675782zm61.851562-40.875h-32.90625c-4.542968 0-8.226562 3.679687-8.226562 8.226562 0 4.542969 3.683594 8.226563 8.226562 8.226563h32.90625c4.546875 0 8.226563-3.683594 8.226563-8.226563 0-4.546875-3.679688-8.226562-8.226563-8.226562zm-.253906 108.429687h-65.304688c-4.542968 0-8.226562 3.679688-8.226562 8.226563 0 4.542968 3.683594 8.226562 8.226562 8.226562h65.304688c4.542969 0 8.226562-3.683594 8.226562-8.226562 0-4.546875-3.683593-8.226563-8.226562-8.226563zm0 0" fill="#ececf1"/><path d="m75.617188 418.894531c0 8.082031-10.0625 11.820313-15.328126 5.6875-7.410156-8.628906-14.238281-17.769531-20.433593-27.367187v-167.273438c0-8.46875 6.863281-15.332031 15.332031-15.332031h43.277344c-12.613282 0-22.839844 10.226563-22.839844 22.84375zm0 0" fill="#22b27f"/><path d="m75.625 214.609375h224.832031c8.464844 0 15.328125 6.863281 15.328125 15.332031v273.410156c-20.851562 5.628907-42.773437 8.648438-65.40625 8.648438-47.519531 0-91.945312-13.234375-129.792968-36.222656-6.789063-4.121094-33.4375-24.09375-39.851563-30.003906-7.21875-6.652344-14.042969-13.726563-20.4375-21.179688v-194.652344c0-8.46875 6.863281-15.332031 15.328125-15.332031zm0 0" fill="#57bd91"/><path d="m80.734375 265.140625c0-2.820313 2.289063-5.109375 5.109375-5.109375h183.953125c2.820313 0 5.109375 2.289062 5.109375 5.109375v205.527344c0 2.820312-2.289062 5.109375-5.109375 5.109375h-149.210937c-14.621094-8.425782-27.90625-18.644532-39.851563-30.003906zm0 0" fill="#fff5f5"/><path d="m111.394531 439.441406v-143.074218c0-2.820313 2.285157-5.109376 5.109375-5.109376h122.632813c2.824219 0 5.109375 2.289063 5.109375 5.109376v143.074218c0 2.820313-2.285156 5.109375-5.109375 5.109375h-122.632813c-2.824218 0-5.109375-2.289062-5.109375-5.109375zm0 0" fill="#b0dde9"/><path d="m159.324219 313.554688c10.816406 10.816406 14.628906 25.867187 11.335937 39.265624-13.402344 3.296876-28.453125-.519531-39.265625-11.332031-10.816406-10.8125-14.628906-25.867187-11.335937-39.265625 13.402344-3.292968 28.453125.519532 39.265625 11.332032zm57.710937 27.453124c8.835938-8.835937 11.953125-21.136718 9.261719-32.082031-10.949219-2.695312-23.25.421875-32.082031 9.257813-8.835938 8.835937-11.953125 21.136718-9.261719 32.082031 10.949219 2.695313 23.25-.421875 32.082031-9.257813zm4.515625 49.59375c-10.816406-10.8125-25.867187-14.625-39.265625-11.332031-3.296875 13.402344.519532 28.453125 11.332032 39.265625s25.867187 14.628906 39.265624 11.332032c3.292969-13.398438-.519531-28.449219-11.332031-39.265626zm-85.648437.484376c-8.832032 8.832031-11.949219 21.132812-9.257813 32.082031 10.949219 2.691406 23.246094-.425781 32.082031-9.261719 8.835938-8.832031 11.953126-21.132812 9.261719-32.082031-10.949219-2.691407-23.25.425781-32.085937 9.261719zm0 0" fill="#7ac9a5"/><path d="m215.671875 381.667969c9.976563 9.976562 4.933594 15.714843-1.71875 22.367187s-12.390625 11.699219-22.367187 1.722656c-5.367188-5.367187-10.863282-13.988281-13.765626-21.84375-2.902343 7.855469-8.398437 16.476563-13.765624 21.84375-9.976563 9.976563-15.714844 4.929688-22.367188-1.722656s-11.699219-12.390625-1.722656-22.367187c5.367187-5.367188 13.988281-10.863281 21.84375-13.765625-7.855469-2.902344-16.476563-8.394532-21.84375-13.761719-9.976563-9.980469-4.929688-15.71875 1.722656-22.367187 6.652344-6.652344 12.390625-11.699219 22.367188-1.722657 5.367187 5.367188 10.863281 13.984375 13.765624 21.839844 2.902344-7.855469 8.394532-16.472656 13.765626-21.839844 9.976562-9.976562 15.714843-4.929687 22.367187 1.722657 6.652344 6.648437 11.695313 12.386718 1.71875 22.367187-5.367187 5.363281-13.984375 10.859375-21.839844 13.761719 7.855469 2.902344 16.472657 8.398437 21.839844 13.765625zm0 0" fill="#ea5569"/><path d="m228.917969 367.902344c0 9.410156-.488281 17.035156-14.597657 17.035156-7.589843 0-17.570312-2.207031-25.179687-5.710938 3.503906 7.605469 5.710937 17.585938 5.710937 25.175782 0 14.109375-7.625 14.601562-17.03125 14.601562s-17.03125-.492187-17.03125-14.601562c0-7.589844 2.207032-17.570313 5.710938-25.175782-7.609375 3.5-17.589844 5.710938-25.179688 5.710938-14.109374 0-14.597656-7.625-14.597656-17.035156 0-9.40625.488282-17.03125 14.597656-17.03125 7.589844 0 17.570313 2.207031 25.179688 5.710937-3.503906-7.605469-5.710938-17.585937-5.710938-25.175781 0-14.109375 7.625-14.601562 17.03125-14.601562s17.03125.492187 17.03125 14.601562c0 7.589844-2.207031 17.570312-5.710937 25.175781 7.609375-3.503906 17.589844-5.710937 25.179687-5.710937 14.109376 0 14.597657 7.625 14.597657 17.03125zm0 0" fill="#fd7a7a"/><path d="m194.851562 367.902344c0 9.410156-7.625 17.035156-17.03125 17.035156s-17.03125-7.625-17.03125-17.035156c0-9.40625 7.625-17.03125 17.03125-17.03125s17.03125 7.625 17.03125 17.03125zm0 0" fill="#fdc273"/><path d="m177.820312 350.871094c9.007813 0 16.363282 6.996094 16.972657 15.851562-3.066407 2.980469-7.246094 4.824219-11.863281 4.824219-9.007813 0-16.363282-6.996094-16.972657-15.851563 3.066407-2.980468 7.25-4.824218 11.863281-4.824218zm0 0" fill="#ffdf8e"/></svg>