<svg id="Layer_1" enable-background="new 0 0 510.942 510.942" height="46" viewBox="0 0 510.942 510.942" width="46" xmlns="http://www.w3.org/2000/svg"><g><g><path d="m247.64 7.831c-62.225 0-119.089 22.95-162.59 60.847l5.272 261.894 260.811 149.942c85.085-39.194 144.147-125.221 144.147-225.043 0-136.768-110.872-247.64-247.64-247.64z" fill="#ffd508"/></g><g><path d="m457.797 304.752h-24.1l-63.378-7.052-29.811-3.317h-212.051c-8.134 0-15.519-4.731-18.945-12.108-.09-.194-.18-.389-.27-.583-7.304-15.833 6.901-33.233 23.824-29.032 47.006 11.67 102.693-3.307 126.254-43.277h9.367c5.556 0 10.059-4.504 10.059-10.059v-.763l83.533-5.405 82.987-5.369c.188 2.902 2.736 5.16 5.759 4.816 2.65-.302 4.577-2.687 4.577-5.354v-19.997c0-2.651-1.905-5.023-4.536-5.342-2.998-.364-5.535 1.836-5.787 4.692l-134.413-11.859-32.119-2.834v-.871c0-5.556-4.504-10.059-10.059-10.059h-9.367c-16.48-27.958-52.533-47.357-94.364-47.357-15.503 0-30.212 2.665-43.425 7.442-10.57 3.822-20.704-6.567-16.433-16.964.11-.267.22-.533.33-.799 5.206-12.545-10.131-23.535-20.373-14.614-51.734 45.063-84.572 111.261-85.051 185.145-.895 138.109 109.343 249.18 247.455 249.279 37.013.026 72.13-8.07 103.67-22.602 28.232-13.009 18.152-55.252-12.929-54.764-1.318.021-2.638.031-3.961.031-4.482 0-8.936-.119-13.359-.354-36.214-1.925-34.528-56.055 1.737-56.055h17.89l93.189-10.369v-.022h24.1l14.262 1.289c8.6-18.386 15.006-38 18.884-58.51z" fill="#fcb54c"/></g><g><g><g><path d="m109.288 381.435h-57.666c-4.782 0-8.659-3.877-8.659-8.659v-36.907c0-4.782 3.877-8.659 8.659-8.659h57.666c4.782 0 8.659 3.877 8.659 8.659v36.907c-.001 4.782-3.877 8.659-8.659 8.659z" fill="#1b1e21"/></g></g><g><g><path d="m127.918 316.832h208.399v56.566h-208.399z" fill="#475770"/></g></g><g><g><path d="m132.709 335.485v-18.654h-42.388v74.983h245.995v-19.074h-166.353c-20.575 0-37.254-16.68-37.254-37.255z" fill="#323b49"/></g></g><g><g><path d="m364.011 374.602h65.494v-47.402l-65.552-7.294c.026.358.058.717.058 1.077z" fill="#323b49"/></g></g><g><g><path d="m366.128 345.621v-25.472l-29.811-3.317v74.983l93.189-10.369v-17.644l-38.3 4.261c-13.378 1.488-25.078-8.983-25.078-22.442z" fill="#1b1e21"/></g></g><g><g><path d="m336.175 361.589c.084-.612.142-1.232.142-1.867v-10.798c0-7.553-6.123-13.676-13.676-13.676h-92.184v26.34h105.718z" fill="#323b49"/></g></g><g><g><path d="m246.161 360.165c-7.553 0-13.676-6.123-13.676-13.676v-10.798c0-.15.018-.295.022-.443h-15.379c-7.553 0-13.676 6.123-13.676 13.676v10.798c0 7.553 6.123 13.676 13.676 13.676h105.513c7.403 0 13.417-5.887 13.653-13.232h-90.133z" fill="#1b1e21"/></g></g><g><g><path d="m303.72 373.397h-4.528c-9.284 0-16.811-7.526-16.811-16.811v-4.528c0-9.284 7.526-16.811 16.811-16.811h4.528c9.284 0 16.811 7.526 16.811 16.811v4.528c0 9.285-7.526 16.811-16.811 16.811z" fill="#e04955"/></g></g><g><g><path d="m429.505 327.2h24.1v54.224h-24.1z" fill="#82abca"/></g></g><g><g><path d="m481.172 367.753-2.373-.45 32.143-5.59v-39.697l-35.978 3.253v42.484z" fill="#323b49"/></g></g><g><g><path d="m494.326 370.247-15.526-2.944 6.927-1.205c-4.116-3.543-6.607-8.835-6.423-14.59l.852-26.708-14.65 1.325-11.9 1.076v54.224l57.337 5.184v-13.211z" fill="#1b1e21"/></g></g></g><g><g><g><path d="m446.225 204.747v-15.244l-143.17-12.632v27.876z" fill="#fff"/></g></g><g><g><path d="m306.674 177.19-36.723-3.24v47.357l176.275-11.405v-8.352l-114.458.603c-13.838.072-25.094-11.125-25.094-24.963z" fill="#a2dffd"/></g></g><g><path d="m160.765 116.069c-34.693 0-65.415 13.342-84.291 33.844l47.335 82.932 87.159 36.213c32.03-13.895 53.721-40.674 53.721-71.43-.001-45.044-46.529-81.559-103.924-81.559z" fill="#e04955"/></g><g><g><path d="m204.407 241.459c-57.395 0-103.923-36.516-103.923-81.56 0-.118 0-.237.001-.355.069-12.713-15.397-18.982-24.009-9.63-12.353 13.415-19.634 29.897-19.634 47.714 0 45.044 46.528 81.56 103.923 81.56 18.208 0 35.321-3.675 50.202-10.132 14.381-6.24 9.675-27.664-6.001-27.599-.186.002-.373.002-.559.002z" fill="#c40955"/></g></g><g><g><path d="m264.853 231.831h-19.897v-68.405h19.897c5.358 0 9.702 4.344 9.702 9.702v49.002c-.001 5.358-4.344 9.701-9.702 9.701z" fill="#c40955"/></g></g><g><g><path d="m446.225 215.086c-2.863 0-5.184-2.321-5.184-5.184v-20.399c0-2.864 2.321-5.184 5.184-5.184 2.864 0 5.184 2.321 5.184 5.184v20.399c0 2.863-2.321 5.184-5.184 5.184z" fill="#a2dffd"/></g></g></g></g></svg>