<svg id="Layer_1" enable-background="new 0 0 511 511" height="46" viewBox="0 0 511 511" width="46" xmlns="http://www.w3.org/2000/svg"><g><g><g><path d="m511 255.5c0 84.549-41.067 159.505-104.343 206.011-42.329 31.111-92.976 36.12-149.536 36.12-141.109 0-225.761-98.882-225.761-239.991 0-100.783 26.993-190.077 111.756-231.66 33.915-16.638 72.059-25.98 112.384-25.98 141.109 0 255.5 114.391 255.5 255.5z" fill="#d5f1fe"/></g></g><g><path d="m406.654 461.507c23.235-17.075 8.739-53.785-19.924-50.644-.622.068-1.358.134-2.189.198-22.321 1.709-41.361-15.996-41.361-38.382h43.733c6.89 0 12.476-5.586 12.476-12.476v-62.874c0-5.987 4.854-10.841 10.841-10.841 10.28 0 18.613-8.333 18.613-18.613v-26.05-156.644c0-11.501-5.215-22.395-14.204-29.571-.086-.068-.171-.137-.257-.205-6.726-5.356-15.06-8.292-23.658-8.292h-8.011c.662-1.487.577-3.28-.459-4.746-1.457-2.061-4.335-2.535-6.521-1.273l-.079.045c-.752-.989-1.551-1.938-2.393-2.848l.065-.078c1.615-1.925 1.653-4.825-.109-6.618-2.021-2.057-5.322-1.889-7.133.269l-.2.238c-1.04-.671-2.115-1.293-3.221-1.863l.033-.091c.859-2.359-.093-5.095-2.358-6.179-2.601-1.246-5.653.039-6.618 2.689l-.105.289c-1.201-.272-2.423-.486-3.664-.641v-.105c0-2.514-1.838-4.76-4.341-4.998-2.871-.274-5.287 1.977-5.287 4.791v.312c-1.241.156-2.463.37-3.664.641l-.033-.092c-.86-2.363-3.354-3.845-5.788-3.215-2.792.723-4.295 3.666-3.331 6.311l.105.289c-1.106.57-2.18 1.191-3.22 1.863l-.067-.08c-1.616-1.926-4.466-2.464-6.537-1.038-2.376 1.636-2.781 4.913-.971 7.07l.2.238c-.842.91-1.641 1.86-2.393 2.848l-.078-.045c-2.186-1.262-5.064-.789-6.521 1.272-1.036 1.466-1.121 3.259-.459 4.746h-101.443c-2.31 0-4.183-1.873-4.183-4.183v-3.368c0-2.31-1.873-4.183-4.183-4.183-2.31 0-4.183-1.873-4.183-4.183v-.111c0-2.813-2.28-5.093-5.093-5.093h-32.933-12.426c-1.904.934-3.786 1.908-5.664 2.886.005-.009.01-.018.016-.027-1.563.816-6.185 3.311-8.507 4.637v.017c-1.081.617-2.158 1.24-3.229 1.872h-.002c-1.469.866-4.558 2.756-5.134 3.115v.008c-4.403 2.743-8.72 5.612-12.939 8.61h-.033c-14.356 10.208-28.121 22.341-40.163 35.423v.008c-42.853 46.557-68.644 109.06-67.426 177.605 2.471 139.021 116.801 251.058 255.844 250.853 56.246-.083 108.428-18.377 150.769-49.493zm-204.52-175.02h69.86v73.715c0 6.89 5.586 12.476 12.476 12.476h43.734c0 20.703-19.818 35.622-39.728 29.95-41.214-11.74-78.175-33.568-108.046-62.644-20.043-19.508-6.266-53.497 21.704-53.497z" fill="#93dcfc"/></g><g><g><g><path d="m177.374 33.082h-35.039v14.08h40.132v-8.987c0-2.813-2.28-5.093-5.093-5.093z" fill="#e04955"/></g></g><g><g><path d="m144.441 47.162h-26.581v-9.319c0-2.629 2.131-4.761 4.761-4.761h21.821v14.08z" fill="#c40955"/></g></g><g><g><path d="m136.36 42.468h54.473v20.337h-54.473z" fill="#ffd508"/></g></g><g><g><path d="m109.495 42.468h28.373v20.337h-28.373z" fill="#fcb54c"/></g></g><g><g><path d="m372.61 73.318-.301-.053c.03-.617.047-1.237.047-1.861s-.018-1.244-.047-1.861l.301-.053c2.618-.462 4.367-2.959 3.905-5.577-.461-2.618-2.959-4.37-5.577-3.905l-.29.051c-.369-1.193-.795-2.36-1.275-3.499l.256-.148c2.302-1.33 3.091-4.274 1.762-6.576-1.33-2.303-4.274-3.091-6.576-1.762l-.267.154c-.752-.989-1.551-1.938-2.393-2.848l.2-.238c1.709-2.037 1.443-5.073-.593-6.782-2.035-1.708-5.073-1.444-6.782.593l-.2.238c-1.041-.671-2.115-1.293-3.221-1.863l.105-.288c.91-2.498-.379-5.261-2.877-6.17-2.494-.907-5.26.378-6.17 2.877l-.105.289c-1.201-.271-2.423-.486-3.664-.641v-.312c0-2.659-2.155-4.814-4.814-4.814s-4.814 2.155-4.814 4.814v.312c-1.241.156-2.463.37-3.664.641l-.105-.289c-.909-2.498-3.672-3.786-6.17-2.877s-3.787 3.672-2.877 6.17l.105.289c-1.106.57-2.18 1.192-3.22 1.863l-.199-.238c-1.711-2.037-4.748-2.301-6.782-.593-2.036 1.709-2.303 4.745-.593 6.782l.2.238c-.842.91-1.641 1.86-2.393 2.848l-.266-.154c-2.301-1.329-5.246-.54-6.576 1.762-1.329 2.303-.54 5.246 1.762 6.576l.255.148c-.479 1.14-.906 2.307-1.275 3.499l-.29-.051c-2.624-.463-5.115 1.287-5.577 3.905s1.287 5.115 3.905 5.577l.3.053c-.03.617-.047 1.237-.047 1.861s.018 1.244.047 1.861l-.3.053c-2.618.462-4.367 2.959-3.905 5.577.412 2.336 2.442 3.979 4.736 3.979.277 0 .559-.024.841-.074l.29-.051c.369 1.193.796 2.36 1.275 3.5l-.256.148c-2.303 1.33-3.091 4.274-1.762 6.576.892 1.544 2.51 2.408 4.174 2.408.817 0 1.644-.208 2.403-.646l.267-.154c.752.988 1.551 1.938 2.393 2.848l-.2.238c-1.709 2.037-1.443 5.073.593 6.782.902.756 2 1.126 3.092 1.126 1.374 0 2.738-.585 3.69-1.72l.199-.237c1.04.671 2.114 1.293 3.221 1.863l-.105.288c-.91 2.498.379 5.261 2.877 6.17.543.197 1.099.291 1.646.291 1.966 0 3.812-1.214 4.524-3.169l.105-.288c1.201.271 2.423.485 3.664.641v.312c0 2.659 2.155 4.814 4.814 4.814s4.814-2.155 4.814-4.814v-.312c1.241-.156 2.463-.37 3.664-.641l.105.288c.711 1.955 2.557 3.169 4.524 3.169.546 0 1.103-.094 1.646-.291 2.498-.909 3.787-3.672 2.877-6.17l-.105-.288c1.106-.57 2.181-1.192 3.221-1.863l.2.238c.953 1.135 2.316 1.72 3.69 1.72 1.093 0 2.191-.37 3.092-1.126 2.036-1.709 2.302-4.745.593-6.782l-.2-.238c.842-.91 1.641-1.859 2.393-2.848l.267.154c.758.438 1.586.646 2.403.646 1.663 0 3.281-.864 4.174-2.408 1.329-2.303.54-5.246-1.762-6.576l-.256-.148c.479-1.14.906-2.307 1.275-3.5l.29.051c.283.05.564.074.841.074 2.292 0 4.324-1.643 4.736-3.979.459-2.62-1.29-5.117-3.908-5.579z" fill="#4a82ae"/></g></g><g><g><circle cx="334.034" cy="71.404" fill="#1b1e21" r="27.728"/></g></g><g><g><path d="m144.422 250.982h273.315v-178.168c0-10.28-8.333-18.613-18.613-18.613h-255.847v196.843c.381-.029.762-.062 1.145-.062z" fill="#323b49"/></g></g><g><g><path d="m376.62 379.766h-104.071c-6.441 0-11.662-5.221-11.662-11.662v-87.916h127.396v87.916c-.001 6.441-5.222 11.662-11.663 11.662z" fill="#1b1e21"/></g></g><g><g><path d="m387.674 248.913c-10.344 0-16.925-11.23-11.695-20.154 7.483-12.767 11.913-27.539 12.278-43.32 1.146-49.448-38.46-91.034-87.907-92.192-50.745-1.188-92.255 39.592-92.255 90.068 0 12.095 2.387 23.629 6.713 34.163 6.153 14.98-4.607 31.435-20.801 31.435h-29.561c-10.28 0-18.613-8.333-18.613-18.613v-69.714c0-5.765 4.674-10.439 10.439-10.439h8.03v-11.465h-18.469v-84.48h-70.861c-10.28 0-18.613 8.333-18.613 18.613v202.148c0 10.28 8.333 18.613 18.613 18.613h324.151c10.28 0 18.613-8.333 18.613-18.613v-26.05z" fill="#1b1e21"/></g></g><g><g><path d="m56.359 254.371c-12.249 0-22.214-9.965-22.214-22.215 0-12.249 9.965-22.214 22.214-22.214 12.25 0 22.215 9.965 22.215 22.214s-9.965 22.215-22.215 22.215zm0-34.802c-6.94 0-12.587 5.647-12.587 12.587 0 6.941 5.647 12.588 12.587 12.588 6.941 0 12.588-5.647 12.588-12.588-.001-6.941-5.647-12.587-12.588-12.587z" fill="#1b1e21"/></g></g><g><path d="m298.189 82.524c-6.523 0-12.884.693-19.014 2.01l19.014 178.177c49.757 0 90.093-40.336 90.093-90.093.001-49.758-40.336-90.094-90.093-90.094z" fill="#82abca"/></g><g><g><path d="m366.049 183.315c0-42.321-36.892-71.193-74.456-67.607-8.642.825-12.93-10.294-5.957-15.466.19-.141.381-.281.572-.421 7.488-5.464 2.023-17.268-7.036-15.307-39.886 8.634-71.076 44.087-71.076 88.103 0 53.55 46.035 94.213 97.617 89.785 3.207-.275 3.768-4.701.771-5.875-.079-.031-.158-.062-.237-.093-2.92-1.153-2.32-5.43.793-5.834 33.303-4.326 59.009-32.822 59.009-67.285z" fill="#4a82ae"/></g></g><g><path d="m358.014 141.653c-17.692-33.04-58.818-45.482-91.857-27.79l13.016 124.965c16.46 4.807 34.741 3.417 51.052-5.317 33.038-17.692 45.48-58.818 27.789-91.858z" fill="#475770"/></g><g><g><path d="m298.189 226.522c23.654 0 42.637-19.997 40.966-44.008-1.441-20.697-18.532-37.255-39.262-38.093-4.189-.169-8.245.289-12.082 1.289-9.684 2.523-16.577-9.309-9.436-16.319.241-.237.484-.472.729-.705 8.116-7.733-.956-20.938-10.956-15.873-31.535 15.972-49.496 56.091-29.781 92.908 9.476 17.698 25.677 29.479 43.756 33.888 4.184 1.02 6.784-4.445 3.316-6.997-.122-.09-.244-.18-.365-.27-3.449-2.574-.865-8.021 3.314-6.996 3.14.768 6.423 1.176 9.801 1.176z" fill="#323b49"/></g></g><g><g><circle cx="298.189" cy="173.687" fill="#1b1e21" r="41.068"/></g></g><g><g><circle cx="222.382" cy="249.556" fill="#475770" r="25.226"/></g></g><g><g><circle cx="222.382" cy="249.556" fill="#1b1e21" r="12.133"/></g></g><g><g><path d="m158.315 128.257h-63.115c-3.307 0-5.989-2.681-5.989-5.989v-21.988c0-3.307 2.681-5.989 5.989-5.989h63.114c3.307 0 5.989 2.681 5.989 5.989v21.989c0 3.307-2.681 5.988-5.988 5.988z" fill="#1b1e21"/></g></g><g><g><path d="m318.813 190.48h-41.618c-1.674 0-3.031-1.357-3.031-3.031v-27.523c0-1.674 1.357-3.031 3.031-3.031h41.618c1.674 0 3.031 1.357 3.031 3.031v27.523c.001 1.674-1.357 3.031-3.031 3.031z" fill="#e7b74c"/></g></g><g><g><g><path d="m294.789 180.06h-23.514v-5.348h21.332l6.773-6.624h24.931v5.349h-22.75z" fill="#1b1e21"/></g></g></g><g><g><path d="m157.897 83.594h-49.48v33.966h49.48c3.538 0 6.406-2.868 6.406-6.406v-21.154c0-3.538-2.868-6.406-6.406-6.406z" fill="#fff"/></g></g><g><g><path d="m110.607 111.153v-21.153c0-3.538 2.868-6.406 6.406-6.406h-21.395c-3.538 0-6.406 2.868-6.406 6.406v21.153c0 3.538 2.868 6.406 6.406 6.406h21.395c-3.538.001-6.406-2.868-6.406-6.406z" fill="#a2dffd"/></g></g><g><g><path d="m89.212 127.984h75.091v11.465h-75.091z" fill="#475770"/></g></g><g><g><circle cx="198.715" cy="100.346" fill="#e04955" r="9.381"/></g></g><g><g><path d="m313.812 333.485c.381-.029.762-.062 1.144-.062h44.523v-39.847h-45.748c.049.494.081.989.081 1.487z" fill="#ffd508"/></g></g><g><g><path d="m325.97 331.517c-5.188 0-9.395-4.206-9.395-9.395v-28.547h-27.433v46.191c0 5.188 4.206 9.395 9.395 9.395h51.548c5.188 0 9.395-4.206 9.395-9.395v-8.25h-33.51z" fill="#fcb54c"/></g></g><g><path d="m361.153 462.038c-16.035 0-29.08-13.046-29.08-29.081v-83.795h-14.977v83.795c0 24.293 19.764 44.058 44.057 44.058h21.752c7.95-4.582 15.621-9.593 23.002-14.977z" fill="#e04955"/></g></g></g></svg>