<svg id="Layer_1" enable-background="new 0 0 511 511" height="46" viewBox="0 0 511 511" width="46" xmlns="http://www.w3.org/2000/svg"><g><g><path d="m511 255.5c0 32.425-6.04 63.44-17.057 91.98-36.926 95.661-129.76 132.209-238.443 132.209-141.109 0-232.274-83.08-232.274-224.189 0-113.688 51.028-210.034 153.683-243.185 24.759-7.995 51.171-12.315 78.591-12.315 141.109 0 255.5 114.391 255.5 255.5z" fill="#e04955"/></g><g><g><path d="m493.928 253.331c0-41.185-33.387-74.571-74.571-74.571-41.185 0-74.571-33.387-74.571-74.571 0-50.73-41.125-91.855-91.855-91.855h-76.016c-53.867 17.396-99.351 52.051-130.414 96.181v.008c-29.292 41.565-46.5 92.257-46.501 146.974-.002 141.173 115.131 255.937 256.304 255.502 46.059-.142 89.235-12.491 126.499-33.954h.051c20.269-11.673 39.635-26.633 56.66-44.307-.004.001-.009.003-.013.004 23.409-24.301 42.058-53.221 54.428-85.267v-94.144zm-298.285 131.059c-16.662-14.15-31.488-30.395-44.065-48.333-7.508-10.708.156-25.439 13.234-25.439h30.831z" fill="#c40955"/></g></g><g><g><path d="m321.511 301.109v-277.964h-172.389c-14.613 6.701-28.475 14.752-41.449 23.972v253.992z" fill="#475770"/></g><g><path d="m117.07 205.078v-108.915l-70.571 12.358c-8.929 12.675-16.735 26.2-23.273 40.428v172.481h298.285v-51.51h-139.599c-35.812 0-64.842-29.03-64.842-64.842z" fill="#323b49"/></g><g><path d="m272.297 46.419-189.157 125.868-36.639 99.928c0 14.326 11.614 25.94 25.94 25.94h199.857c14.326 0 25.94-11.614 25.94-25.94v-199.856c-.002-14.326-11.615-25.94-25.941-25.94z" fill="#e7b74c"/></g><g><path d="m264.467 189.571h206.187v247.249h-206.187z" fill="#4a82ae"/></g><g><path d="m267.441 433.566v-243.995h-95.073v298.285h298.286v-54.29z" fill="#475770"/></g><g><path d="m421.439 212.845-196.03 109.971-29.766 115.825c0 14.326 11.614 25.94 25.94 25.94h199.857c14.326 0 25.94-11.614 25.94-25.94v-199.856c-.001-14.326-11.615-25.94-25.941-25.94z" fill="#fff"/></g><g><path d="m272.297 46.419h-163.665c-24.11 16.967-45.151 37.996-62.131 62.095v163.701c0 4.227 1.017 8.213 2.81 11.739.656-.439 1.314-.894 1.976-1.368 41.387-29.621 12.746-69.637 54.133-99.258 41.388-29.622 70.028 10.394 111.416-19.227 41.389-29.623 12.749-69.64 54.139-99.263 7.198-5.152 14.01-8.194 20.571-9.866-4.747-5.251-11.613-8.553-19.249-8.553z" fill="#df8b36"/></g><g><path d="m444.748 227.397c-4.218-8.616-13.069-14.551-23.309-14.551h-199.856c-14.326 0-25.94 11.614-25.94 25.94v199.857c0 7.11 2.863 13.55 7.496 18.236 1.261-.79 2.533-1.641 3.818-2.561 41.387-29.621 12.746-69.637 54.133-99.258 41.388-29.622 70.028 10.394 111.416-19.227 41.39-29.623 12.749-69.639 54.139-99.263 6.3-4.511 12.304-7.4 18.103-9.173z" fill="#a2dffd"/></g></g></g></svg>