<svg height="46" viewBox="-6 0 512 512" width="46" xmlns="http://www.w3.org/2000/svg"><path d="m500.757812 261.621094c0 138.28125-112.097656 250.378906-250.378906 250.378906s-250.378906-112.097656-250.378906-250.378906 112.097656-250.378906 250.378906-250.378906 250.378906 112.097656 250.378906 250.378906zm0 0" fill="#fde0b8"/><path d="m393.457031 467.117188c-12.8125 8.941406-26.5 16.707031-40.910156 23.15625l-78.664063-136.242188v156.878906c-7.738281.722656-15.574218 1.089844-23.503906 1.089844-7.929687 0-15.765625-.367188-23.503906-1.089844v-156.878906l-78.660156 136.246094c-14.414063-6.449219-28.101563-14.21875-40.914063-23.160156l82.355469-142.644532c4.234375-7.328125 117.214844-7.328125 121.445312 0zm0 0" fill="#babac0"/><path d="m273.882812 350.53125v124.679688c0 8.464843-6.863281 15.328124-15.328124 15.328124-8.464844 0-15.328126-6.863281-15.328126-15.328124v-124.679688c0-8.464844 6.863282-15.328125 15.328126-15.328125 8.464843 0 15.328124 6.863281 15.328124 15.328125zm-49.125-23.492188c-7.332031-4.234374-16.707031-1.722656-20.941406 5.609376l-62.339844 107.976562c-4.230468 7.328125-1.71875 16.707031 5.613282 20.9375 7.328125 4.234375 16.707031 1.722656 20.9375-5.609375l62.339844-107.976563c4.234374-7.328124 1.722656-16.707031-5.609376-20.9375zm148.683594 105.410157-62.339844-107.976563c-4.230468-7.328125-13.605468-9.84375-20.9375-5.609375-7.332031 4.234375-9.84375 13.609375-5.613281 20.941407l62.339844 107.972656c4.234375 7.332031 13.609375 9.84375 20.941406 5.613281 7.332031-4.234375 9.84375-13.609375 5.609375-20.941406zm0 0" fill="#d3d3d8"/><path d="m199.773438 415.277344-15.328126 26.550781c-1.414062 2.445313-4.539062 3.28125-6.980468 1.871094l-44.253906-25.546875c-2.441407-1.414063-3.28125-4.539063-1.871094-6.980469l15.332031-26.550781c1.410156-2.445313 4.535156-3.285156 6.980469-1.871094l44.25 25.546875c2.445312 1.414063 3.28125 4.539063 1.871094 6.980469zm76.15625 3.726562h-51.097657c-2.824219 0-5.113281 2.285156-5.113281 5.109375v30.65625c0 2.824219 2.289062 5.109375 5.113281 5.109375h51.097657c2.820312 0 5.109374-2.285156 5.109374-5.109375v-30.65625c0-2.824219-2.289062-5.109375-5.109374-5.109375zm93.488281-7.832031-15.328125-26.550781c-1.414063-2.445313-4.539063-3.285156-6.980469-1.871094l-44.253906 25.546875c-2.441407 1.414063-3.28125 4.539063-1.867188 6.980469l15.328125 26.550781c1.410156 2.445313 4.535156 3.28125 6.980469 1.871094l44.25-25.546875c2.445313-1.410156 3.28125-4.535156 1.871094-6.980469zm0 0" fill="#968dca"/><path d="m281.039062 424.113281v30.65625c0 2.824219-2.289062 5.109375-5.109374 5.109375h-36.792969c-2.820313 0-5.109375-2.285156-5.109375-5.109375v-30.65625c0-2.824219 2.289062-5.109375 5.109375-5.109375h36.792969c2.820312 0 5.109374 2.285156 5.109374 5.109375zm-83.136718-15.816406-31.859375-18.394531c-2.445313-1.410156-5.570313-.574219-6.980469 1.871094l-15.332031 26.550781c-1.410157 2.445312-.570313 5.570312 1.871093 6.980469l31.863282 18.394531c2.441406 1.410156 5.566406.574219 6.980468-1.871094l15.328126-26.550781c1.410156-2.441406.574218-5.566406-1.871094-6.980469zm171.515625 2.875-15.328125-26.550781c-1.414063-2.445313-4.539063-3.285156-6.980469-1.871094l-31.863281 18.394531c-2.441406 1.410157-3.28125 4.535157-1.871094 6.980469l15.332031 26.550781c1.410157 2.445313 4.535157 3.28125 6.980469 1.871094l31.859375-18.394531c2.445313-1.410156 3.28125-4.535156 1.871094-6.980469zm0 0" fill="#aba4d5"/><path d="m407.761719 327.027344c0 5.644531-4.578125 10.21875-10.222657 10.21875h-84.820312c-5.644531 0-10.21875-4.574219-10.21875-10.21875 0-5.644532 4.574219-10.222656 10.21875-10.222656h84.820312c5.644532 0 10.222657 4.578124 10.222657 10.222656zm0 0" fill="#6354b0"/><path d="m320.894531 347.464844h-141.03125c-8.464843 0-15.328125-6.863282-15.328125-15.328125v-10.21875c0-8.46875 6.863282-15.332031 15.328125-15.332031h141.03125c8.464844 0 15.328125 6.863281 15.328125 15.332031v10.21875c0 8.464843-6.863281 15.328125-15.328125 15.328125zm107.304688-15.328125v-10.21875c0-8.46875-6.863281-15.332031-15.328125-15.332031h-38.835938c-8.464844 0-15.328125 6.863281-15.328125 15.332031v10.21875c0 8.464843 6.863281 15.328125 15.328125 15.328125h38.835938c8.464844 0 15.328125-6.863282 15.328125-15.328125zm0 0" fill="#8279c0"/><path d="m336.222656 316.804688c0 5.644531-4.574218 10.222656-10.21875 10.222656h-122.632812c-5.644532 0-10.222656-4.578125-10.222656-10.222656 0-5.640626 4.578124-10.21875 10.222656-10.21875h20.4375v-23.503907c0-8.464843 6.863281-15.328125 15.328125-15.328125h22.484375c8.464844 0 15.328125 6.863282 15.328125 15.328125v23.503907h49.054687c5.644532 0 10.21875 4.578124 10.21875 10.21875zm51.097656 0c0 5.644531 4.578126 10.222656 10.21875 10.222656h20.441407c4.851562 0 8.90625-3.386719 9.949219-7.921875-1.320313-7.121094-7.554688-12.519531-15.058594-12.519531h-15.332032c-5.640624 0-10.21875 4.578124-10.21875 10.21875zm0 0" fill="#968dca"/><path d="m282.058594 286.148438h-63.359375c-8.464844 0-15.328125-6.863282-15.328125-15.328126v-20.441406c0-8.464844 6.863281-15.328125 15.328125-15.328125h63.359375c8.46875 0 15.332031 6.863281 15.332031 15.328125v20.441406c0 8.464844-6.863281 15.328126-15.332031 15.328126zm0 0" fill="#463b83"/><path d="m147.160156 61.316406h-14.644531c-8.46875 0-15.332031-6.863281-15.332031-15.328125v-20.4375c0-8.46875 6.863281-15.332031 15.332031-15.332031h14.644531c8.46875 0 15.332032 6.863281 15.332032 15.332031v20.4375c0 8.464844-6.863282 15.328125-15.332032 15.328125zm0 0" fill="#8279c0"/><path d="m147.160156 61.316406c-8.464844 0-15.328125-6.863281-15.328125-15.328125v-20.4375c0-8.46875 6.863281-15.332031 15.328125-15.332031 8.46875 0 15.332032 6.863281 15.332032 15.332031v20.4375c0 8.464844-6.863282 15.328125-15.332032 15.328125zm0 0" fill="#968dca"/><path d="m386.554688 214.609375c8.464843 0 15.328124 6.863281 15.328124 15.332031v20.4375c0 8.464844-6.863281 15.328125-15.328124 15.328125h-272.351563c-8.464844 0-15.328125-6.863281-15.328125-15.328125v-20.4375c0-8.46875 6.863281-15.332031 15.328125-15.332031-8.464844 0-15.328125-6.863281-15.328125-15.328125v-153.292969c0-8.464843 6.863281-15.328125 15.328125-15.328125h272.351563c8.464843 0 15.328124 6.863282 15.328124 15.328125v153.292969c0 8.464844-6.863281 15.328125-15.328124 15.328125zm0 0" fill="#6354b0"/><path d="m401.882812 45.988281v122.632813c0 8.46875-6.863281 15.332031-15.328124 15.332031h-226.875c-8.464844 0-15.328126-6.863281-15.328126-15.332031v-122.632813c0-8.464843 6.863282-15.328125 15.328126-15.328125h23.25v-15.332031c0-8.464844 6.863281-15.328125 15.328124-15.328125h104.242188c8.464844 0 15.328125 6.863281 15.328125 15.328125v15.332031h68.726563c8.464843 0 15.328124 6.863282 15.328124 15.328125zm-15.328124 168.621094h-222.273438c-8.46875 0-15.332031 6.863281-15.332031 15.332031v20.4375c0 8.464844 6.863281 15.328125 15.332031 15.328125h222.273438c8.464843 0 15.328124-6.863281 15.328124-15.328125v-20.4375c0-8.46875-6.863281-15.332031-15.328124-15.332031zm0 0" fill="#8279c0"/><path d="m366.882812 71.535156h-10.21875c-5.644531 0-10.222656-4.574218-10.222656-10.21875 0-5.644531 4.578125-10.21875 10.222656-10.21875h10.21875c5.644532 0 10.21875 4.574219 10.21875 10.21875 0 5.644532-4.574218 10.21875-10.21875 10.21875zm0 0" fill="#463b83"/><path d="m276.949219 30.660156h-53.140625c-5.644532 0-10.21875-4.578125-10.21875-10.222656s4.574218-10.21875 10.21875-10.21875h53.140625c5.644531 0 10.21875 4.574219 10.21875 10.21875s-4.574219 10.222656-10.21875 10.222656zm0 0" fill="#aba4d5"/><path d="m276.949219 30.660156h-32.703125c-5.644532 0-10.21875-4.578125-10.21875-10.222656s4.574218-10.21875 10.21875-10.21875h32.703125c5.644531 0 10.21875 4.574219 10.21875 10.21875s-4.574219 10.222656-10.21875 10.222656zm0 0" fill="#c1bbdf"/><path d="m332.136719 122.632812c0 45.15625-36.605469 81.757813-81.757813 81.757813s-81.757812-36.601563-81.757812-81.757813c0-45.152343 36.605468-81.753906 81.757812-81.753906s81.757813 36.601563 81.757813 81.753906zm0 0" fill="#968dca"/><path d="m311.039062 122.632812c0 33.503907-27.160156 60.660157-60.660156 60.660157s-60.65625-27.15625-60.65625-60.660157c0-33.5 27.15625-60.65625 60.65625-60.65625s60.660156 27.15625 60.660156 60.65625zm0 0" fill="#8ed0e1"/><path d="m311.039062 122.632812c0 11.339844-3.117187 21.953126-8.53125 31.03125-9.078124 5.414063-19.691406 8.53125-31.027343 8.53125-33.503907 0-60.660157-27.160156-60.660157-60.660156 0-11.339844 3.113282-21.949218 8.53125-31.027344 9.078126-5.417968 19.6875-8.53125 31.027344-8.53125 33.5 0 60.660156 27.15625 60.660156 60.65625zm0 0" fill="#b0dde9"/><path d="m268.839844 84.128906c8.742187 0 15.824218 7.085938 15.824218 15.824219 0 8.742187-7.082031 15.824219-15.824218 15.824219-8.738282 0-15.824219-7.082032-15.824219-15.824219 0-8.738281 7.085937-15.824219 15.824219-15.824219zm0 0" fill="#ececf1"/></svg>