<svg id="Layer_1" enable-background="new 0 0 510.145 510.145" height="46" viewBox="0 0 510.145 510.145" width="46" xmlns="http://www.w3.org/2000/svg"><g><g><path d="m498.077 243.005c0 76.59-35.433 144.904-90.8 189.445-41.652 33.507-94.587 44.403-152.205 44.403-134.208 0-235.883-99.64-235.883-233.848 0-36.223.803-70.595 15.015-101.476 38.444-83.536 122.884-141.529 220.869-141.529 134.207 0 243.004 108.797 243.004 243.005z" fill="#d5f1fe"/></g><g><path d="m461.331 298.74c-1.66-32.022-5.425-65.719-11.085-95.613-3.563-18.818-19.977-32.454-39.129-32.454-8.542 0-15.467-6.925-15.467-15.467v-87.227c0-15.38-8.383-29.484-21.799-37.006-.109-.061-.218-.122-.328-.183-6.26-3.497-13.33-5.292-20.501-5.292h-125.415-41.312c-8.652 0-15.666 7.014-15.666 15.666v129.509h-15.467c-19.233 0-35.566 13.675-39.089 32.242l-.057.301c-1.332 7.026-11.356 6.996-12.704-.027-2.858-14.891-4.357-30.265-4.357-45.989 0-.455.001-.91.004-1.365.202-36.619-49.441-47.57-64.752-14.305-14.213 30.88-22.14 65.251-22.14 101.475 0 199.12 217.952 299.94 367.268 210.412 53.919-32.33 85.251-91.894 81.996-154.677z" fill="#93dcfc"/></g><g><g><path d="m195.33 44.689h174.351v225.02h-174.351z" fill="#4a82ae"/></g><g><path d="m144.661 44.689h56.977v225.02h-56.977z" fill="#323b49"/></g><g><path d="m228.43 69.834h116.106v109.293h-116.106z" fill="#fff"/></g><g><path d="m234.702 125.884v-56.05h-64.895v174.729h174.729v-69.985h-61.139c-26.894.001-48.695-21.801-48.695-48.694z" fill="#a2dffd"/></g><g><path d="m427.627 458.457c12.543-78.337 11.421-158.31-3.389-236.351-3.555-18.734-20.02-32.242-39.089-32.242h-222.698v268.593z" fill="#475770"/></g><g><path d="m399.399 434.401c-.034-.105-.068-.209-.103-.314-2.446-7.295-3.065-15.101-1.256-22.579 2.234-9.233 3.201-18.96 2.707-28.988-2.618-53.064-46.58-95.37-99.705-96.074-56.521-.748-102.574 44.844-102.574 101.194 0 9.94 2.607 22.134 5.841 33.439 4.662 16.294-19.442 24.324-25.189 8.38-.7-1.941-1.254-3.957-1.649-6.038-6.041-31.832-9.802-63.986-11.291-96.219-.123-2.659 2.015-4.88 4.677-4.88 2.581 0 4.673-2.092 4.673-4.673v-65.034h-8.731c1.316-20.984 3.587-41.924 6.834-62.75h-44.439c-19.069 0-35.533 13.507-39.089 32.242-16.038 84.51-16.038 171.288 0 255.798 3.555 18.735 20.02 32.242 39.089 32.242h255.955c19.146 0 35.564-13.633 39.127-32.444 1.389-7.333 2.651-14.685 3.799-22.049-13.196-.001-24.617-8.699-28.676-21.253z" fill="#323b49"/></g><g><circle cx="370.423" cy="427.498" fill="#d7e4ee" r="30.45"/></g><g><path d="m299.671 270.158c-9.648 0-18.981 1.35-27.82 3.872l-.001 194.661c8.839 2.522 18.172 3.872 27.82 3.872 55.893 0 101.203-45.31 101.203-101.202s-45.309-101.203-101.202-101.203z" fill="#d7e4ee"/></g><g><path d="m247.306 371.36c0-30.79 13.751-58.366 35.447-76.925 9.724-8.318 1.394-23.951-10.904-20.413-41.516 11.945-73.38 50.047-73.38 97.338 0 47.154 31.806 85.374 73.379 97.343 12.303 3.542 20.646-12.088 10.916-20.409-21.702-18.56-35.458-46.139-35.458-76.934z" fill="#4a82ae"/></g><g><path d="m330.137 292.742-66.322 154.926c10.88 5.121 23.034 7.984 35.856 7.984 46.553 0 84.292-37.739 84.292-84.293 0-35.809-22.33-66.403-53.826-78.617z" fill="#323b49"/></g><g><path d="m327.436 314.465c.247-.051.494-.101.742-.15 11.085-2.196 12.494-17.484 1.959-21.571-10.087-3.913-21.115-5.94-32.652-5.648-44.443 1.125-80.701 37.174-82.066 81.611-1.141 37.159 21.777 69.115 54.345 81.476 3.721 1.413 7.047-2.791 4.823-6.092-.05-.074-.1-.148-.149-.222-2.237-3.343 1.156-7.525 4.903-6.062 7.412 2.894 15.589 4.255 24.15 3.686 28.29-1.882 50.929-25.098 52.143-53.425.987-23.029-11.907-43.02-30.846-52.545-9.46-4.758-7.719-18.906 2.648-21.058z" fill="#1b1e21"/></g><g><circle cx="299.671" cy="371.36" fill="#323b49" r="56.015"/></g><g><circle cx="299.671" cy="371.36" fill="#1b1e21" r="25.117"/></g><g><path d="m175.53 306.042h-54.283v-69.707l27.142 10.494 27.141-10.494z" fill="#ffd508"/></g><g><path d="m148.389 271.188-27.142-34.853h54.283z" fill="#67b5ec"/></g><g><path d="m137.833 257.634h21.11v27.108h-21.11z" fill="#1b1e21"/></g><g><circle cx="148.522" cy="345.009" fill="#e04955" r="19.605"/></g><g><path d="m204.432 262.72v10.484c0 9.373 7.598 16.971 16.971 16.971 9.373 0 16.971-7.598 16.971-16.971v-10.484z" fill="#323b49"/></g><g><path d="m204.432 243.23v17.765c0 9.373 7.598 16.971 16.971 16.971 9.373 0 16.971-7.598 16.971-16.971v-17.765z" fill="#a2dffd"/></g><g><path d="m221.403 214.068c-9.373 0-16.971 7.598-16.971 16.971v12.985c0 9.373 7.598 16.971 16.971 16.971 9.373 0 16.971-7.598 16.971-16.971v-12.985c0-9.373-7.598-16.971-16.971-16.971z" fill="#fff"/></g><g><circle cx="388.057" cy="233.377" fill="#e04955" r="7.1"/></g><g><circle cx="388.057" cy="253.726" fill="#d5f1fe" r="7.1"/></g></g></g></svg>