<svg height="46" viewBox="0 0 512.00051 512.00051" width="46" xmlns="http://www.w3.org/2000/svg"><path d="m500.757812 261.621094c0 138.28125-112.097656 250.378906-250.378906 250.378906s-250.378906-112.097656-250.378906-250.378906 112.097656-250.378906 250.378906-250.378906 250.378906 112.097656 250.378906 250.378906zm0 0" fill="#ffdf8e"/><path d="m428.019531 128.785156-44.800781-44.804687c-5.988281-5.988281-5.988281-15.691407 0-21.679688l57.808594-57.8125c5.988281-5.984375 15.691406-5.984375 21.679687 0l44.804688 44.804688c5.984375 5.988281 5.984375 15.691406 0 21.679687l-57.8125 57.8125c-5.984375 5.984375-15.691407 5.984375-21.679688 0zm0 0" fill="#56bcd6"/><path d="m507.511719 70.972656-41.535157 41.53125c-5.984374 5.988282-15.691406 5.988282-21.675781 0l-3.613281-3.613281 41.53125-41.53125c3.988281-3.992187 3.988281-10.460937 0-14.453125l-7.226562-7.226562c-3.992188-3.988282-10.460938-3.988282-14.453126 0l-41.3125 41.316406c-3.945312-5.953125-3.296874-14.050782 1.949219-19.292969l41.53125-41.535156c5.988281-5.984375 15.691407-5.984375 21.679688 0l23.121093 23.125c5.988282 5.988281 5.988282 15.691406.003907 21.679687zm0 0" fill="#8ed0e1"/><path d="m360.882812 380.917969c-27.953124 27.949219-73.4375 27.949219-101.390624 0l-122.625-122.628907c-16-16-42.03125-16-58.03125 0l-6.132813 6.128907c-15.996094 16-15.996094 42.03125 0 58.03125l30.660156 30.65625c27.949219 27.953125 27.949219 73.4375 0 101.386719l-5.617187 5.625c-8.144532-6.242188-15.863282-13.011719-23.160156-20.207032l7.097656-7.09375c15.996094-16 15.996094-42.03125 0-58.03125l-30.660156-30.65625c-27.949219-27.953125-27.949219-73.433594 0-101.386718l6.132812-6.132813c27.953125-27.953125 73.433594-27.953125 101.386719 0l122.628906 122.628906c16 16 42.03125 16 58.03125 0s16-42.03125 0-58.03125l-24.527344-24.523437c-27.953125-27.953125-27.953125-73.433594 0-101.386719l23.527344-23.527344 21.679687 21.679688-23.527343 23.523437c-16 16-16 42.03125 0 58.03125l24.527343 24.527344c27.949219 27.949219 27.949219 73.433594 0 101.386719zm0 0" fill="#6e61b5"/><path d="m482.21875 117.945312-54.199219 54.195313c-12.691406 12.691406-31.644531 15.28125-46.90625 7.792969-.703125 2.371094-1.988281 4.605468-3.859375 6.476562-5.988281 5.988282-15.691406 5.988282-21.679687 0l-40.941407-40.941406c-5.988281-5.988281-5.988281-15.691406 0-21.679688 3.753907-3.753906 8.96875-5.152343 13.816407-4.195312-2.078125-12.570312 1.71875-25.917969 11.410156-35.613281l54.199219-54.199219c5.984375-5.984375 15.691406-5.984375 21.675781 0l66.484375 66.484375c5.984375 5.984375 5.984375 15.691406 0 21.679687zm0 0" fill="#8279c0"/><path d="m391.890625 150.460938-8.671875-8.671876c-15.964844-15.960937-15.964844-41.84375 0-57.808593l32.519531-32.519531c5.984375-5.984376 15.691407-5.984376 21.675781 0l44.804688 44.804687c5.988281 5.988281 5.988281 15.691406 0 21.679687l-32.519531 32.519532c-15.964844 15.960937-41.847657 15.960937-57.808594-.003906zm-3.679687 46.90625c5.988281-5.984376 5.988281-15.691407 0-21.675782l-33.113282-33.117187c-5.988281-5.984375-15.691406-5.984375-21.679687 0-5.984375 5.988281-5.984375 15.691406 0 21.679687l33.117187 33.113282c5.984375 5.988281 15.691406 5.988281 21.675782 0zm0 0" fill="#968dca"/><path d="m432.789062 130.554688c3.992188 3.992187 3.992188 10.460937 0 14.453124l-.269531.269532c-3.988281 3.988281-10.460937 3.988281-14.453125 0l-50.125-50.125c-3.988281-3.992188-3.988281-10.464844 0-14.453125l.269532-.269531c3.992187-3.992188 10.460937-3.992188 14.453124 0zm26.605469-26.605469-50.125-50.125c-3.992187-3.992188-10.460937-3.992188-14.453125 0l-.269531.269531c-3.988281 3.988281-3.988281 10.460938 0 14.453125l50.125 50.125c3.992187 3.988281 10.464844 3.988281 14.453125 0l.269531-.269531c3.992188-3.992188 3.992188-10.460938 0-14.453125zm0 0" fill="#6e61b5"/></svg>