<?xml version="1.0" encoding="iso-8859-1"?>
<!-- Generator: Adobe Illustrator 19.0.0, SVG Export Plug-In . SVG Version: 6.00 Build 0)  -->
<svg version="1.1" id="Layer_1" xmlns="http://www.w3.org/2000/svg" xmlns:xlink="http://www.w3.org/1999/xlink" x="0px" y="0px"
	 viewBox="0 0 512 512" style="enable-background:new 0 0 512 512;" xml:space="preserve"
	 height="46" width="46">
<g>
	<path style="fill:#5D5F72;" d="M379.586,476.69H79.448c-9.754,0-17.655-7.901-17.655-17.655V226.595
		c0-8.545,6.126-15.872,14.539-17.382l28.257-5.067c76.871-13.25,181.813-13.25,258.684,0l20.206,4.564
		c8.051,1.818,13.762,8.969,13.762,17.223v233.101C397.241,468.789,389.341,476.69,379.586,476.69"/>
	<path style="fill:#434C6D;" d="M300.138,335.448c0,39-31.62,70.621-70.621,70.621s-70.621-31.62-70.621-70.621
		s31.62-70.621,70.621-70.621S300.138,296.448,300.138,335.448"/>
	<path style="fill:#7383BF;" d="M229.517,273.655c-34.074,0-61.793,27.727-61.793,61.793s27.719,61.793,61.793,61.793
		s61.793-27.727,61.793-61.793S263.592,273.655,229.517,273.655 M229.517,414.897c-43.802,0-79.448-35.637-79.448-79.448
		S185.715,256,229.517,256s79.448,35.637,79.448,79.448S273.32,414.897,229.517,414.897"/>
	<g>
		<path style="fill:#414251;" d="M370.759,238.345c0,4.873-3.955,8.828-8.828,8.828s-8.828-3.955-8.828-8.828
			c0-4.873,3.955-8.828,8.828-8.828S370.759,233.472,370.759,238.345"/>
		<path style="fill:#414251;" d="M105.931,238.345c0,4.873-3.955,8.828-8.828,8.828s-8.828-3.955-8.828-8.828
			c0-4.873,3.955-8.828,8.828-8.828S105.931,233.472,105.931,238.345"/>
		<path style="fill:#414251;" d="M105.931,441.379c0,4.873-3.955,8.828-8.828,8.828s-8.828-3.955-8.828-8.828
			s3.955-8.828,8.828-8.828S105.931,436.507,105.931,441.379"/>
		<path style="fill:#414251;" d="M370.759,441.379c0,4.873-3.955,8.828-8.828,8.828s-8.828-3.955-8.828-8.828
			s3.955-8.828,8.828-8.828S370.759,436.507,370.759,441.379"/>
	</g>
	<g>
		<path style="fill:#363644;" d="M441.379,326.621h-8.828c-4.873,0-8.828-3.946-8.828-8.828c0-4.882,3.955-8.828,8.828-8.828h8.828
			c4.873,0,8.828,3.946,8.828,8.828C450.207,322.675,446.252,326.621,441.379,326.621"/>
		<path style="fill:#363644;" d="M406.069,361.931c-4.873,0-8.828-3.946-8.828-8.828v-8.828c0-4.882,3.955-8.828,8.828-8.828
			s8.828,3.946,8.828,8.828v8.828C414.897,357.985,410.942,361.931,406.069,361.931"/>
		<path style="fill:#363644;" d="M406.069,300.138c-4.873,0-8.828-3.946-8.828-8.828v-8.828c0-4.882,3.955-8.828,8.828-8.828
			s8.828,3.946,8.828,8.828v8.828C414.897,296.192,410.942,300.138,406.069,300.138"/>
		<path style="fill:#363644;" d="M431.039,351.586c-2.26,0-4.52-0.865-6.241-2.586l-6.25-6.241c-3.443-3.443-3.443-9.031,0-12.482
			c3.452-3.452,9.039-3.452,12.491,0l6.241,6.241c3.452,3.443,3.452,9.031,0.009,12.482
			C435.558,350.721,433.299,351.586,431.039,351.586"/>
		<path style="fill:#363644;" d="M424.793,307.896c-2.26,0-4.52-0.865-6.25-2.586c-3.443-3.452-3.443-9.039,0.009-12.482
			l6.241-6.241c3.452-3.452,9.039-3.452,12.491,0c3.443,3.452,3.443,9.039,0,12.482l-6.25,6.241
			C429.313,307.031,427.053,307.896,424.793,307.896"/>
	</g>
	<path style="fill:#414251;" d="M397.241,342.654c2.772,0.989,5.711,1.624,8.828,1.624c14.627,0,26.483-11.855,26.483-26.483
		c0-14.627-11.855-26.483-26.483-26.483c-3.116,0-6.056,0.636-8.828,1.615V342.654z"/>
	<g>
		<path style="fill:#FFFFFF;" d="M203.034,361.931c0,4.873-3.955,8.828-8.828,8.828s-8.828-3.955-8.828-8.828
			s3.955-8.828,8.828-8.828S203.034,357.058,203.034,361.931"/>
		<path style="fill:#FFFFFF;" d="M264.828,300.138c0,4.873-3.955,8.828-8.828,8.828s-8.828-3.955-8.828-8.828
			c0-4.873,3.955-8.828,8.828-8.828S264.828,295.265,264.828,300.138"/>
		<path style="fill:#FFFFFF;" d="M194.207,344.276c-4.873,0-8.828-3.946-8.828-8.828c0-24.338,19.8-44.138,44.138-44.138
			c4.873,0,8.828,3.946,8.828,8.828c0,4.882-3.955,8.828-8.828,8.828c-14.601,0-26.483,11.882-26.483,26.483
			C203.034,340.33,199.08,344.276,194.207,344.276"/>
	</g>
	<path style="fill:#ECBA16;" d="M300.138,70.621c0,39-31.62,70.621-70.621,70.621s-70.621-31.62-70.621-70.621S190.517,0,229.517,0
		S300.138,31.62,300.138,70.621"/>
	<path style="fill:#363644;" d="M273.655,195.044v-69.341c-12.094,9.702-27.427,15.537-44.138,15.537s-32.044-5.835-44.138-15.537
		v69.341C214.413,193.967,244.621,193.967,273.655,195.044"/>
	<g>
		<path style="fill:#414251;" d="M150.069,512h-35.31c-9.754,0-17.655-7.901-17.655-17.655V476.69h70.621v17.655
			C167.724,504.099,159.823,512,150.069,512"/>
		<path style="fill:#414251;" d="M344.276,512h-35.31c-9.754,0-17.655-7.901-17.655-17.655V476.69h70.621v17.655
			C361.931,504.099,354.03,512,344.276,512"/>
		<polygon style="fill:#414251;" points="203.034,229.517 256,229.517 256,194.207 203.034,194.207 		"/>
		<path style="fill:#414251;" d="M273.655,450.207h-88.276c-4.873,0-8.828-3.946-8.828-8.828c0-4.882,3.955-8.828,8.828-8.828
			h88.276c4.873,0,8.828,3.946,8.828,8.828C282.483,446.261,278.528,450.207,273.655,450.207"/>
	</g>
	<g>
		<path style="fill:#FFFFFF;" d="M299.479,61.476c-0.786-6.056-2.304-11.864-4.52-17.337h-47.784c-4.882,0-8.828,3.946-8.828,8.828
			s3.946,8.828,8.828,8.828h50.732C298.464,61.794,298.95,61.573,299.479,61.476"/>
		<path style="fill:#FFFFFF;" d="M299.479,79.765c-0.53-0.097-1.015-0.318-1.571-0.318h-50.732c-4.882,0-8.828,3.946-8.828,8.828
			c0,4.882,3.946,8.828,8.828,8.828h47.784C297.175,91.629,298.694,85.821,299.479,79.765"/>
		<path style="fill:#FFFFFF;" d="M203.034,26.483h-28.601c-4.034,5.041-7.433,10.62-9.984,16.649
			c1.192,0.591,2.481,1.006,3.902,1.006h34.684c4.873,0,8.828-3.946,8.828-8.828S207.907,26.483,203.034,26.483"/>
		<path style="fill:#FFFFFF;" d="M211.862,61.793h-52.356c-0.362,2.895-0.609,5.835-0.609,8.828c0,2.993,0.247,5.932,0.609,8.828
			h52.356c4.873,0,8.828-3.946,8.828-8.828C220.69,65.739,216.735,61.793,211.862,61.793"/>
		<path style="fill:#FFFFFF;" d="M203.034,97.103h-34.684c-1.421,0-2.719,0.415-3.902,1.006c2.551,6.029,5.95,11.608,9.984,16.649
			h28.601c4.873,0,8.828-3.946,8.828-8.828C211.862,101.049,207.907,97.103,203.034,97.103"/>
	</g>
</g>
<g>
</g>
<g>
</g>
<g>
</g>
<g>
</g>
<g>
</g>
<g>
</g>
<g>
</g>
<g>
</g>
<g>
</g>
<g>
</g>
<g>
</g>
<g>
</g>
<g>
</g>
<g>
</g>
<g>
</g>
</svg>
