<?xml version="1.0" encoding="iso-8859-1"?>
<!-- Generator: Adobe Illustrator 19.0.0, SVG Export Plug-In . SVG Version: 6.00 Build 0)  -->
<svg version="1.1" id="Layer_1" xmlns="http://www.w3.org/2000/svg" xmlns:xlink="http://www.w3.org/1999/xlink" x="0px" y="0px"
	 viewBox="0 0 512 512" style="enable-background:new 0 0 512 512;" xml:space="preserve">
<g transform="translate(-1)">
	<g>
		<path style="fill:#E0E2E3;" d="M71.6,127.95H9.8v-44.1h17.7c4.9,0,8.8,4,8.8,8.8s-3.9,8.8-8.8,8.8v8.8H54v-8.8
			c-4.9,0-8.8-4-8.8-8.8s3.9-8.8,8.8-8.8h17.7v44.1H71.6z"/>
		<path style="fill:#E0E2E3;" d="M45.1,83.85h-8.8c-4.9,0-8.8-4-8.8-8.8c0-4.9,3.9-8.8,8.8-8.8h8.8c4.9,0,8.8,4,8.8,8.8
			C54,79.85,50,83.85,45.1,83.85"/>
	</g>
	<polygon style="fill:#5D5F72;" points="195.2,83.85 195.2,119.15 1,119.15 1,445.75 513,445.75 513,180.95 513,119.15 513,83.85 	
		"/>
	<path style="fill:#414251;" d="M80.4,180.95c-4.9,0-8.8-4-8.8-8.8v-12.2l-4.8,2.4c-0.2,0.1-0.3,0.2-0.5,0.2
		c-1.2,0.5-2.4,0.7-3.5,0.7l0,0l0,0c-1.2,0-2.4-0.2-3.5-0.7c-0.2-0.1-0.4-0.2-0.5-0.3l-4.8-2.4v12.2c0,4.9-3.9,8.8-8.8,8.8
		s-8.8-4-8.8-8.8v-26.3c0-0.7,0.1-1.5,0.2-2.2c0.2-1,0.7-2,1.2-2.9c0.7-1.1,1.6-2,2.7-2.6c1.1-0.7,2.3-1.1,3.5-1.3
		c1-0.1,2.1-0.1,3.2,0.2c0.7,0.2,1.4,0.4,2.1,0.8l13.6,6.8l13.6-6.8c0.6-0.3,1.4-0.6,2.1-0.8c1.1-0.2,2.1-0.3,3.1-0.2
		c1.3,0.2,2.4,0.6,3.5,1.2c1.1,0.7,2,1.5,2.8,2.6c0.6,0.9,1,1.8,1.2,2.9c0.2,0.7,0.3,1.5,0.2,2.2v26.3
		C89.3,176.95,85.3,180.95,80.4,180.95"/>
	<path style="fill:#363644;" d="M46.5,401.65H1v-203h45.5c13.9,0,25.1,11.2,25.1,25.1v152.9C71.6,390.35,60.4,401.65,46.5,401.65"/>
	<polygon style="fill:#414251;" points="98.1,119.15 159.9,119.15 159.9,92.65 98.1,92.65 	"/>
	<path style="fill:#ECBA16;" d="M461,172.05h-63.6c-4.4,0-7.9-3.5-7.9-7.9v-46c0-4.4,3.5-7.9,7.9-7.9H461c4.4,0,7.9,3.5,7.9,7.9v46
		C468.9,168.55,465.3,172.05,461,172.05"/>
	<g>
		<path style="fill:#414251;" d="M367.2,198.55c24.5,23.3,39.9,56.2,39.9,92.7c0,47.1-25.5,88.1-63.4,110.3H513v-203L367.2,198.55
			L367.2,198.55z"/>
		<path style="fill:#414251;" d="M130.9,367.25l28.8-30c-5.5-14.3-8.6-29.8-8.6-46c0-36.5,15.4-69.4,39.9-92.7H96.7
			c-13.9,0-25.1,11.2-25.1,25.1v152.9c0,13.9,11.2,25.1,25.1,25.1h68.6L130.9,367.25z"/>
	</g>
	<path style="fill:#363644;" d="M159.7,337.25l-28.8,30l45.7,45.7l21.6-22.5C181.1,376.55,167.8,358.15,159.7,337.25"/>
	<path style="fill:#414251;" d="M259.5,164.95c6.4-1,12.9-1.7,19.6-1.7s13.2,0.7,19.6,1.7c6.9-5.7,11.3-14.1,11.3-23.7
		c0-17.1-13.8-30.9-30.9-30.9s-30.9,13.8-30.9,30.9C248.2,150.75,252.6,159.25,259.5,164.95"/>
	<path style="fill:#5D5F72;" d="M133.4,330.95c-19.5,0-35.3-15.8-35.3-35.3s15.8-35.3,35.3-35.3c9.3,0,18.1,3.6,24.7,10.1
		c3.5,3.4,3.5,9,0.1,12.5s-9,3.5-12.5,0.1c-3.3-3.3-7.7-5.1-12.3-5.1c-9.7,0-17.7,7.9-17.7,17.7c0,9.7,7.9,17.7,17.7,17.7
		c5,0,9.7-2.1,13.1-6c3.3-3.6,8.8-3.9,12.5-0.7c3.6,3.2,3.9,8.8,0.7,12.5C152.9,326.65,143.4,330.95,133.4,330.95"/>
	<polygon style="fill:#ECBA16;" points="151.1,172.05 177.6,172.05 177.6,145.65 151.1,145.65 	"/>
	<path style="fill:#363644;" d="M407.1,291.25c0,70.7-57.3,128-128,128s-128-57.3-128-128s57.3-128,128-128
		S407.1,220.55,407.1,291.25"/>
	<path style="fill:#434C6D;" d="M371.8,291.25c0,51.2-41.5,92.7-92.7,92.7s-92.7-41.5-92.7-92.7s41.5-92.7,92.7-92.7
		S371.8,240.05,371.8,291.25"/>
	<path style="fill:#7383BF;" d="M279.1,390.95c-55,0-99.7-44.7-99.7-99.7s44.7-99.7,99.7-99.7s99.7,44.7,99.7,99.7
		S334,390.95,279.1,390.95z M279.1,205.55c-47.2,0-85.7,38.4-85.7,85.7c0,47.2,38.4,85.7,85.7,85.7c47.2,0,85.7-38.4,85.7-85.7
		C364.8,244.05,326.3,205.55,279.1,205.55z"/>
	<path style="fill:#FFFFFF;" d="M327.6,291.25c0,26.8-21.7,48.6-48.6,48.6c-26.8,0-48.6-21.7-48.6-48.6s21.7-48.6,48.6-48.6
		C305.9,242.75,327.6,264.45,327.6,291.25"/>
	<g>
		<path style="fill:#434C6D;" d="M274.7,286.85c-2.3,0-4.5-0.9-6.2-2.6c-3.5-3.5-3.5-9,0-12.5l8.8-8.8c3.5-3.5,9-3.5,12.5,0
			s3.5,9,0,12.5l-8.8,8.8C279.2,285.95,276.9,286.85,274.7,286.85"/>
		<path style="fill:#434C6D;" d="M283.5,313.35c-2.3,0-4.5-0.9-6.2-2.6c-3.5-3.5-3.5-9,0-12.5l17.7-17.7c3.5-3.5,9-3.5,12.5,0
			s3.5,9,0,12.5l-17.7,17.7C288,312.45,285.7,313.35,283.5,313.35"/>
	</g>
</g>
<g>
</g>
<g>
</g>
<g>
</g>
<g>
</g>
<g>
</g>
<g>
</g>
<g>
</g>
<g>
</g>
<g>
</g>
<g>
</g>
<g>
</g>
<g>
</g>
<g>
</g>
<g>
</g>
<g>
</g>
</svg>
