<!-- Generator: Adobe Illustrator 19.0.0, SVG Export Plug-In . SVG Version: 6.00 Build 0)  -->
<svg version="1.1" id="Layer_1" xmlns="http://www.w3.org/2000/svg" xmlns:xlink="http://www.w3.org/1999/xlink" x="0px" y="0px"
	viewBox="0 0 512 512" style="enable-background:new 0 0 512 512;" xml:space="preserve">
<path style="fill:#B0B6BB;" d="M442.55,208.3h-43.4v-86.8h43.4v26c0,4.8-3.9,8.7-8.7,8.7c-4.8,0-8.7-3.9-8.7-8.7v-8.7h-8.7v52.1h8.7
	v-8.7c0-4.8,3.9-8.7,8.7-8.7c4.8,0,8.7,3.9,8.7,8.7V208.3z"/>
<path style="fill:#38454F;" d="M379.15,503.3h-237.7c-12.5,0-24.2-6.2-31.1-16.6c-4.1-6.1-6.3-13.3-6.3-20.7V121.5l14.2-99.4
	c1.8-12.7,12.7-22.1,25.5-22.1h233.1c12.8,0,23.7,9.4,25.5,22.1l14.2,99.4V466c0,7.4-2.2,14.6-6.3,20.7
	C403.25,497.1,391.65,503.3,379.15,503.3"/>
<g>
	<path style="fill:#283238;" d="M260.25,459.9c-4.8,0-8.7-3.9-8.7-8.7v-17.4c0-4.8,3.9-8.7,8.7-8.7c4.8,0,8.7,3.9,8.7,8.7v17.4
		C268.95,456,265.05,459.9,260.25,459.9"/>
	<path style="fill:#283238;" d="M182.15,269c-2.2,0-4.4-0.9-6.1-2.5l-26-26c-3.4-3.4-3.4-8.9,0-12.3c3.4-3.4,8.9-3.4,12.3,0l26,26
		c3.4,3.4,3.4,8.9,0,12.3C186.65,268.2,184.45,269,182.15,269"/>
	<path style="fill:#283238;" d="M156.15,347.1h-26c-4.8,0-8.7-3.9-8.7-8.7s3.9-8.7,8.7-8.7h26c4.8,0,8.7,3.9,8.7,8.7
		S160.95,347.1,156.15,347.1"/>
	<path style="fill:#283238;" d="M338.35,425.2c-2.2,0-4.4-0.9-6.1-2.5l-8.7-8.7c-3.4-3.4-3.4-8.9,0-12.3s8.9-3.4,12.3,0l8.7,8.7
		c3.4,3.4,3.4,8.9,0,12.3C342.85,424.4,340.65,425.2,338.35,425.2"/>
	<path style="fill:#283238;" d="M444.65,459.9h-28.1v-78.1l33.8,11.9c5.8,2.3,9.6,7.9,9.6,14.2v36.8
		C459.85,453.1,453.05,459.9,444.65,459.9"/>
	<polygon style="fill:#283238;" points="52.05,199.6 104.05,199.6 104.05,121.5 52.05,121.5 	"/>
</g>
<g>
	<polygon style="fill:#B0B6BB;" points="69.35,156.2 104.05,156.2 104.05,138.8 69.35,138.8 	"/>
	<polygon style="fill:#B0B6BB;" points="69.35,182.2 104.05,182.2 104.05,164.9 69.35,164.9 	"/>
</g>
<g>
	<path style="fill:#283238;" d="M312.35,451.3c-3.2,0-6.2-1.8-7.8-4.8l-8.7-17.4c-2.1-4.3-0.4-9.5,3.9-11.6s9.5-0.4,11.6,3.9
		l8.7,17.4c2.1,4.3,0.4,9.5-3.9,11.6C314.95,451,313.65,451.3,312.35,451.3"/>
	<path style="fill:#283238;" d="M147.45,512c-4.8,0-8.7-3.9-8.7-8.7v-26c0-4.8,3.9-8.7,8.7-8.7s8.7,3.9,8.7,8.7v26
		C156.15,508.1,152.25,512,147.45,512"/>
	<path style="fill:#283238;" d="M190.85,512c-4.8,0-8.7-3.9-8.7-8.7v-26c0-4.8,3.9-8.7,8.7-8.7s8.7,3.9,8.7,8.7v26
		C199.55,508.1,195.65,512,190.85,512"/>
	<path style="fill:#283238;" d="M234.25,512c-4.8,0-8.7-3.9-8.7-8.7v-26c0-4.8,3.9-8.7,8.7-8.7s8.7,3.9,8.7,8.7v26
		C242.95,508.1,239.05,512,234.25,512"/>
	<path style="fill:#283238;" d="M277.65,512c-4.8,0-8.7-3.9-8.7-8.7v-26c0-4.8,3.9-8.7,8.7-8.7s8.7,3.9,8.7,8.7v26
		C286.35,508.1,282.45,512,277.65,512"/>
	<path style="fill:#283238;" d="M321.05,512c-4.8,0-8.7-3.9-8.7-8.7v-26c0-4.8,3.9-8.7,8.7-8.7s8.7,3.9,8.7,8.7v26
		C329.75,508.1,325.85,512,321.05,512"/>
	<path style="fill:#283238;" d="M364.45,512c-4.8,0-8.7-3.9-8.7-8.7v-26c0-4.8,3.9-8.7,8.7-8.7s8.7,3.9,8.7,8.7v26
		C373.15,508.1,369.25,512,364.45,512"/>
	<path style="fill:#283238;" d="M208.25,69.4h-34.7c-4.8,0-8.7-3.9-8.7-8.7s3.9-8.7,8.7-8.7h34.7c4.8,0,8.7,3.9,8.7,8.7
		S213.05,69.4,208.25,69.4"/>
	<path style="fill:#283238;" d="M347.05,69.4h-26c-4.8,0-8.7-3.9-8.7-8.7s3.9-8.7,8.7-8.7h26c4.8,0,8.7,3.9,8.7,8.7
		S351.85,69.4,347.05,69.4"/>
	<path style="fill:#283238;" d="M338.35,147.5c0,43.1-35,78.1-78.1,78.1s-78.1-35-78.1-78.1s35-78.1,78.1-78.1
		S338.35,104.4,338.35,147.5"/>
</g>
<path style="fill:#E0E1E2;" d="M303.65,147.5c0,24-19.4,43.4-43.4,43.4s-43.4-19.4-43.4-43.4s19.4-43.4,43.4-43.4
	C284.25,104.1,303.65,123.6,303.65,147.5"/>
<path style="fill:#7383BF;" d="M260.25,197.9c-27.8,0-50.4-22.6-50.4-50.4s22.6-50.4,50.4-50.4s50.4,22.6,50.4,50.4
	S288.05,197.9,260.25,197.9z M260.25,111.1c-20.1,0-36.4,16.3-36.4,36.4s16.3,36.4,36.4,36.4c20.1,0,36.4-16.3,36.4-36.4
	S280.35,111.1,260.25,111.1z"/>
<g>
	<path style="fill:#283238;" d="M390.45,121.5h-34.7c-4.8,0-8.7-3.9-8.7-8.7s3.9-8.7,8.7-8.7h14.6l-8.5-58.5
		c-0.2-1.3-1.3-2.2-2.6-2.2h-198c-1.3,0-2.4,1-2.6,2.2l-8.5,58.5h14.6c4.8,0,8.7,3.9,8.7,8.7s-3.9,8.7-8.7,8.7h-34.7l11.4-78.4
		c1.4-9.7,9.9-17.1,19.7-17.1h198c9.8,0,18.3,7.3,19.7,17.1L390.45,121.5z"/>
	<path style="fill:#283238;" d="M364.45,486h-217c-4.8,0-8.7-3.9-8.7-8.7s3.9-8.7,8.7-8.7h216.9c4.8,0,8.7,3.9,8.7,8.7
		S369.25,486,364.45,486"/>
	<path style="fill:#283238;" d="M364.45,329.8c0,57.5-46.6,104.1-104.1,104.1s-104.1-46.6-104.1-104.1s46.6-104.1,104.1-104.1
		S364.45,272.3,364.45,329.8"/>
</g>
<path style="fill:#434C6D;" d="M329.75,329.8c0,38.3-31.1,69.4-69.4,69.4s-69.4-31.1-69.4-69.4s31.1-69.4,69.4-69.4
	S329.75,291.4,329.75,329.8"/>
<path style="fill:#7383BF;" d="M260.25,406.2c-42.1,0-76.4-34.3-76.4-76.4s34.3-76.4,76.4-76.4s76.4,34.3,76.4,76.4
	S302.45,406.2,260.25,406.2z M260.25,267.3c-34.4,0-62.4,28-62.4,62.4s28,62.4,62.4,62.4s62.4-28,62.4-62.4
	S294.75,267.3,260.25,267.3z"/>
<g>
	<path style="fill:#FFFFFF;" d="M295.05,338.4c-4.8,0-8.7-3.9-8.7-8.7c0-14.1-7.9-26-17.4-26c-4.8,0-8.7-3.9-8.7-8.7
		s3.9-8.7,8.7-8.7c19.1,0,34.7,19.5,34.7,43.4C303.65,334.6,299.75,338.4,295.05,338.4"/>
	<path style="fill:#FFFFFF;" d="M295.05,355.8c0,4.8-3.9,8.7-8.7,8.7c-4.8,0-8.7-3.9-8.7-8.7s3.9-8.7,8.7-8.7
		C291.15,347.1,295.05,351,295.05,355.8"/>
	<path style="fill:#FFFFFF;" d="M251.65,303.7c0,4.8-3.9,8.7-8.7,8.7s-8.7-3.9-8.7-8.7s3.9-8.7,8.7-8.7S251.65,298.9,251.65,303.7"
		/>
</g>
<g>
</g>
<g>
</g>
<g>
</g>
<g>
</g>
<g>
</g>
<g>
</g>
<g>
</g>
<g>
</g>
<g>
</g>
<g>
</g>
<g>
</g>
<g>
</g>
<g>
</g>
<g>
</g>
<g>
</g>
</svg>
