<svg height="auto" viewBox="0 0 32 32" width="auto" xmlns="http://www.w3.org/2000/svg"><g id="Layer_2" data-name="Layer 2"><path d="m29 8h-2v-2a1 1 0 0 0 -2 0v2h-2a1 1 0 0 0 0 2h2v2a1 1 0 0 0 2 0v-2h2a1 1 0 0 0 0-2z"/><path d="m28.1 16a1 1 0 0 0 -.988.847l-.252 1.613a2.975 2.975 0 0 1 -2.96 2.54h-9.14a2.975 2.975 0 0 1 -2.96-2.54l-1.3-8.46h7.5a1 1 0 0 0 0-2h-7.89l-.428-1.724a3 3 0 0 0 -2.912-2.276h-3.44a1 1 0 0 0 0 2h3.44a1 1 0 0 1 .97.76l2.08 12a4.946 4.946 0 0 0 2.34 3.51 3.433 3.433 0 0 0 -.722 3.09 3.5 3.5 0 0 0 6.892-.86 3.446 3.446 0 0 0 -.35-1.5h2.7a3.418 3.418 0 0 0 -.262 2.278 3.5 3.5 0 1 0 6.092-3.008 4.964 4.964 0 0 0 2.33-3.51l.245-1.61a1 1 0 0 0 -.985-1.15zm-13.27 10a1.5 1.5 0 1 1 1.5-1.5 1.5 1.5 0 0 1 -1.5 1.5zm9 0a1.5 1.5 0 1 1 1.5-1.5 1.5 1.5 0 0 1 -1.5 1.5z"/></g></svg>