<svg id="Capa_1" enable-background="new 0 0 512 512" height="28" viewBox="0 0 512 512" width="28" xmlns="http://www.w3.org/2000/svg"><g><g><path d="m114.449 4.013-95.059 45.593h-18.358v80.446h107.896l110.286-31.147-53.075-80.554c-11.218-17.03-33.302-23.156-51.69-14.338z" fill="#ffcbbe"/><path d="m101.467 92.099v3.239h82.717v-27.248h-58.708c-13.259 0-24.009 10.749-24.009 24.009z" fill="#eaac9d"/><g><path d="m140.812 199.666v-143.479c0-23.246 18.845-42.09 42.09-42.09h210.058c23.246 0 42.09 18.845 42.09 42.09v143.478c0 23.246-18.845 42.09-42.09 42.09h-210.057c-23.246.001-42.091-18.844-42.091-42.089z" fill="#8bc852"/><path d="m165.534 182.112v-108.371c19.287 0 34.923-15.636 34.923-34.923h174.95c0 19.287 15.636 34.923 34.923 34.923v108.371c-19.287 0-34.923 15.636-34.923 34.923h-174.95c0-19.288-15.636-34.923-34.923-34.923z" fill="#69af81"/><circle cx="287.932" cy="127.926" fill="#8bc852" r="57.528"/><g><path d="m388.54 135.653h-19.593c-4.268 0-7.726-3.459-7.726-7.726s3.459-7.726 7.726-7.726h19.593c4.268 0 7.726 3.459 7.726 7.726s-3.458 7.726-7.726 7.726z" fill="#8bc852"/></g></g><g><path d="m228.588 88.527h-227.556v54.86h30.044l13.403 13.91c26.113 27.089 68.672 29.488 97.663 5.521l16.085-13.305h70.36c8.418 0 16.037-3.414 21.558-8.926 5.521-5.521 8.935-13.149 8.935-21.567.001-16.836-13.656-30.493-30.492-30.493z" fill="#ffcbbe"/><path d="m157.038 131.038c-37.389 30.922-92.289 27.82-125.962-7.111h-30.044v19.46h30.044l13.403 13.91c26.113 27.089 68.672 29.488 97.663 5.521l16.085-13.305h70.36c8.418 0 16.037-3.414 21.558-8.926 5.521-5.521 8.935-13.139 8.935-21.567 0-3.404-.556-6.672-1.58-9.725-1.522 4.507-4.068 8.535-7.355 11.822-5.521 5.521-13.139 8.935-21.558 8.935h-70.36z" fill="#eaac9d"/></g></g><g><path d="m149.587 340.303c.593 20.227 1.958 40.455 4.11 60.69 1.137 10.707 9.797 19.025 20.52 19.878 67.871 5.378 135.742 5.378 203.614 0 10.731-.853 19.391-9.171 20.528-19.878.106-1.007.211-2.006.309-3.014 5.629-54.89 5.524-109.788-.309-164.678-1.137-10.698-9.797-19.025-20.528-19.878-21.746-1.722-43.501-2.892-65.255-3.509-24.37-.69-48.732-.69-73.103 0-21.755.617-43.501 1.787-65.255 3.509-10.723.853-19.382 9.18-20.52 19.878-3.786 35.671-5.159 71.332-4.111 107.002z" fill="#f4dd45"/><path d="m149.587 340.303c.593 20.227 1.958 40.455 4.11 60.69 1.137 10.707 9.797 19.025 20.52 19.878 67.871 5.378 135.742 5.378 203.614 0 10.731-.853 19.391-9.171 20.528-19.878.106-1.007.211-2.006.309-3.014-3.859-12.348-21.178-25.459-82.818-15.638-104.208 16.605-166.263-42.038-166.263-42.038z" fill="#ecbe6b"/><path d="m364.752 421.84c4.362-.301 8.725-.617 13.087-.967 10.723-.853 19.383-9.171 20.52-19.878 5.938-55.897 5.938-111.795 0-167.692-1.137-10.699-9.797-19.025-20.52-19.878-4.362-.341-8.724-.666-13.087-.967 4.029 3.794 6.734 8.968 7.352 14.801 6.369 59.926 6.369 119.853 0 179.779-.618 5.833-3.323 11.016-7.352 14.802z" fill="#ecbe6b"/><path d="m239.473 209.914v84.597l36.555-25.467 36.547 25.467v-84.597c-24.37-.69-48.732-.69-73.102 0z" fill="#595959"/></g><g><path d="m121.811 399.105h.007l104.788 84.055c8.612 6.909 19.661 10.055 30.627 8.717l141.231-17.188 37.631 13.92c20.215-20.79 11.908-87.682 11.908-87.682l-8.962-2.452c.778-11.975-4.87-23.866-15.352-30.669-1.156-.757-2.368-1.443-3.644-2.067l-60.561-29.576-31.146-15.212c-1.696-.827-3.426-1.478-5.185-1.955-13.019-3.567-27.152 2.158-33.815 14.434-7.56 13.937-2.796 31.356 10.805 39.505l50.345 30.172-84.721 14.757c-10.195 1.773-20.684-.371-29.373-6.012l-84.258-54.696c-11.302-7.343-26.339-4.793-34.6 5.865-2.137 2.761-3.637 5.823-4.512 9.004-2.649 9.668.483 20.417 8.787 27.08z" fill="#ffcbbe"/><path d="m257.464 469.301c58.019 7.536 98.018-26.486 122.217-58.495 11.999-15.871 7.953-38.573-8.797-49.31-58.425-37.45-73.537-36.074-81.545-28.066 6.664-12.276 20.797-18.001 33.815-14.434 1.759.476 3.489 1.128 5.185 1.955l31.146 15.212 49.086 23.972s.005.008.006.01l11.469 5.594c12.802 6.25 19.858 19.437 18.996 32.736l29.581 7.789s-12.313 61.556-32.528 82.345l-37.631-13.92-141.231 17.188c-10.966 1.338-22.016-1.808-30.627-8.717l-104.788-84.055c36.211-9.823 96.569 64.219 135.646 70.196z" fill="#eaac9d"/><ellipse cx="467.79" cy="452.253" fill="#3b66c1" rx="76.247" ry="37.821" transform="matrix(.333 -.943 .943 .333 -114.479 742.639)"/><path d="m424.611 494.177c15.491 9.675 32.299 15.613 50.43 17.823 3.599-8.66 7.067-17.36 10.414-26.101-18.887-2.331-36.425-8.465-52.615-18.408-2.867 8.855-5.613 17.75-8.229 26.686z" fill="#26457d"/></g><circle cx="456.747" cy="480.717" fill="#454545" r="7.726"/></g></svg>