<svg height="auto" viewBox="0 0 64 64" width="auto" xmlns="http://www.w3.org/2000/svg"><g id="_02-photograher" data-name="02-photograher"><path d="m1 14h62v30h-62z" fill="#b6d8f2"/><path d="m42 36v-24.829h-6.171l-2.971-5.23a1.853 1.853 0 0 0 -1.611-.941h-14.494a1.853 1.853 0 0 0 -1.611.941l-2.971 5.23h-6.171v25.429h36" fill="#5789b2"/><circle cx="24" cy="21.971" fill="#e2e3e8" r="10.8"/><path d="m16.2 21.971a10.792 10.792 0 0 1 9.3-10.683 10.8 10.8 0 1 0 0 21.367 10.793 10.793 0 0 1 -9.3-10.684z" fill="#bcd0e0"/><path d="m1 44h62v9h-62z" fill="#f0f0ef"/><path d="m44.074 59-1.034-1.618a3.822 3.822 0 0 0 -3.227-1.715 2.758 2.758 0 0 1 -2.841-2.667h-9.944a2.758 2.758 0 0 1 -2.841 2.667 3.822 3.822 0 0 0 -3.227 1.715l-1.034 1.618z" fill="#bebfc0"/><path d="m30 47h4v3h-4z" fill="#fce68d"/><path d="m63 13h-18v2h17v28h-3v2h3v7h-60v-7h33.75v-2h-33.75v-28h1v-2h-2a1 1 0 0 0 -1 1v39a1 1 0 0 0 1 1h24.651a1.9 1.9 0 0 1 -1.464.667 4.846 4.846 0 0 0 -4.069 2.176l-1.035 1.618a1 1 0 0 0 .843 1.539h24.148a1 1 0 0 0 .843-1.539l-1.035-1.618a4.847 4.847 0 0 0 -4.07-2.176 1.9 1.9 0 0 1 -1.463-.667h24.651a1 1 0 0 0 1-1v-39a1 1 0 0 0 -1-1zm-23.188 43.667a2.831 2.831 0 0 1 2.388 1.253l.051.08h-20.5l.051-.08a2.831 2.831 0 0 1 2.384-1.253 3.826 3.826 0 0 0 3.697-2.667h8.234a3.826 3.826 0 0 0 3.695 2.667z"/><path d="m34 51h-4a1 1 0 0 1 -1-1v-3a1 1 0 0 1 1-1h4a1 1 0 0 1 1 1v3a1 1 0 0 1 -1 1zm-3-2h2v-1h-2z"/><path d="m28 19v-2h-3v-2h-2v2h-2a1 1 0 0 0 -1 1v4a1 1 0 0 0 1 1h5v2h-6v2h3v2h2v-2h2a1 1 0 0 0 1-1v-4a1 1 0 0 0 -1-1h-5v-2z"/><path d="m32.333 37.6h-26.333a1 1 0 0 1 -1-1v-25.429a1 1 0 0 1 1-1h5.589l2.683-4.724a2.86 2.86 0 0 1 2.481-1.447h14.494a2.859 2.859 0 0 1 2.481 1.448l2.683 4.723h5.589a1 1 0 0 1 1 1v10.8h-2v-9.8h-5.171a1 1 0 0 1 -.87-.506l-2.971-5.23a.855.855 0 0 0 -.741-.435h-14.494a.857.857 0 0 0 -.741.434l-2.971 5.231a1 1 0 0 1 -.87.506h-5.171v23.429h25.333z"/><path d="m24 33.771a11.8 11.8 0 1 1 11.8-11.8 11.813 11.813 0 0 1 -11.8 11.8zm0-21.6a9.8 9.8 0 1 0 9.8 9.8 9.811 9.811 0 0 0 -9.8-9.8z"/><circle cx="47.5" cy="36" fill="#ea8383" r="11.5"/><path d="m47.5 28.571-6.25 6.429h3.75v9h5v-9h3.75z" fill="#99d195"/><path d="m50 45h-5a1 1 0 0 1 -1-1v-8h-2.75a1 1 0 0 1 -.717-1.7l6.25-6.429a1.031 1.031 0 0 1 1.434 0l6.25 6.429a1 1 0 0 1 -.717 1.7h-2.75v8a1 1 0 0 1 -1 1zm-4-2h3v-8a1 1 0 0 1 1-1h1.383l-3.883-3.994-3.883 3.994h1.383a1 1 0 0 1 1 1z"/><path d="m47.5 48.5a12.5 12.5 0 1 1 12.5-12.5 12.514 12.514 0 0 1 -12.5 12.5zm0-23a10.5 10.5 0 1 0 10.5 10.5 10.512 10.512 0 0 0 -10.5-10.5z"/><path d="m54 17h2v2h-2z"/><path d="m58 17h2v2h-2z"/><path d="m58 21h2v2h-2z"/></g></svg>