<svg id="Capa_1" enable-background="new 0 0 512 512" height="auto" viewBox="0 0 512 512" width="auto" xmlns="http://www.w3.org/2000/svg"><g><path d="m35.276 297.571h441.448v165.543h-441.448z" fill="#6354b1"/><path d="m436.752 297.571v83.404c0 34.326-27.827 62.154-62.154 62.154h-339.322v19.986h441.448v-165.544z" fill="#54469c"/><path d="m35.276 201.005h441.448v96.567h-441.448z" fill="#aca6d6"/><path d="m436.752 201.005h39.972v96.567h-39.972z" fill="#978ecb"/><path d="m380.157 228.595h68.976v41.386h-68.976z" fill="#c8effe"/><path d="m436.752 228.595h12.381v41.386h-12.381z" fill="#99e6fc"/><path d="m475.722 490.705h-439.444c-.553 0-1.002-.449-1.002-1.002v-26.589h441.448v26.589c0 .553-.448 1.002-1.002 1.002z" fill="#978ecb"/><path d="m149.399 395.111 28.927 107.959c.226.843.99 1.43 1.863 1.43h151.622c.873 0 1.637-.586 1.863-1.43l28.927-107.959z" fill="#aca6d6"/><path d="m364.685 347.383-23.378-132.583h-170.614l-23.378 132.583z" fill="#c2bce0"/><path d="m341.307 214.8-43.342-54.454c-.366-.46-.922-.728-1.509-.728h-40.456-40.456c-.588 0-1.143.268-1.509.728l-43.342 54.454z" fill="#d2cfe9"/><path d="m68.296 256.186 9.306 34.732 46.16-26.65-25.425-25.425c-5.747-5.747-14.637-6.917-21.675-2.854-7.038 4.062-10.47 12.347-8.366 20.197z" fill="#c2bce0"/><circle cx="104.252" cy="283.776" fill="#d2cfe9" r="27.59"/><g fill="#978ecb"><path d="m75.573 173.414h-25.413c-.601 0-1.089.487-1.089 1.089v26.502h27.59v-26.502c.001-.601-.487-1.089-1.088-1.089z"/><path d="m172.14 173.414h-66.799c-.601 0-1.089.487-1.089 1.089v26.502h68.976v-26.502c.001-.601-.487-1.089-1.088-1.089z"/><path d="m366.362 173.414h82.771v27.59h-82.771z"/></g><path d="m35.276 283.776h-24.617c-1.642 0-2.973-1.331-2.973-2.973v-270.33c0-1.642 1.331-2.973 2.973-2.973h21.645c1.642 0 2.973 1.331 2.973 2.973v273.303z" fill="#fd4755"/><path d="m476.724 283.776h24.618c1.642 0 2.973-1.331 2.973-2.973v-270.33c0-1.642-1.331-2.973-2.973-2.973h-21.645c-1.642 0-2.973 1.331-2.973 2.973z" fill="#fd4755"/><circle cx="256" cy="366.548" fill="#dedbee" r="110.362"/><path d="m284.304 259.849c25.631 20.209 42.086 51.539 42.086 86.713 0 60.951-49.411 110.362-110.362 110.362-9.784 0-19.271-1.273-28.304-3.663 18.785 14.811 42.498 23.649 68.276 23.649 60.951 0 110.362-49.411 110.362-110.362 0-51.167-34.82-94.201-82.058-106.699z" fill="#d2cfe9"/><circle cx="256" cy="366.548" fill="#6e61b6" r="55.181"/><circle cx="256" cy="366.548" fill="#c8effe" r="27.59"/><circle cx="246.245" cy="356.793" fill="#f2fbff" r="13.795"/><path d="m380.157 277.481h21.465c4.143 0 7.5-3.358 7.5-7.5s-3.357-7.5-7.5-7.5h-13.965v-26.386h53.977v26.386h-5.036c-4.143 0-7.5 3.358-7.5 7.5s3.357 7.5 7.5 7.5h12.536c4.143 0 7.5-3.358 7.5-7.5v-41.386c0-4.142-3.357-7.5-7.5-7.5h-68.977c-4.143 0-7.5 3.358-7.5 7.5v41.386c0 4.142 3.358 7.5 7.5 7.5z"/><path d="m309.225 419.772c-14.217 14.217-33.119 22.047-53.225 22.047s-39.008-7.83-53.225-22.047c-2.93-2.929-7.678-2.929-10.607 0s-2.929 7.678 0 10.606c17.051 17.05 39.72 26.44 63.832 26.44s46.781-9.39 63.832-26.44c2.929-2.929 2.929-7.678 0-10.606-2.93-2.928-7.678-2.928-10.607 0z"/><path d="m256 276.276c-24.112 0-46.781 9.39-63.832 26.44-2.929 2.929-2.929 7.678 0 10.606 2.93 2.929 7.678 2.929 10.607 0 14.217-14.217 33.119-22.047 53.225-22.047s39.008 7.83 53.225 22.047c2.929 2.929 7.677 2.929 10.607 0 2.929-2.929 2.929-7.678 0-10.606-17.051-17.05-39.72-26.44-63.832-26.44z"/><path d="m256 429.229c34.562 0 62.681-28.119 62.681-62.681s-28.118-62.681-62.681-62.681-62.681 28.119-62.681 62.681 28.119 62.681 62.681 62.681zm0-110.362c26.291 0 47.681 21.39 47.681 47.681s-21.39 47.681-47.681 47.681-47.681-21.39-47.681-47.681c0-26.292 21.39-47.681 47.681-47.681z"/><path d="m256 401.638c19.35 0 35.091-15.742 35.091-35.09 0-19.349-15.741-35.091-35.091-35.091-19.312 0-35.091 15.707-35.091 35.091 0 19.348 15.741 35.09 35.091 35.09zm-13.901-49.582c2.455-2.151 6.229-2.083 8.598.286 2.454 2.455 2.454 6.448 0 8.902-2.455 2.455-6.45 2.454-8.903.001-2.321-2.322-2.695-6.311.305-9.189zm19.205 19.795c6.11-6.11 7.723-15.04 4.841-22.64 5.946 3.493 9.946 9.956 9.946 17.336 0 11.078-9.013 20.09-20.091 20.09-7.38 0-13.844-4-17.337-9.946 7.599 2.883 16.528 1.271 22.641-4.84z"/><path d="m511.814 280.803v-270.33c0-5.775-4.698-10.473-10.472-10.473h-21.645c-5.775 0-10.474 4.698-10.474 10.473v158.863c-1.337-2.059-3.656-3.422-6.295-3.422h-110.362c-4.143 0-7.5 3.358-7.5 7.5s3.357 7.5 7.5 7.5h6.296v12.591h-24.919l-30.111-37.83c-1.799-2.26-4.487-3.556-7.376-3.556h-80.912c-2.889 0-5.577 1.296-7.377 3.557l-27.438 34.472v-15.645c0-4.736-3.853-8.589-8.589-8.589h-66.799c-4.736 0-8.589 3.853-8.589 8.589v19.002h-12.59v-19.002c0-4.736-3.853-8.589-8.589-8.589h-25.413c-3.136 0-5.885 1.69-7.384 4.206v-47.147c0-4.142-3.357-7.5-7.5-7.5s-7.5 3.358-7.5 7.5v153.303h-12.59v-261.276h12.591v72.998c0 4.142 3.357 7.5 7.5 7.5s7.5-3.358 7.5-7.5v-77.525c-.001-5.775-4.699-10.473-10.474-10.473h-21.645c-5.774 0-10.472 4.698-10.472 10.473v270.33c0 4.313 2.621 8.025 6.353 9.628-3.999 3.487-6.353 8.548-6.353 14.038 0 7.114 3.953 13.51 10.315 16.69l17.275 8.638v70.217c0 4.142 3.357 7.5 7.5 7.5s7.5-3.358 7.5-7.5v-74.712c.002-.087.001-.173 0-.26v-19.971h33.604c6.418 8.381 16.525 13.795 27.872 13.795 11.348 0 21.455-5.414 27.873-13.795h15.035l-6.932 39.31c-3.357 17.57-2.751 36.338 2.388 54.393l15.23 56.839h-115.07v-20.623c0-4.142-3.357-7.5-7.5-7.5s-7.5 3.358-7.5 7.5v54.713c0 4.688 3.813 8.501 8.502 8.501h132.98l1.823 6.804c1.102 4.117 4.847 6.992 9.108 6.992h151.621c4.262 0 8.007-2.875 9.107-6.988l1.824-6.807h132.981c4.688 0 8.501-3.814 8.501-8.501v-159.907l17.276-8.638c6.362-3.181 10.314-9.576 10.314-16.69 0-5.489-2.354-10.55-6.353-14.038 3.734-1.603 6.354-5.315 6.354-9.628zm-484.038 32.224-10.567-5.284c-1.248-.624-2.023-1.878-2.023-3.273 0-1.396.775-2.65 2.024-3.274l10.566-5.283zm346.086-132.113h67.771v12.591h-67.771zm-155.632-13.795h75.539c.093.117 32.073 40.295 31.982 40.181h-139.504c1.733-2.176 30.883-38.798 31.983-40.181zm-41.245 55.181h158.029l12.311 69.821c-21.631-26.493-54.537-43.436-91.326-43.436s-69.695 16.943-91.326 43.436zm-65.233-41.386h53.977v12.591h-53.977zm-55.181 0h12.591v12.591h-12.591zm20.834 80.291-1.865-6.961c-1.223-4.562.781-9.399 4.872-11.761 4.09-2.363 9.281-1.679 12.621 1.662l5.079 5.079c-8.253 1.462-15.519 5.819-20.707 11.981zm26.847 42.662c-11.096 0-20.09-9.032-20.09-20.09 0-11.078 9.013-20.091 20.09-20.091 11.078 0 20.091 9.013 20.091 20.091 0 11.058-8.995 20.09-20.091 20.09zm34.525-13.796c2.02-11.108-1.39-22.492-9.318-30.683-.291-.339 1.494 1.463-25.819-25.85-8.132-8.132-20.769-9.794-30.728-4.045-9.96 5.75-14.837 17.525-11.86 28.634l8.559 31.945h-26.835v-81.566h123.341c-1.367 1.718-2.446 2.789-2.824 5.07l-13.489 76.497h-11.027zm-96.001 193.134v-12.59h119.089l3.374 12.59zm294.329-21.919c-3.407 12.715-6.172 23.034-9.569 35.714h-143.072c-.035-.13-11.765-43.908-12.958-48.36 21.43 22.051 51.39 35.77 84.494 35.77s63.064-13.719 84.494-35.77c-3.092 11.541-3.359 12.531-3.389 12.646zm-81.105 8.124c-46.984 0-86.712-31.664-98.964-74.773-18.39-68.629 32.947-130.951 98.964-130.951 65.847 0 117.406 62.13 98.964 130.951-12.252 43.109-51.98 74.773-98.964 74.773zm213.224 13.795h-122.463l3.374-12.59h119.089zm0-27.591h-115.07l15.23-56.839c10.581-37.175-.526-62.3-4.544-93.704h104.384zm0-165.543h-107.029c-12.024-68.189-13.427-76.262-13.649-77.235-.506-1.843-1.355-2.688-2.663-4.331h123.341zm0-96.566h-12.59v-12.591h6.295c2.638 0 4.958-1.362 6.295-3.422zm25.567 114.238-10.567 5.284v-17.116l10.567 5.284c1.248.624 2.023 1.879 2.023 3.274s-.775 2.65-2.023 3.274zm2.023-31.467h-12.591v-261.276h12.591z"/></g></svg>