<svg id="Capa_1" enable-background="new 0 0 509.539 509.539" height="auto" viewBox="0 0 509.539 509.539" width="auto" xmlns="http://www.w3.org/2000/svg"><g><g><path d="m192.356 148.205h124.826v64.565h-124.826z" fill="#5d5360"/><path d="m29 237.42h451.54v237.91h-451.54z" fill="#edf4ff"/><path d="m192.358 148.203h25v64.57h-25z" fill="#4b3f4e"/><path d="m28.998 237.423h25v237.91h-25z" fill="#dbeaff"/><path d="m494.041 255.422h-478.543c-4.418 0-8-3.582-8-8v-45.304c0-4.418 3.582-8 8-8h478.543c4.418 0 8 3.582 8 8v45.304c0 4.418-3.581 8-8 8z" fill="#7a6d79"/><path d="m416.53 475.335v-143.83c0-4.41-3.58-8-8-8h-103.48c-4.41 0-8 3.59-8 8v143.83z" fill="#7a6d79"/><path d="m330.048 323.503c-4.41 0-8 3.59-8 8v143.83h-25v-143.83c0-4.41 3.59-8 8-8z" fill="#685e68"/><path d="m222.129 398.635h-128.49c-4.418 0-8-3.582-8-8v-59.13c0-4.418 3.582-8 8-8h128.49c4.418 0 8 3.582 8 8v59.13c0 4.418-3.582 8-8 8z" fill="#c3ddff"/><path d="m296.599 52.051-6.985-13.519c-1.373-2.658-4.115-4.328-7.107-4.328h-55.475c-2.992 0-5.734 1.67-7.107 4.328l-6.985 13.519c-1.373 2.658-4.115 4.328-7.107 4.328h-33.846c-4.418 0-8 3.582-8 8v92.521c0 4.418 3.582 8 8 8h165.565c4.418 0 8-3.582 8-8v-92.522c0-4.418-3.582-8-8-8h-33.846c-2.991 0-5.733-1.669-7.107-4.327z" fill="#7a6d79"/><circle cx="254.77" cy="105.422" fill="#c3ddff" r="34.174"/><path d="m267.268 137.233c-3.87 1.52-8.09 2.36-12.5 2.36-18.87 0-34.17-15.3-34.17-34.17s15.3-34.18 34.17-34.18c4.41 0 8.63.84 12.5 2.36-12.69 4.99-21.67 17.36-21.67 31.82s8.98 26.82 21.67 31.81z" fill="#a4ccff"/><path d="m118.638 398.633h-25c-4.42 0-8-3.58-8-8v-59.13c0-4.42 3.58-8 8-8h25c-4.42 0-8 3.58-8 8v59.13c0 4.42 3.58 8 8 8z" fill="#a4ccff"/><g fill="#685e68"><path d="m40.498 255.423h-25c-4.42 0-8-3.58-8-8v-45.31c0-4.41 3.58-8 8-8h25c-4.42 0-8 3.59-8 8v45.31c0 4.42 3.58 8 8 8z"/><path d="m188.988 64.383v92.52c0 4.42 3.58 8 8 8h-25c-4.42 0-8-3.58-8-8v-92.52c0-4.42 3.58-8 8-8h25c-4.42 0-8 3.58-8 8z"/></g></g><g><path d="m480.539 409.439c4.143 0 7.5-3.357 7.5-7.5v-139.019h6c8.547 0 15.5-6.953 15.5-15.5v-45.301c0-8.547-6.953-15.5-15.5-15.5h-169.354v-14.219h12.867c8.547 0 15.5-6.953 15.5-15.5v-92.521c0-8.547-6.953-15.5-15.5-15.5h-33.845c-.188 0-.357-.104-.444-.271 0 0 0 0 0-.001l-6.985-13.518c-2.672-5.172-7.948-8.386-13.771-8.386h-55.475c-5.822 0-11.099 3.214-13.771 8.385l-6.985 13.52c-.087.167-.257.271-.444.271h-33.845c-8.547 0-15.5 6.953-15.5 15.5v92.521c0 8.547 6.953 15.5 15.5 15.5h12.867v14.219h-169.354c-8.547 0-15.5 6.953-15.5 15.5v45.301c0 8.547 6.953 15.5 15.5 15.5h6v204.915h-14c-4.143 0-7.5 3.357-7.5 7.5s3.357 7.5 7.5 7.5h494.539c4.143 0 7.5-3.357 7.5-7.5s-3.357-7.5-7.5-7.5h-14v-30.896c0-4.143-3.357-7.5-7.5-7.5s-7.5 3.357-7.5 7.5v30.896h-49.01v-136.33c0-8.547-6.953-15.5-15.5-15.5h-103.479c-8.547 0-15.5 6.953-15.5 15.5v136.33h-253.05v-204.915h47.489c4.143 0 7.5-3.357 7.5-7.5s-3.357-7.5-7.5-7.5h-68.489c-.28 0-.5-.22-.5-.5v-45.301c0-.28.22-.5.5-.5h478.539c.28 0 .5.22.5.5v45.301c0 .28-.22.5-.5.5h-375.05c-4.143 0-7.5 3.357-7.5 7.5s3.357 7.5 7.5 7.5h354.05v139.02c0 4.142 3.357 7.499 7.5 7.499zm-175.989-77.934c0-.267.233-.5.5-.5h103.479c.271 0 .5.229.5.5v136.33h-104.479zm-133.063-174.605v-92.521c0-.275.225-.5.5-.5h33.845c5.822 0 11.099-3.214 13.771-8.385l6.985-13.52c.087-.167.257-.271.444-.271h55.475c.188 0 .357.104.444.271l6.984 13.518c2.673 5.172 7.949 8.386 13.771 8.386h33.845c.275 0 .5.225.5.5v92.522c0 .275-.225.5-.5.5h-165.564c-.275 0-.5-.224-.5-.5zm28.367 15.5h109.83v14.219h-109.83z"/><path d="m93.639 316.005c-8.547 0-15.5 6.953-15.5 15.5v59.13c0 8.547 6.953 15.5 15.5 15.5h128.49c8.547 0 15.5-6.953 15.5-15.5v-59.13c0-8.547-6.953-15.5-15.5-15.5zm128.99 15.5v59.13c0 .275-.225.5-.5.5h-128.49c-.275 0-.5-.225-.5-.5v-59.13c0-.275.225-.5.5-.5h128.49c.275 0 .5.224.5.5z"/><path d="m254.77 63.748c-22.979 0-41.674 18.694-41.674 41.674s18.694 41.674 41.674 41.674 41.674-18.694 41.674-41.674-18.695-41.674-41.674-41.674zm0 68.348c-14.708 0-26.674-11.966-26.674-26.674s11.966-26.674 26.674-26.674 26.674 11.966 26.674 26.674-11.966 26.674-26.674 26.674z"/></g></g></svg>