<svg enable-background="new 0 0 36 36" height="512" viewBox="0 0 36 36" width="512" xmlns="http://www.w3.org/2000/svg"><path d="m1.003 14.311c3.253 6.104 2.324 11.981 3.891 14.923s6.551 8.218 20.083 1.008 11.09-16.579 9.365-19.815c-8.072-15.151-39.1-6.927-33.339 3.884z" fill="#efefef"/><circle cx="12.5" cy="12.5" fill="#2fdf84" r="5.75"/><path d="m9 12.5c0-2.79 1.988-5.115 4.625-5.638-.364-.073-.74-.112-1.125-.112-3.176 0-5.75 2.574-5.75 5.75s2.574 5.75 5.75 5.75c.385 0 .761-.039 1.125-.112-2.637-.523-4.625-2.848-4.625-5.638z" fill="#00b871"/><g fill="#a4afc1"><path d="m26.496 3.907h1v2h-1z" transform="matrix(.707 -.707 .707 .707 4.431 20.519)"/><path d="m30.562 7.974h1v2h-1z" transform="matrix(.707 -.707 .707 .707 2.753 24.593)"/><path d="m25.819 8.474h2v1h-2z" transform="matrix(.707 -.707 .707 .707 1.51 21.593)"/><path d="m29.885 4.408h2v1h-2z" transform="matrix(.707 -.707 .707 .707 5.576 23.277)"/></g><path d="m12.5 19c-3.584 0-6.5-2.916-6.5-6.5s2.916-6.5 6.5-6.5 6.5 2.916 6.5 6.5-2.916 6.5-6.5 6.5zm0-11.5c-2.757 0-5 2.243-5 5s2.243 5 5 5 5-2.243 5-5-2.243-5-5-5z"/><path d="m23.28 29.78-1.06-1.06 1.836-1.836c.487-.487.487-1.28 0-1.768l-7.843-7.844 1.061-1.061 7.843 7.844c1.072 1.072 1.072 2.816 0 3.889z"/><path d="m18.077 22.875h4.596v1.5h-4.596z" transform="matrix(.707 -.707 .707 .707 -10.738 21.327)"/></svg>