<svg id="Layer_5" enable-background="new 0 0 62 62" height="auto" viewBox="0 0 62 62" width="auto" xmlns="http://www.w3.org/2000/svg"><g><g><g><path d="m46 18h-10v-10h10z" fill="#f0bc5e"/></g></g><g><g><path d="m58 18h-10v-10h10z" fill="#f0bc5e"/></g></g><g><g><path d="m46 30h-10v-10h10z" fill="#f0bc5e"/></g></g><g><g><path d="m46 42h-10v-10h10z" fill="#f0bc5e"/></g></g><g><path d="m48 20v10h1.192c.113-.355.272-.695.48-1.008l.773-1.16c.347-.52.93-.832 1.555-.832s1.208.312 1.555.832l.773 1.16c.209.313.367.653.48 1.008h3.192v-10z" fill="#f0bc5e"/></g><g><path d="m57 0h-22c-1.641 0-3.088.806-4 2.031-.912-1.225-2.359-2.031-4-2.031h-22c-2.757 0-5 2.243-5 5v7h1c.552 0 1 .449 1 1v5.171c0 .267-.104.519-.293.708l-1.707 1.707v20.414c0 2.757 2.243 5 5 5h22c1.641 0 3.088-.806 4-2.031.912 1.225 2.359 2.031 4 2.031h13v2h-1c-1.103 0-2 .897-2 2v2c0 1.103.897 2 2 2h1v4c0 2.206 1.794 4 4 4s4-1.794 4-4v-4h1c1.103 0 2-.897 2-2v-2c0-1.103-.897-2-2-2h-1v-2h1c2.757 0 5-2.243 5-5v-36c0-2.757-2.243-5-5-5zm-24.999 40h-2.001v-4h2.001zm0-6h-2.001v-4h2.001zm0-6h-2.001v-4h2zm-.001-6h-2v-4h2zm0-6h-2v-4h2zm-2-6v-4h2v4zm-3 34h-22c-1.654 0-3-1.346-3-3v-19.586l1.121-1.121c.566-.566.879-1.32.879-2.122v-5.171c0-1.304-.836-2.416-2-2.829v-5.171c0-1.654 1.346-3 3-3h22c1.309 0 2.412.847 2.821 2.018-1.018.092-1.821.94-1.821 1.982v34c0 1.042.803 1.89 1.821 1.982-.409 1.171-1.512 2.018-2.821 2.018zm27 14c0 1.103-.897 2-2 2s-2-.897-2-2v-4h4zm3.001-6h-10.001v-2h10zm-7.001-4v-16.789c0-.595.174-1.17.504-1.664l.773-1.16c.322-.484 1.123-.484 1.445 0l.773 1.161c.331.493.505 1.068.505 1.663v16.789zm10-7c0 1.654-1.346 3-3 3h-1v-12.789c0-.991-.29-1.95-.84-2.773l-.773-1.16c-.533-.8-1.426-1.278-2.387-1.278s-1.854.478-2.387 1.277l-.773 1.16c-.55.824-.84 1.783-.84 2.774v12.789h-13c-1.309 0-2.412-.847-2.821-2.018 1.018-.092 1.821-.94 1.821-1.982v-34c0-1.042-.803-1.89-1.821-1.982.409-1.171 1.512-2.018 2.821-2.018h22c1.654 0 3 1.346 3 3z"/><path d="m6 30h20v-22h-20zm8-2v-18h4v18zm10 0h-4v-18h4zm-16-18h4v18h-4z"/><path d="m18 4h8v2h-8z"/><path d="m4 4h4v2h-4z"/><path d="m22 34h-2v6h-2v-4h-2v4h-2v-2h-2v2h-2v-6h-2v6h-2v-8h-2v10h22v-2h-4z"/><path d="m36 4h2v2h-2z"/><path d="m40 4h2v2h-2z"/><path d="m44 4h2v2h-2z"/><path d="m50 4h8v2h-8z"/></g></g></svg>