<svg id="Layer_5" enable-background="new 0 0 62 62" height="auto" viewBox="0 0 62 62" width="auto" xmlns="http://www.w3.org/2000/svg"><g><g><path d="m33 17h-28c-2.209 0-4 1.791-4 4v5h36v-5c0-2.209-1.791-4-4-4z" fill="#f0bc5e"/></g><g><path d="m4 20h2v2h-2z"/><path d="m8 20h2v2h-2z"/><path d="m12 20h2v2h-2z"/><path d="m38 30v-9c0-2.757-2.243-5-5-5h-1v-6h-2v-1c0-1.654-1.346-3-3-3v-1c0-1.654 1.346-3 3-3h1c1.654 0 3 1.346 3 3v6c0 1.654 1.346 3 3 3h2c1.654 0 3-1.346 3-3v-2c0-.551.448-1 1-1s1 .449 1 1v14c0 2.757 2.243 5 5 5h1c2.757 0 5-2.243 5-5v-5c1.103 0 2-.897 2-2v-2h3v-10h-2v-4h-8v4h-2v10h3v2c0 1.103.897 2 2 2v5c0 1.654-1.346 3-3 3h-1c-1.654 0-3-1.346-3-3v-14c0-1.654-1.346-3-3-3s-3 1.346-3 3v2c0 .551-.448 1-1 1h-2c-.552 0-1-.449-1-1v-6c0-2.757-2.243-5-5-5h-1c-2.757 0-5 2.243-5 5v1c-1.654 0-3 1.346-3 3v1h-2v6h-15c-2.757 0-5 2.243-5 5v32c0 2.757 2.243 5 5 5h15v4h42v-32zm14-28h4v2h-4zm-2 4h8v6h-8zm5 8v2h-2v-2zm-31-5c0-.551.448-1 1-1h2c.552 0 1 .449 1 1v1h-4zm-2 3h8v4h-8zm-17 44c-1.654 0-3-1.346-3-3v-32c0-1.654 1.346-3 3-3h28c1.654 0 3 1.346 3 3v9h-16v26zm55 4h-38v-28h38z"/><path d="m29 44c2.757 0 5-2.243 5-5s-2.243-5-5-5-5 2.243-5 5 2.243 5 5 5zm0-8c1.654 0 3 1.346 3 3s-1.346 3-3 3-3-1.346-3-3 1.346-3 3-3z"/><path d="m26 56v2h32v-2h-2.416l-7.632-13.568c-.844-1.5-2.436-2.432-4.157-2.432-1.443 0-2.793.643-3.703 1.763l-11.568 14.237zm15.645-12.977c.528-.65 1.312-1.023 2.15-1.023.999 0 1.925.541 2.415 1.412l7.081 12.588h-22.19z"/><path d="m6 41h-2v11c0 1.103.897 2 2 2h4v-2h-4z"/><path d="m12 52h2v2h-2z"/></g></g></svg>