<svg height="512pt" viewBox="-6 0 512 512" width="512pt" xmlns="http://www.w3.org/2000/svg"><path d="m500.757812 261.609375c0 39.457031-9.125 76.777344-25.382812 109.976563-40.71875 83.140624-126.171875 139.371093-224.996094 139.371093-98.824218 0-184.273437-56.230469-224.996094-139.371093-16.253906-33.199219-25.382812-70.523438-25.382812-109.976563 0-138.273437 112.097656-250.367187 250.378906-250.367187s250.378906 112.09375 250.378906 250.367187zm0 0" fill="#8279c0"/><path d="m76.648438 0h255.21875c3.480468 0 6.859374 1.183594 9.578124 3.359375l92.242188 73.792969c3.636719 2.90625 5.753906 7.3125 5.753906 11.96875v253.21875c0 8.46875-6.863281 15.328125-15.328125 15.328125h-347.464843c-8.46875 0-15.332032-6.859375-15.332032-15.328125v-327.011719c0-8.464844 6.863282-15.328125 15.332032-15.328125zm0 0" fill="#8ed0e1"/><path d="m424.113281 357.667969h-317.828125c-8.46875 0-15.332031-6.863281-15.332031-15.328125v-327.011719c0-8.464844 6.863281-15.328125 15.332031-15.328125h225.582032c3.480468 0 6.859374 1.183594 9.578124 3.359375l92.242188 73.792969c3.636719 2.90625 5.753906 7.3125 5.753906 11.96875v253.21875c0 8.464844-6.863281 15.328125-15.328125 15.328125zm0 0" fill="#b0dde9"/><path d="m387.320312 265.699219h-255.488281c-5.644531 0-10.21875-4.578125-10.21875-10.222657v-194.160156c0-5.644531 4.574219-10.21875 10.21875-10.21875h255.488281c5.644532 0 10.21875 4.574219 10.21875 10.21875v194.160156c0 5.644532-4.574218 10.222657-10.21875 10.222657zm0 0" fill="#8ed0e1"/><path d="m180.40625 86.824219c0-2.710938 2.199219-4.910157 4.914062-4.910157h13.09375c2.710938 0 4.910157 2.199219 4.910157 4.910157 0 2.710937-2.199219 4.910156-4.910157 4.910156h-13.09375c-2.714843 0-4.914062-2.199219-4.914062-4.910156zm167.996094 21.445312v108.347657c0 9.957031-8.070313 18.027343-18.027344 18.027343h-141.59375c-9.957031 0-18.03125-8.070312-18.03125-18.027343v-113.257813c0-3.617187 2.933594-6.546875 6.546875-6.546875h29.136719c3.617187 0 6.550781 2.929688 6.550781 6.546875h21.277344v-11.785156c0-5.425781 4.398437-9.820313 9.820312-9.820313h58.929688c5.421875 0 9.820312 4.394532 9.820312 9.820313v11.785156h30.660157c2.710937 0 4.910156 2.199219 4.910156 4.910156zm-102.683594-8.511719c0 2.710938 2.199219 4.910157 4.910156 4.910157h45.835938c2.710937 0 4.910156-2.199219 4.910156-4.910157v-3.273437c0-2.710937-2.199219-4.910156-4.910156-4.910156h-45.835938c-2.710937 0-4.910156 2.199219-4.910156 4.910156zm78.574219 65.472657c0-28.023438-22.722657-50.742188-50.746094-50.742188s-50.742187 22.71875-50.742187 50.742188c0 28.023437 22.71875 50.742187 50.742187 50.742187s50.746094-22.71875 50.746094-50.742187zm-50.746094-37.644531c-20.792969 0-37.648437 16.851562-37.648437 37.644531s16.855468 37.648437 37.648437 37.648437 37.648437-16.855468 37.648437-37.648437-16.855468-37.644531-37.648437-37.644531zm0 0" fill="#0da9cb"/><path d="m341.503906 3.28125 92.285156 73.808594c1.597657 1.277344 2.804688 2.914062 3.765626 4.664062h-72.84375c-10.402344 0-19.148438-7.816406-20.3125-18.152344l-7.039063-62.582031c1.464844.558594 2.902344 1.269531 4.144531 2.261719zm0 0" fill="#fff5f5"/><path d="m206.203125 347.449219h-165.488281c-8.46875 0-15.332032-6.863281-15.332032-15.328125v-20.4375c0-8.464844 6.863282-15.328125 15.332032-15.328125h165.488281c8.46875 0 15.332031 6.863281 15.332031 15.328125v20.4375c0 8.464844-6.863281 15.328125-15.332031 15.328125zm0 0" fill="#fdb44c"/><path d="m206.203125 347.449219h-130.875c-8.464844 0-15.328125-6.863281-15.328125-15.328125v-20.4375c0-8.464844 6.863281-15.328125 15.328125-15.328125h130.878906c8.464844 0 15.328125 6.863281 15.328125 15.328125v20.4375c0 8.464844-6.863281 15.328125-15.332031 15.328125zm0 0" fill="#fdc273"/><path d="m101.171875 346.296875v63.238281c0 21.601563-26.835937 31.40625-40.902344 15.011719-13.75-16.03125-25.503906-33.796875-34.886719-52.960937v-40.617188h60.460938c8.464844 0 15.328125 6.859375 15.328125 15.328125zm0 0" fill="#fbc56d"/><path d="m475.375 371.585938c-40.714844 83.15625-126.160156 140.414062-224.996094 140.414062-76.210937 0-144.457031-34.058594-190.378906-87.769531v-93.242188h400.046875c8.464844 0 15.328125 6.863281 15.328125 15.332031zm0 0" fill="#ffdf8e"/></svg>