<svg enable-background="new 0 0 36 36" height="512" viewBox="0 0 36 36" width="512" xmlns="http://www.w3.org/2000/svg"><path d="m8.114 5.564c-1.805 6.677-6.504 10.327-7.374 13.545s-.847 10.475 13.955 14.477 19.432-4.501 20.388-8.041c4.481-16.572-23.772-31.807-26.969-19.981z" fill="#efefef"/><circle cx="15" cy="12" fill="#f3f3f1" r="4.25"/><path d="m21.496 20.301.006-.013c-.117-.068-.241-.126-.366-.182-.036-.016-.07-.036-.107-.051-.201-.084-.414-.145-.63-.196-.061-.014-.122-.026-.184-.037-.231-.042-.466-.071-.71-.072-.001 0-.002 0-.003 0h-.002-8.749-.001c-.001 0-.002 0-.003 0-.244 0-.479.03-.71.072-.062.011-.123.023-.184.037-.217.05-.429.112-.63.196-.037.015-.071.035-.107.051-.125.056-.248.114-.366.182l.006.013c-1.194.692-2.006 1.969-2.006 3.449v3.5h5.001 6.749 5.001v-3.5c0-1.48-.811-2.757-2.005-3.449z" fill="#f3f3f1"/><path d="m13 12c0-1.955 1.328-3.585 3.125-4.08-.361-.1-.733-.17-1.125-.17-2.347 0-4.25 1.903-4.25 4.25s1.903 4.25 4.25 4.25c.392 0 .764-.07 1.125-.17-1.797-.495-3.125-2.125-3.125-4.08z" fill="#d5dbe1"/><path d="m11.006 20.301-.006-.013c.117-.068.241-.126.366-.182.036-.016.07-.036.107-.051.201-.084.414-.145.63-.196.061-.014.122-.026.184-.037.231-.042.466-.071.71-.072h.003-2.249-.001c-.001 0-.002 0-.003 0-.244 0-.479.03-.71.072-.062.011-.123.023-.184.037-.217.05-.429.112-.63.196-.037.015-.071.035-.107.051-.125.056-.248.114-.366.182l.006.013c-1.194.692-2.006 1.969-2.006 3.449v3.5h2.25v-3.5c0-1.48.812-2.757 2.006-3.449z" fill="#d5dbe1"/><path d="m28.25 29.25h-5.5c-.552 0-1-.448-1-1v-3.5c0-.552.448-1 1-1h5.5c.552 0 1 .448 1 1v3.5c0 .552-.448 1-1 1z" fill="#2fdf84"/><path d="m24 28.25v-3.5c0-.552.448-1 1-1h-2.25c-.552 0-1 .448-1 1v3.5c0 .552.448 1 1 1h2.25c-.552 0-1-.448-1-1z" fill="#00b871"/><g fill="#a4afc1"><path d="m26.806 3.967h1v2h-1z" transform="matrix(.707 -.707 .707 .707 4.483 20.759)"/><path d="m30.871 8.033h1v2h-1z" transform="matrix(.707 -.707 .707 .707 2.798 24.824)"/><path d="m26.129 8.533h2v1h-2z" transform="matrix(.707 -.707 .707 .707 1.559 21.829)"/><path d="m30.194 4.467h2v1h-2z" transform="matrix(.707 -.707 .707 .707 5.624 23.513)"/></g><path d="m15 17c-2.757 0-5-2.243-5-5s2.243-5 5-5 5 2.243 5 5-2.243 5-5 5zm0-8.5c-1.93 0-3.5 1.57-3.5 3.5s1.57 3.5 3.5 3.5 3.5-1.57 3.5-3.5-1.57-3.5-3.5-3.5z"/><path d="m28.25 30h-5.5c-.965 0-1.75-.785-1.75-1.75v-3.5c0-.965.785-1.75 1.75-1.75h5.5c.965 0 1.75.785 1.75 1.75v3.5c0 .965-.785 1.75-1.75 1.75zm-5.5-5.5c-.138 0-.25.112-.25.25v3.5c0 .138.112.25.25.25h5.5c.138 0 .25-.112.25-.25v-3.5c0-.138-.112-.25-.25-.25z"/><path d="m27.25 24.5h-3.5c-.414 0-.75-.336-.75-.75v-2.25c0-1.378 1.121-2.5 2.5-2.5s2.5 1.122 2.5 2.5v2.25c0 .414-.336.75-.75.75zm-2.75-1.5h2v-1.5c0-.551-.448-1-1-1s-1 .449-1 1z"/><path d="m18.5 28h-11.75c-.414 0-.75-.336-.75-.75v-3.5c0-2.619 2.131-4.75 4.75-4.75h8.75c.837 0 1.659.222 2.378.641l-.754 1.296c-.491-.286-1.053-.437-1.624-.437h-8.75c-1.792 0-3.25 1.458-3.25 3.25v2.75h11z"/></svg>