<svg id="Layer_5" enable-background="new 0 0 62 62" height="auto" viewBox="0 0 62 62" width="auto" xmlns="http://www.w3.org/2000/svg"><g><g><g><path d="m28 38h-22c-1.103 0-2-.897-2-2v-10c0-1.103.897-2 2-2h22c1.103 0 2 .897 2 2v10c0 1.103-.897 2-2 2z" fill="#f0bc5e"/></g></g><g><g><path d="m49 22c-4.962 0-9-4.037-9-9s4.038-9 9-9 9 4.037 9 9-4.038 9-9 9z" fill="#f0bc5e"/></g></g><g><path d="m21 46c1.654 0 3-1.346 3-3s-1.346-3-3-3-3 1.346-3 3 1.346 3 3 3zm0-4c.551 0 1 .448 1 1s-.449 1-1 1-1-.448-1-1 .449-1 1-1z"/><path d="m13 46c1.654 0 3-1.346 3-3s-1.346-3-3-3-3 1.346-3 3 1.346 3 3 3zm0-4c.551 0 1 .448 1 1s-.449 1-1 1-1-.448-1-1 .449-1 1-1z"/><path d="m4 58h8v-6h-8zm2-4h4v2h-4z"/><path d="m28 52h-2c-1.103 0-2 .897-2 2v2c0 1.103.897 2 2 2h2c1.103 0 2-.897 2-2v-2c0-1.103-.897-2-2-2zm-2 4v-2h2l.001 2z"/><path d="m20 52h-2c-1.103 0-2 .897-2 2v2c0 1.103.897 2 2 2h2c1.103 0 2-.897 2-2v-2c0-1.103-.897-2-2-2zm-2 4v-2h2l.001 2z"/><path d="m62 13c0-7.168-5.832-13-13-13s-13 5.832-13 13c0 5.491 3.427 10.186 8.25 12.089l-1.25 3.749v18.162c0 1.371.93 2.517 2.188 2.874l1.031 4.126h1.781v2c0 2.206-1.794 4-4 4s-4-1.794-4-4v-10c0-3.309-2.691-6-6-6v-19c0-2.757-2.243-5-5-5v-10c0-3.309-2.691-6-6-6h-1c-3.309 0-6 2.691-6 6v4c-1.654 0-3 1.346-3 3v3h-8c-2.757 0-5 2.243-5 5v36c0 2.757 2.243 5 5 5h24c2.757 0 5-2.243 5-5v-15c2.206 0 4 1.794 4 4v10c0 3.309 2.691 6 6 6s6-2.691 6-6v-2h1.781l1.031-4.126c1.258-.357 2.188-1.503 2.188-2.874v-18.162l-1.25-3.749c4.823-1.903 8.25-6.598 8.25-12.089zm-44-7c0-2.206 1.794-4 4-4h1c2.206 0 4 1.794 4 4v10h-6v-3c0-1.654-1.346-3-3-3zm-3 7c0-.552.449-1 1-1h2c.551 0 1 .448 1 1v3h-4zm-10 5h24c1.302 0 2.402.839 2.816 2h-29.632c.414-1.161 1.514-2 2.816-2zm-3 4h30v14c0 6.617-5.383 12-12 12h-6c-6.617 0-12-5.383-12-12zm27 38h-24c-1.654 0-3-1.346-3-3v-13.826c2.449 4.081 6.904 6.826 12 6.826h6c5.096 0 9.551-2.745 12-6.826v13.826c0 1.654-1.346 3-3 3zm18.781-8-.5-2h3.438l-.5 2zm4.219-4h-6c-.551 0-1-.448-1-1v-17h8v17c0 .552-.449 1-1 1zm.612-20h-7.225l.774-2.322c.916.205 1.863.322 2.839.322s1.923-.117 2.838-.322zm-3.612-4c-6.065 0-11-4.935-11-11s4.935-11 11-11 11 4.935 11 11-4.935 11-11 11z"/><path d="m49 10c-1.654 0-3 1.346-3 3s1.346 3 3 3 3-1.346 3-3-1.346-3-3-3zm0 4c-.551 0-1-.448-1-1s.449-1 1-1 1 .448 1 1-.449 1-1 1z"/></g></g></svg>