<svg id="Layer_5" enable-background="new 0 0 62 62" height="auto" viewBox="0 0 62 62" width="auto" xmlns="http://www.w3.org/2000/svg"><g><g><g><path d="m54 18h-11v-10h11z" fill="#f0bc5e"/></g></g><g><g><path d="m12 18h-6c-1.103 0-2-.897-2-2v-2c0-1.103.897-2 2-2h6c1.103 0 2 .897 2 2v2c0 1.103-.897 2-2 2z" fill="#f0bc5e"/></g></g><g><path d="m28 28h2v2h-2z"/><path d="m20 28h2v2h-2z"/><path d="m24 28h2v2h-2z"/><path d="m59 8h-1v-1c0-1.654-1.346-3-3-3h-12v-1c0-1.654-1.346-3-3-3h-18c-1.654 0-3 1.346-3 3v1h-2.101c-.465-2.279-2.485-4-4.899-4s-4.434 1.721-4.899 4h-4.101c-1.654 0-3 1.346-3 3v16c0 1.654 1.346 3 3 3h10v-2c0-1.103.897-2 2-2s2 .897 2 2v.667l-3 4v21.919l-2 2v9.414h38v-9.414l-2-2v-21.919l-2.97-3.96c.15-1.516 1.416-2.707 2.97-2.707h7c1.654 0 3-1.346 3-3v-1h1c1.654 0 3-1.346 3-3v-4c0-1.654-1.346-3-3-3zm-36 16v-18h5v3.021c-1.246.939-2 2.416-2 3.979 0 2.757 2.243 5 5 5s5-2.243 5-5c0-1.563-.754-3.041-2-3.979v-3.021h5v18zm9.497-13.581c.941.548 1.503 1.513 1.503 2.581 0 1.654-1.346 3-3 3s-3-1.346-3-3c0-1.068.562-2.033 1.503-2.581l.497-.289v-4.13h2v4.13zm-11.497-7.419c0-.551.448-1 1-1h18c.552 0 1 .449 1 1v1h-20zm-9-1c1.654 0 3 1.346 3 3s-1.346 3-3 3-3-1.346-3-3 1.346-3 3-3zm3 18c-2.206 0-4 1.794-4 4h-8c-.552 0-1-.449-1-1v-16c0-.551.448-1 1-1h4.101c.465 2.279 2.485 4 4.899 4s4.434-1.721 4.899-4h4.101v18h-2c0-2.206-1.794-4-4-4zm3.5 6h25l1.5 2h-6v2h7v2h-30v-2.667zm27.5 24h-2v-4h2zm-30 0v-4h2v4zm4-4h2v4h-2zm4 0h2v4h-2zm4 0h2v4h-2zm4 0h2v4h-2zm4 0h2v4h-2zm4 0h2v4h-2zm6-2h-30v-4h30zm-6-6v-4h2v4zm-2 0h-2v-4h2zm-4 0h-2v-4h2zm-4 0h-2v-4h2zm-4 0h-2v-4h2zm-4 0h-2v-4h2zm-4 0h-2v-4h2zm28 0h-2v-4h2zm2 22h-34v-6.586l1.414-1.414h31.172l1.414 1.414zm8-41c0 .551-.448 1-1 1h-7c-2.414 0-4.434 1.721-4.899 4h-2.101v-18h14c.552 0 1 .449 1 1zm4-4c0 .551-.448 1-1 1h-1v-6h1c.552 0 1 .449 1 1z"/><circle cx="12" cy="5" r="1"/><circle cx="5" cy="21" r="1"/><circle cx="9" cy="21" r="1"/><circle cx="31" cy="13" r="1"/><path d="m25 20h12v2h-12z"/></g></g></svg>