<?xml version="1.0" encoding="iso-8859-1"?>
<!-- Generator: Adobe Illustrator 19.0.0, SVG Export Plug-In . SVG Version: 6.00 Build 0)  -->
<svg version="1.1" id="Layer_1" xmlns="http://www.w3.org/2000/svg" xmlns:xlink="http://www.w3.org/1999/xlink" x="0px" y="0px"
	 viewBox="0 0 512 512" style="enable-background:new 0 0 512 512;" xml:space="preserve">
<g>
	<g>
		<path style="fill:#41965B;" d="M8.533,76.8C3.814,76.8,0,72.986,0,68.267v-25.6C0,19.14,19.14,0,42.667,0h25.6
			C72.986,0,76.8,3.814,76.8,8.533s-3.814,8.533-8.533,8.533h-25.6c-14.114,0-25.6,11.486-25.6,25.6v25.6
			C17.067,72.986,13.252,76.8,8.533,76.8"/>
		<path style="fill:#41965B;" d="M503.467,76.8c-4.719,0-8.533-3.814-8.533-8.533v-25.6c0-14.114-11.486-25.6-25.6-25.6h-25.6
			c-4.719,0-8.533-3.814-8.533-8.533S439.014,0,443.733,0h25.6C492.86,0,512,19.14,512,42.667v25.6
			C512,72.986,508.186,76.8,503.467,76.8"/>
		<path style="fill:#41965B;" d="M469.333,512h-25.6c-4.719,0-8.533-3.814-8.533-8.533c0-4.719,3.814-8.533,8.533-8.533h25.6
			c14.114,0,25.6-11.486,25.6-25.6v-25.6c0-4.719,3.814-8.533,8.533-8.533c4.719,0,8.533,3.814,8.533,8.533v25.6
			C512,492.86,492.86,512,469.333,512"/>
		<path style="fill:#41965B;" d="M68.267,512h-25.6C19.14,512,0,492.86,0,469.333v-25.6c0-4.719,3.814-8.533,8.533-8.533
			s8.533,3.814,8.533,8.533v25.6c0,14.114,11.486,25.6,25.6,25.6h25.6c4.719,0,8.533,3.814,8.533,8.533
			C76.8,508.186,72.986,512,68.267,512"/>
	</g>
	<path style="fill:#ECBA16;" d="M366.933,256c0,61.269-49.664,110.933-110.933,110.933S145.067,317.269,145.067,256
		S194.731,145.067,256,145.067S366.933,194.731,366.933,256"/>
	<path style="fill:#FFFFFF;" d="M315.733,256c0,32.99-26.743,59.733-59.733,59.733c-32.99,0-59.733-26.743-59.733-59.733
		c0-32.99,26.743-59.733,59.733-59.733C288.99,196.267,315.733,223.01,315.733,256"/>
	<g>
		<polygon style="fill:#ECBA16;" points="196.267,264.533 315.733,264.533 315.733,247.467 196.267,247.467 		"/>
		<polygon style="fill:#ECBA16;" points="247.467,315.733 264.533,315.733 264.533,196.267 247.467,196.267 		"/>
	</g>
	<polygon style="fill:#DD342E;" points="460.8,51.2 460.8,102.4 401.067,102.4 435.2,51.2 	"/>
	<polygon style="fill:#38454F;" points="366.933,51.2 366.933,59.733 341.333,59.733 341.333,93.867 366.933,93.867 366.933,102.4 
		401.067,102.4 435.2,51.2 	"/>
</g>
<g>
</g>
<g>
</g>
<g>
</g>
<g>
</g>
<g>
</g>
<g>
</g>
<g>
</g>
<g>
</g>
<g>
</g>
<g>
</g>
<g>
</g>
<g>
</g>
<g>
</g>
<g>
</g>
<g>
</g>
</svg>
